<?xml version="1.0" encoding="UTF-8"?>
<svg id="S_W_Invertiert" data-name="S/W Invertiert" xmlns="http://www.w3.org/2000/svg" viewBox="0 0 920 725">
  <defs>
    <style>
      .cls-1 {
        fill: #fff;
      }
    </style>
  </defs>
  <g>
    <polygon class="cls-1" points="620 325.79 620 434.68 505.26 392.96 620 325.79"/>
    <polygon class="cls-1" points="605.37 440 424.9 440 494.05 399.52 605.37 440"/>
    <polygon class="cls-1" points="481.84 395.08 428.92 426.06 453.09 384.63 481.84 395.08"/>
    <polygon class="cls-1" points="610.1 320 493.05 388.52 458.21 375.85 490.79 320 610.1 320"/>
    <polygon class="cls-1" points="443.54 381.15 411.29 436.44 298.92 328.57 443.54 381.15"/>
    <polygon class="cls-1" points="481.34 316.34 448.66 372.37 303.35 319.54 428.79 263.79 481.34 316.34"/>
    <polygon class="cls-1" points="425 205.47 425 254.53 290 314.53 290 145.47 425 205.47"/>
    <polygon class="cls-1" points="605.37 20 494.05 60.48 424.9 20 605.37 20"/>
    <polygon class="cls-1" points="620 25.32 620 134.21 505.26 67.04 620 25.32"/>
    <polygon class="cls-1" points="481.84 64.92 453.09 75.37 428.92 33.94 481.84 64.92"/>
    <polygon class="cls-1" points="610.1 140 490.79 140 458.21 84.15 493.05 71.48 610.1 140"/>
    <polygon class="cls-1" points="481.34 143.66 428.79 196.21 303.35 140.46 448.66 87.63 481.34 143.66"/>
    <polygon class="cls-1" points="443.54 78.85 298.92 131.44 411.29 23.56 443.54 78.85"/>
  </g>
  <g>
    <path class="cls-1" d="M111.23,667.12c-1.98,3.21-4.44,5.93-7.38,8.16-2.95,2.23-6.25,3.94-9.91,5.1-3.66,1.17-7.59,1.75-11.8,1.75-7.64,0-14.39-1.88-20.26-5.63-5.86-3.76-10.46-9.31-13.8-16.66-3.34-7.35-5-16.4-5-27.15s1.63-19.61,4.91-26.96c3.27-7.35,7.85-12.97,13.75-16.86,5.89-3.89,12.73-5.83,20.5-5.83,4.21,0,8.16.58,11.85,1.75,3.69,1.17,6.99,2.87,9.91,5.1,2.91,2.23,5.34,4.95,7.29,8.16s3.27,6.88,3.98,11.03h28.08c-1.1-8.03-3.42-15.19-6.95-21.47-3.53-6.28-8.01-11.61-13.46-15.98-5.44-4.37-11.66-7.69-18.65-9.96-6.99-2.27-14.54-3.4-22.64-3.4-12.63,0-23.98,2.93-34.05,8.79-10.07,5.86-18.02,14.35-23.85,25.45-5.83,11.11-8.74,24.5-8.74,40.17s2.9,28.95,8.69,40.03c5.8,11.08,13.71,19.54,23.75,25.41,10.04,5.86,21.44,8.79,34.2,8.79,8.87,0,16.89-1.35,24.04-4.03,7.16-2.69,13.39-6.4,18.7-11.12,5.31-4.73,9.58-10.14,12.82-16.22,3.24-6.09,5.31-12.56,6.22-19.43h-28.08c-.78,4.15-2.15,7.82-4.13,11.03Z"/>
    <path class="cls-1" d="M239.18,601.98c-7.84-4.66-17.13-6.99-27.88-6.99s-20.06,2.33-27.93,6.99c-7.87,4.66-13.94,11.22-18.22,19.67-4.27,8.45-6.41,18.28-6.41,29.49s2.14,20.92,6.41,29.34c4.27,8.42,10.35,14.96,18.22,19.62,7.87,4.66,17.18,6.99,27.93,6.99s20.04-2.33,27.88-6.99c7.84-4.66,13.89-11.2,18.17-19.62,4.27-8.42,6.41-18.2,6.41-29.34s-2.14-21.03-6.41-29.49c-4.27-8.45-10.33-15.01-18.17-19.67ZM233.4,668.53c-1.85,5.18-4.61,9.29-8.31,12.34-3.69,3.04-8.29,4.57-13.8,4.57s-10.19-1.52-13.84-4.57c-3.66-3.04-6.41-7.16-8.26-12.34-1.85-5.18-2.77-11.01-2.77-17.49s.92-12.39,2.77-17.54c1.85-5.15,4.6-9.23,8.26-12.24,3.66-3.01,8.27-4.52,13.84-4.52s10.1,1.51,13.8,4.52c3.69,3.01,6.46,7.11,8.31,12.29,1.85,5.18,2.77,11.01,2.77,17.49s-.92,12.31-2.77,17.49Z"/>
    <path class="cls-1" d="M336.97,594.89c-6.15,0-11.61,1.72-16.37,5.15-4.76,3.43-8.15,8.39-10.15,14.86h-1.17v-18.56h-26.33v108.61h27.2v-62.86c0-4.6,1.02-8.63,3.06-12.1,2.04-3.46,4.87-6.17,8.5-8.11,3.63-1.94,7.74-2.91,12.34-2.91,2.2,0,4.5.13,6.9.39,2.4.26,4.18.58,5.34.97v-24.58c-1.3-.26-2.8-.47-4.52-.63-1.72-.16-3.32-.24-4.81-.24Z"/>
    <path class="cls-1" d="M415.23,594.89c-6.15,0-11.61,1.72-16.37,5.15-4.76,3.43-8.15,8.39-10.15,14.86h-1.17v-18.56h-26.33v108.61h27.2v-62.86c0-4.6,1.02-8.63,3.06-12.1,2.04-3.46,4.87-6.17,8.5-8.11,3.63-1.94,7.74-2.91,12.34-2.91,2.2,0,4.5.13,6.9.39,2.4.26,4.18.58,5.34.97v-24.58c-1.3-.26-2.8-.47-4.52-.63-1.72-.16-3.32-.24-4.81-.24Z"/>
    <path class="cls-1" d="M519.52,608.35c-4.63-4.5-9.97-7.85-16.03-10.05-6.06-2.2-12.55-3.3-19.48-3.3-10.43,0-19.51,2.37-27.25,7.09-7.74,4.73-13.73,11.32-17.97,19.77-4.24,8.45-6.36,18.25-6.36,29.39s2.14,21.28,6.41,29.63c4.27,8.35,10.39,14.82,18.36,19.38,7.97,4.57,17.42,6.85,28.37,6.85,8.29,0,15.64-1.21,22.05-3.64,6.41-2.43,11.76-5.86,16.03-10.3,4.27-4.44,7.29-9.6,9.04-15.5l-24.77-4.86c-1.1,2.91-2.69,5.38-4.76,7.38-2.07,2.01-4.57,3.51-7.48,4.52-2.91,1.01-6.12,1.51-9.62,1.51-5.31,0-9.97-1.13-13.99-3.4-4.02-2.27-7.14-5.65-9.38-10.15-2.02-4.07-3.12-8.98-3.31-14.72h74.96v-7.97c0-9.46-1.31-17.63-3.93-24.53-2.62-6.9-6.25-12.6-10.88-17.1ZM470.75,619.57c3.72-2.46,8.21-3.69,13.46-3.69s9.75,1.21,13.31,3.64c3.56,2.43,6.25,5.85,8.06,10.25,1.28,3.12,2.1,6.62,2.48,10.49h-48.57c.34-3.85,1.25-7.42,2.76-10.69,1.94-4.21,4.78-7.54,8.5-10.01Z"/>
    <rect class="cls-1" x="553.75" y="559.96" width="27.2" height="145"/>
    <path class="cls-1" d="M647.23,559.96l-50.03,145h30.6l11.33-34.78h52.75l11.7,34.78h30.7l-51.1-145h-35.95ZM646.32,648.13l5.09-15.64c2.46-8.22,5.04-17.5,7.72-27.83,1.83-7.05,3.77-14.67,5.8-22.82,2.11,8.09,4.13,15.64,6.05,22.63,2.82,10.27,5.55,19.61,8.21,28.03l5.26,15.64h-38.14Z"/>
    <rect class="cls-1" x="750.67" y="596.35" width="27.2" height="108.61"/>
    <path class="cls-1" d="M765.65,552.8c-4.23,0-7.86,1.4-10.88,4.2-3.02,2.8-4.54,6.21-4.54,10.25s1.51,7.37,4.54,10.2c3.03,2.83,6.65,4.25,10.88,4.25s7.95-1.41,10.98-4.25c3.03-2.83,4.54-6.23,4.54-10.2s-1.51-7.45-4.54-10.25c-3.02-2.8-6.68-4.2-10.98-4.2Z"/>
    <path class="cls-1" d="M873.06,559.96v54.55h-.97c-1.3-2.72-3.17-5.6-5.63-8.65-2.46-3.04-5.75-5.62-9.86-7.72-4.11-2.1-9.31-3.16-15.59-3.16-8.16,0-15.61,2.11-22.34,6.31-6.74,4.21-12.1,10.46-16.08,18.75-3.98,8.29-5.97,18.56-5.97,30.8s1.94,22.14,5.83,30.46c3.89,8.32,9.2,14.67,15.93,19.04,6.74,4.37,14.31,6.56,22.73,6.56,6.15,0,11.27-1.04,15.35-3.11,4.08-2.07,7.37-4.58,9.86-7.53,2.49-2.95,4.42-5.81,5.78-8.6h1.46v17.29h26.72v-145h-27.2ZM870.78,668.58c-1.91,5.08-4.7,9.05-8.36,11.9-3.66,2.85-8.11,4.27-13.36,4.27s-9.8-1.46-13.46-4.37c-3.66-2.91-6.43-6.95-8.31-12.1-1.88-5.15-2.82-10.99-2.82-17.54s.92-12.35,2.77-17.44c1.85-5.08,4.6-9.07,8.26-11.95,3.66-2.88,8.18-4.32,13.55-4.32s9.7,1.39,13.36,4.18c3.66,2.79,6.44,6.69,8.36,11.71,1.91,5.02,2.87,10.96,2.87,17.83s-.96,12.74-2.87,17.83Z"/>
  </g>
</svg>