<?xml version="1.0" encoding="UTF-8"?>
<svg id="S_W_Invertiert" data-name="S/W Invertiert" xmlns="http://www.w3.org/2000/svg" xmlns:xlink="http://www.w3.org/1999/xlink" viewBox="0 0 1880 460">
  <defs>
    <style>
      .cls-1 {
        fill: #fff;
      }

      .cls-2 {
        clip-path: url(#clippath);
      }
    </style>
    <clipPath id="clippath">
      <path class="cls-1" d="M579.77,327.18c-8.35-4.78-18.4-7.17-30.16-7.17h-39.62v119.98h38.25c12.18,0,22.57-2.42,31.16-7.25,8.59-4.83,15.12-11.74,19.61-20.73,4.48-8.99,6.72-19.74,6.72-32.25s-2.24-23.07-6.72-32.01c-4.48-8.94-10.9-15.79-19.24-20.57ZM584.68,404.32c-3.09,6.76-7.73,11.93-13.93,15.5-6.2,3.57-14.02,5.35-23.47,5.35h-20.37v-90.34h21.58c9.02,0,16.55,1.77,22.59,5.31,6.04,3.54,10.59,8.66,13.65,15.34,3.06,6.68,4.59,14.78,4.59,24.28s-1.54,17.8-4.63,24.56ZM683.87,354.51c-3.6-2.17-7.37-3.66-11.31-4.47-3.95-.81-7.58-1.21-10.91-1.21-4.94,0-9.82.7-14.65,2.09-4.83,1.4-9.18,3.68-13.04,6.84-3.87,3.17-6.9,7.49-9.1,12.96l15.3,4.43c.91-2.09,2.29-4.11,4.15-6.04,1.85-1.93,4.24-3.53,7.17-4.79,2.92-1.26,6.43-1.89,10.51-1.89s7.37.66,10.03,1.97c2.66,1.32,4.67,3.21,6.04,5.68,1.37,2.47,2.05,5.48,2.05,9.02v.48c0,2.15-.82,3.68-2.46,4.59-1.64.91-4.12,1.57-7.45,1.97-3.33.4-7.68.93-13.04,1.57-4.24.54-8.41,1.28-12.52,2.21-4.11.94-7.85,2.35-11.23,4.23-3.38,1.88-6.08,4.44-8.09,7.69-2.01,3.25-3.02,7.45-3.02,12.6,0,5.91,1.37,10.91,4.11,15.02,2.74,4.11,6.41,7.22,11.03,9.34,4.62,2.12,9.77,3.18,15.46,3.18,4.99,0,9.27-.72,12.84-2.17,3.57-1.45,6.49-3.27,8.78-5.48,2.28-2.2,3.96-4.43,5.03-6.68h.97v12.32h15.7v-59.59c0-6.76-1.16-12.23-3.46-16.39-2.31-4.16-5.26-7.33-8.86-9.5ZM680.08,407.54c0,3.54-.94,6.92-2.82,10.15-1.88,3.22-4.6,5.84-8.17,7.85-3.57,2.01-7.91,3.02-13,3.02-3.44,0-6.5-.52-9.18-1.57-2.68-1.05-4.79-2.56-6.32-4.55-1.53-1.99-2.29-4.48-2.29-7.49,0-3.27.87-5.88,2.62-7.81,1.74-1.93,4.07-3.42,6.97-4.47,2.9-1.05,6.04-1.78,9.42-2.21,1.4-.16,3.23-.39,5.52-.68,2.28-.29,4.63-.64,7.05-1.05,2.42-.4,4.56-.87,6.44-1.41,1.88-.54,3.14-1.15,3.78-1.85v12.08ZM757.49,426.22l3.06,13.21c-1.72.59-3.58,1.02-5.6,1.29-2.01.27-4.01.4-6,.4-8,0-14.2-2.07-18.6-6.2-4.4-4.13-6.6-9.96-6.6-17.47v-54.11h-13.37v-13.37h13.37v-21.42h16.1v21.42h18.2v13.37h-18.2v52.82c0,3.81.78,6.6,2.33,8.37,1.56,1.77,4.19,2.66,7.89,2.66.91,0,2.09-.11,3.54-.32,1.45-.21,2.74-.43,3.87-.64ZM833.96,354.51c-3.6-2.17-7.37-3.66-11.31-4.47s-7.58-1.21-10.91-1.21c-4.94,0-9.82.7-14.65,2.09-4.83,1.4-9.18,3.68-13.04,6.84-3.87,3.17-6.9,7.49-9.1,12.96l15.3,4.43c.91-2.09,2.29-4.11,4.15-6.04,1.85-1.93,4.24-3.53,7.17-4.79,2.92-1.26,6.43-1.89,10.51-1.89s7.37.66,10.03,1.97c2.66,1.32,4.67,3.21,6.04,5.68,1.37,2.47,2.05,5.48,2.05,9.02v.48c0,2.15-.82,3.68-2.46,4.59-1.64.91-4.12,1.57-7.45,1.97-3.33.4-7.68.93-13.04,1.57-4.24.54-8.41,1.28-12.52,2.21-4.11.94-7.85,2.35-11.23,4.23-3.38,1.88-6.08,4.44-8.09,7.69-2.01,3.25-3.02,7.45-3.02,12.6,0,5.91,1.37,10.91,4.11,15.02,2.74,4.11,6.41,7.22,11.03,9.34,4.62,2.12,9.77,3.18,15.46,3.18,4.99,0,9.27-.72,12.84-2.17,3.57-1.45,6.49-3.27,8.78-5.48,2.28-2.2,3.96-4.43,5.03-6.68h.97v12.32h15.7v-59.59c0-6.76-1.16-12.23-3.46-16.39-2.31-4.16-5.26-7.33-8.86-9.5ZM830.17,407.54c0,3.54-.94,6.92-2.82,10.15-1.88,3.22-4.6,5.84-8.17,7.85-3.57,2.01-7.91,3.02-13,3.02-3.44,0-6.5-.52-9.18-1.57-2.68-1.05-4.79-2.56-6.32-4.55-1.53-1.99-2.29-4.48-2.29-7.49,0-3.27.87-5.88,2.62-7.81,1.74-1.93,4.07-3.42,6.97-4.47s6.04-1.78,9.42-2.21c1.4-.16,3.23-.39,5.52-.68,2.28-.29,4.63-.64,7.05-1.05,2.42-.4,4.56-.87,6.44-1.41,1.88-.54,3.14-1.15,3.78-1.85v12.08ZM939,320.01h-20.61l-52.1,82.45v13.61h56.61v23.91h16.1v-23.91h16.1v-14.49h-16.1v-81.57ZM923.05,401.58h-39.05v-.97l38.09-60.15h.97v61.12ZM1030.1,379.11h46.7v13.37c0,10.04-2.13,18.74-6.4,26.09-4.27,7.35-10.12,13.03-17.55,17.03-7.44,4-15.98,6-25.65,6-10.79,0-20.24-2.5-28.34-7.49-8.11-4.99-14.44-12.09-19-21.3-4.56-9.21-6.84-20.12-6.84-32.73s2.29-23.77,6.88-32.97c4.59-9.21,10.9-16.29,18.92-21.26,8.02-4.96,17.19-7.45,27.5-7.45,6.39,0,12.36.94,17.92,2.82,5.56,1.88,10.52,4.58,14.9,8.09,4.37,3.52,8,7.69,10.87,12.52,2.87,4.83,4.84,10.15,5.92,15.94h-17.31c-1.18-3.7-2.75-7.02-4.71-9.94-1.96-2.93-4.3-5.44-7.01-7.53-2.71-2.09-5.77-3.69-9.18-4.79-3.41-1.1-7.15-1.65-11.23-1.65-6.93,0-13.17,1.76-18.72,5.27-5.56,3.52-9.97,8.71-13.25,15.58-3.27,6.87-4.91,15.33-4.91,25.36s1.64,18.24,4.91,25.08c3.27,6.84,7.74,12.05,13.41,15.62,5.66,3.57,12.09,5.35,19.28,5.35,6.6,0,12.4-1.37,17.39-4.11,4.99-2.74,8.87-6.63,11.64-11.68,2.64-4.82,4.01-10.49,4.12-16.99h-30.25v-14.25ZM1159.31,354.64c-6.25-3.87-13.54-5.8-21.86-5.8s-15.59,1.93-21.82,5.8c-6.23,3.87-11.07,9.3-14.53,16.31-3.46,7.01-5.19,15.21-5.19,24.6s1.73,17.34,5.19,24.32c3.46,6.98,8.31,12.4,14.53,16.27,6.23,3.87,13.5,5.8,21.82,5.8s15.61-1.93,21.86-5.8c6.25-3.86,11.1-9.29,14.53-16.27,3.43-6.98,5.15-15.08,5.15-24.32s-1.72-17.59-5.15-24.6c-3.44-7.01-8.28-12.44-14.53-16.31ZM1160.03,411.56c-1.8,4.94-4.58,8.9-8.33,11.88-3.76,2.98-8.51,4.47-14.25,4.47s-10.47-1.49-14.17-4.47c-3.7-2.98-6.46-6.94-8.25-11.88-1.8-4.94-2.7-10.31-2.7-16.1s.9-11.25,2.7-16.19c1.8-4.94,4.55-8.91,8.25-11.92,3.7-3.01,8.43-4.51,14.17-4.51s10.49,1.5,14.25,4.51c3.76,3.01,6.54,6.99,8.33,11.96,1.8,4.97,2.7,10.35,2.7,16.14s-.9,11.17-2.7,16.1ZM1259.38,354.64c-6.25-3.87-13.54-5.8-21.86-5.8s-15.59,1.93-21.82,5.8c-6.23,3.87-11.07,9.3-14.53,16.31-3.46,7.01-5.19,15.21-5.19,24.6s1.73,17.34,5.19,24.32c3.46,6.98,8.31,12.4,14.53,16.27,6.23,3.87,13.5,5.8,21.82,5.8s15.61-1.93,21.86-5.8c6.25-3.86,11.1-9.29,14.53-16.27,3.43-6.98,5.15-15.08,5.15-24.32s-1.72-17.59-5.15-24.6c-3.44-7.01-8.28-12.44-14.53-16.31ZM1260.1,411.56c-1.8,4.94-4.58,8.9-8.33,11.88-3.76,2.98-8.51,4.47-14.25,4.47s-10.47-1.49-14.17-4.47c-3.7-2.98-6.46-6.94-8.25-11.88-1.8-4.94-2.7-10.31-2.7-16.1s.9-11.25,2.7-16.19c1.8-4.94,4.55-8.91,8.25-11.92,3.7-3.01,8.43-4.51,14.17-4.51s10.49,1.5,14.25,4.51c3.76,3.01,6.54,6.99,8.33,11.96,1.8,4.97,2.7,10.35,2.7,16.14s-.9,11.17-2.7,16.1ZM1361.02,364.54h-1.05c-.97-1.77-2.4-3.88-4.31-6.32-1.91-2.44-4.58-4.62-8.01-6.52-3.44-1.9-8-2.86-13.69-2.86-7.36,0-13.88,1.85-19.57,5.56-5.69,3.7-10.17,9.02-13.45,15.94-3.27,6.93-4.91,15.22-4.91,24.88s1.61,17.9,4.83,24.88c3.22,6.98,7.69,12.35,13.41,16.1,5.72,3.76,12.25,5.64,19.61,5.64,5.64,0,10.17-.95,13.61-2.86,3.43-1.9,6.12-4.11,8.05-6.6,1.93-2.5,3.41-4.63,4.43-6.4h1.53v14.01h15.62v-119.98h-16.1v44.53ZM1358.49,412.13c-1.85,4.94-4.59,8.79-8.21,11.55-3.62,2.77-8.07,4.15-13.33,4.15s-9.81-1.46-13.49-4.39c-3.68-2.93-6.43-6.86-8.25-11.8-1.83-4.94-2.74-10.47-2.74-16.59s.9-11.53,2.7-16.39c1.8-4.86,4.52-8.71,8.17-11.56,3.65-2.84,8.19-4.27,13.61-4.27s9.77,1.36,13.37,4.07c3.6,2.71,6.32,6.47,8.17,11.27,1.85,4.8,2.78,10.43,2.78,16.87s-.93,12.13-2.78,17.07ZM1425.45,429.76c0,3.17-1.1,5.85-3.3,8.05-2.2,2.2-4.89,3.3-8.05,3.3s-5.87-1.1-8.09-3.3c-2.23-2.2-3.34-4.88-3.34-8.05s1.11-5.85,3.34-8.05c2.23-2.2,4.92-3.3,8.09-3.3s5.85,1.1,8.05,3.3c2.2,2.2,3.3,4.89,3.3,8.05Z"/>
    </clipPath>
  </defs>
  <g>
    <polygon class="cls-1" points="390 325.79 390 434.68 275.26 392.96 390 325.79"/>
    <polygon class="cls-1" points="375.37 440 194.9 440 264.05 399.52 375.37 440"/>
    <polygon class="cls-1" points="251.84 395.08 198.92 426.06 223.09 384.63 251.84 395.08"/>
    <polygon class="cls-1" points="380.1 320 263.05 388.52 228.21 375.85 260.79 320 380.1 320"/>
    <polygon class="cls-1" points="213.54 381.15 181.29 436.44 68.92 328.57 213.54 381.15"/>
    <polygon class="cls-1" points="251.34 316.34 218.66 372.37 73.35 319.54 198.79 263.79 251.34 316.34"/>
    <polygon class="cls-1" points="195 205.47 195 254.53 60 314.53 60 145.47 195 205.47"/>
    <polygon class="cls-1" points="375.37 20 264.05 60.48 194.9 20 375.37 20"/>
    <polygon class="cls-1" points="390 25.32 390 134.21 275.26 67.04 390 25.32"/>
    <polygon class="cls-1" points="251.84 64.92 223.09 75.37 198.92 33.94 251.84 64.92"/>
    <polygon class="cls-1" points="380.1 140 260.79 140 228.21 84.15 263.05 71.48 380.1 140"/>
    <polygon class="cls-1" points="251.34 143.66 198.79 196.21 73.35 140.46 218.66 87.63 251.34 143.66"/>
    <polygon class="cls-1" points="213.54 78.85 68.92 131.44 181.29 23.56 213.54 78.85"/>
  </g>
  <g>
    <path class="cls-1" d="M644.98,178.9c-2.93,4.75-6.58,8.79-10.95,12.1-4.37,3.31-9.27,5.84-14.69,7.56-5.43,1.73-11.26,2.59-17.5,2.59-11.33,0-21.35-2.78-30.04-8.35-8.69-5.57-15.51-13.81-20.46-24.71-4.95-10.9-7.42-24.32-7.42-40.26s2.42-29.07,7.27-39.98c4.85-10.9,11.64-19.23,20.38-24.99,8.74-5.76,18.87-8.64,30.4-8.64,6.24,0,12.1.86,17.58,2.59s10.37,4.25,14.69,7.56c4.32,3.31,7.92,7.35,10.8,12.1,2.88,4.75,4.85,10.21,5.91,16.35h41.63c-1.63-11.91-5.07-22.52-10.3-31.84-5.24-9.31-11.88-17.21-19.95-23.7-8.07-6.48-17.29-11.4-27.66-14.77-10.37-3.36-21.56-5.04-33.57-5.04-18.73,0-35.56,4.35-50.49,13.04-14.93,8.69-26.72,21.27-35.37,37.74-8.64,16.47-12.96,36.33-12.96,59.57s4.3,42.93,12.89,59.35c8.59,16.42,20.34,28.98,35.22,37.67,14.89,8.69,31.79,13.04,50.71,13.04,13.16,0,25.04-1.99,35.65-5.98,10.61-3.98,19.86-9.48,27.73-16.49,7.87-7.01,14.21-15.03,19.02-24.06,4.8-9.03,7.87-18.63,9.22-28.81h-41.63c-1.15,6.15-3.19,11.6-6.12,16.35Z"/>
    <path class="cls-1" d="M834.71,82.31c-11.62-6.91-25.4-10.37-41.35-10.37s-29.75,3.46-41.42,10.37c-11.67,6.92-20.67,16.64-27.01,29.17-6.34,12.53-9.51,27.11-9.51,43.72s3.17,31.02,9.51,43.51c6.34,12.49,15.34,22.19,27.01,29.1,11.67,6.92,25.47,10.37,41.42,10.37s29.72-3.46,41.35-10.37c11.62-6.92,20.6-16.61,26.94-29.1,6.34-12.48,9.51-26.99,9.51-43.51s-3.17-31.19-9.51-43.72c-6.34-12.53-15.32-22.26-26.94-29.17ZM826.14,180.99c-2.74,7.68-6.84,13.78-12.32,18.3-5.47,4.51-12.29,6.77-20.46,6.77s-15.1-2.26-20.53-6.77c-5.43-4.51-9.51-10.61-12.24-18.3-2.74-7.68-4.11-16.33-4.11-25.93s1.37-18.37,4.11-26c2.74-7.64,6.82-13.69,12.24-18.15,5.42-4.47,12.27-6.7,20.53-6.7s14.98,2.23,20.46,6.7c5.47,4.47,9.58,10.54,12.32,18.22,2.74,7.68,4.11,16.33,4.11,25.93s-1.37,18.25-4.11,25.93Z"/>
    <path class="cls-1" d="M979.71,71.79c-9.13,0-17.22,2.55-24.27,7.64-7.06,5.09-12.08,12.44-15.05,22.04h-1.73v-27.52h-39.04v161.06h40.34v-93.21c0-6.82,1.51-12.8,4.54-17.94,3.03-5.14,7.23-9.15,12.61-12.03,5.38-2.88,11.48-4.32,18.3-4.32,3.26,0,6.67.19,10.23.58,3.55.38,6.19.86,7.92,1.44v-36.45c-1.92-.38-4.16-.7-6.7-.94-2.55-.24-4.92-.36-7.13-.36Z"/>
    <path class="cls-1" d="M1095.76,71.79c-9.13,0-17.22,2.55-24.27,7.64-7.06,5.09-12.08,12.44-15.05,22.04h-1.73v-27.52h-39.04v161.06h40.34v-93.21c0-6.82,1.51-12.8,4.54-17.94,3.03-5.14,7.23-9.15,12.61-12.03,5.38-2.88,11.48-4.32,18.3-4.32,3.26,0,6.67.19,10.23.58,3.55.38,6.19.86,7.92,1.44v-36.45c-1.92-.38-4.16-.7-6.7-.94-2.55-.24-4.92-.36-7.13-.36Z"/>
    <path class="cls-1" d="M1250.41,91.74c-6.87-6.67-14.79-11.64-23.77-14.91-8.98-3.26-18.61-4.9-28.88-4.9-15.46,0-28.93,3.51-40.41,10.52-11.48,7.01-20.36,16.78-26.65,29.32-6.29,12.53-9.44,27.06-9.44,43.58s3.17,31.55,9.51,43.94c6.34,12.39,15.41,21.97,27.23,28.74,11.81,6.77,25.83,10.16,42.07,10.16,12.29,0,23.19-1.8,32.7-5.4,9.51-3.6,17.43-8.69,23.77-15.27,6.34-6.58,10.8-14.24,13.4-22.98l-36.74-7.2c-1.63,4.32-3.99,7.97-7.06,10.95-3.07,2.98-6.77,5.21-11.09,6.7-4.32,1.49-9.08,2.23-14.26,2.23-7.88,0-14.79-1.68-20.74-5.04-5.96-3.36-10.59-8.38-13.9-15.05-3-6.03-4.62-13.32-4.91-21.82h111.15v-11.81c0-14.02-1.94-26.15-5.83-36.38-3.89-10.23-9.27-18.68-16.14-25.36ZM1178.09,108.38c5.52-3.65,12.17-5.47,19.95-5.47s14.45,1.8,19.74,5.4c5.28,3.6,9.27,8.67,11.96,15.2,1.9,4.63,3.12,9.82,3.68,15.56h-72.02c.5-5.71,1.86-11,4.09-15.85,2.88-6.24,7.08-11.19,12.61-14.84Z"/>
    <rect class="cls-1" x="1301.17" y="20" width="40.34" height="215.01"/>
    <path class="cls-1" d="M1439.8,20l-74.19,215.01h45.38l16.8-51.57h78.22l17.35,51.57h45.52l-75.78-215.01h-53.3ZM1438.44,150.74l7.56-23.19c3.65-12.2,7.47-25.95,11.45-41.27,2.72-10.46,5.59-21.75,8.6-33.84,3.13,11.99,6.13,23.19,8.97,33.56,4.18,15.22,8.23,29.08,12.17,41.56l7.8,23.19h-56.56Z"/>
    <rect class="cls-1" x="1593.17" y="73.95" width="40.34" height="161.06"/>
    <path class="cls-1" d="M1615.39,9.38c-6.27,0-11.65,2.08-16.14,6.22-4.49,4.15-6.73,9.21-6.73,15.19s2.24,10.93,6.73,15.12c4.49,4.2,9.86,6.29,16.14,6.29s11.79-2.1,16.28-6.29c4.49-4.2,6.73-9.24,6.73-15.12s-2.24-11.05-6.73-15.19c-4.49-4.15-9.91-6.22-16.28-6.22Z"/>
    <path class="cls-1" d="M1774.66,20v80.89h-1.44c-1.92-4.03-4.71-8.31-8.35-12.82-3.65-4.51-8.52-8.33-14.62-11.45-6.1-3.12-13.81-4.68-23.12-4.68-12.1,0-23.15,3.12-33.13,9.36-9.99,6.24-17.94,15.51-23.84,27.8-5.91,12.3-8.86,27.52-8.86,45.67s2.88,32.82,8.64,45.16c5.76,12.34,13.64,21.75,23.63,28.24,9.99,6.48,21.22,9.72,33.71,9.72,9.12,0,16.71-1.54,22.76-4.61,6.05-3.07,10.92-6.79,14.62-11.16,3.7-4.37,6.56-8.62,8.57-12.75h2.16v25.64h39.62V20h-40.34ZM1771.28,181.06c-2.83,7.54-6.96,13.42-12.39,17.65-5.43,4.23-12.03,6.34-19.81,6.34s-14.53-2.16-19.95-6.48c-5.43-4.32-9.53-10.3-12.32-17.94-2.79-7.64-4.18-16.3-4.18-26s1.37-18.32,4.11-25.86c2.74-7.54,6.82-13.44,12.25-17.72,5.42-4.27,12.12-6.41,20.1-6.41s14.38,2.07,19.81,6.19c5.42,4.13,9.56,9.92,12.39,17.36,2.83,7.44,4.25,16.26,4.25,26.43s-1.42,18.9-4.25,26.44Z"/>
  </g>
  <g>
    <path class="cls-1" d="M579.77,327.18c-8.35-4.78-18.4-7.17-30.16-7.17h-39.62v119.98h38.25c12.18,0,22.57-2.42,31.16-7.25,8.59-4.83,15.12-11.74,19.61-20.73,4.48-8.99,6.72-19.74,6.72-32.25s-2.24-23.07-6.72-32.01c-4.48-8.94-10.9-15.79-19.24-20.57ZM584.68,404.32c-3.09,6.76-7.73,11.93-13.93,15.5-6.2,3.57-14.02,5.35-23.47,5.35h-20.37v-90.34h21.58c9.02,0,16.55,1.77,22.59,5.31,6.04,3.54,10.59,8.66,13.65,15.34,3.06,6.68,4.59,14.78,4.59,24.28s-1.54,17.8-4.63,24.56ZM683.87,354.51c-3.6-2.17-7.37-3.66-11.31-4.47-3.95-.81-7.58-1.21-10.91-1.21-4.94,0-9.82.7-14.65,2.09-4.83,1.4-9.18,3.68-13.04,6.84-3.87,3.17-6.9,7.49-9.1,12.96l15.3,4.43c.91-2.09,2.29-4.11,4.15-6.04,1.85-1.93,4.24-3.53,7.17-4.79,2.92-1.26,6.43-1.89,10.51-1.89s7.37.66,10.03,1.97c2.66,1.32,4.67,3.21,6.04,5.68,1.37,2.47,2.05,5.48,2.05,9.02v.48c0,2.15-.82,3.68-2.46,4.59-1.64.91-4.12,1.57-7.45,1.97-3.33.4-7.68.93-13.04,1.57-4.24.54-8.41,1.28-12.52,2.21-4.11.94-7.85,2.35-11.23,4.23-3.38,1.88-6.08,4.44-8.09,7.69-2.01,3.25-3.02,7.45-3.02,12.6,0,5.91,1.37,10.91,4.11,15.02,2.74,4.11,6.41,7.22,11.03,9.34,4.62,2.12,9.77,3.18,15.46,3.18,4.99,0,9.27-.72,12.84-2.17,3.57-1.45,6.49-3.27,8.78-5.48,2.28-2.2,3.96-4.43,5.03-6.68h.97v12.32h15.7v-59.59c0-6.76-1.16-12.23-3.46-16.39-2.31-4.16-5.26-7.33-8.86-9.5ZM680.08,407.54c0,3.54-.94,6.92-2.82,10.15-1.88,3.22-4.6,5.84-8.17,7.85-3.57,2.01-7.91,3.02-13,3.02-3.44,0-6.5-.52-9.18-1.57-2.68-1.05-4.79-2.56-6.32-4.55-1.53-1.99-2.29-4.48-2.29-7.49,0-3.27.87-5.88,2.62-7.81,1.74-1.93,4.07-3.42,6.97-4.47,2.9-1.05,6.04-1.78,9.42-2.21,1.4-.16,3.23-.39,5.52-.68,2.28-.29,4.63-.64,7.05-1.05,2.42-.4,4.56-.87,6.44-1.41,1.88-.54,3.14-1.15,3.78-1.85v12.08ZM757.49,426.22l3.06,13.21c-1.72.59-3.58,1.02-5.6,1.29-2.01.27-4.01.4-6,.4-8,0-14.2-2.07-18.6-6.2-4.4-4.13-6.6-9.96-6.6-17.47v-54.11h-13.37v-13.37h13.37v-21.42h16.1v21.42h18.2v13.37h-18.2v52.82c0,3.81.78,6.6,2.33,8.37,1.56,1.77,4.19,2.66,7.89,2.66.91,0,2.09-.11,3.54-.32,1.45-.21,2.74-.43,3.87-.64ZM833.96,354.51c-3.6-2.17-7.37-3.66-11.31-4.47s-7.58-1.21-10.91-1.21c-4.94,0-9.82.7-14.65,2.09-4.83,1.4-9.18,3.68-13.04,6.84-3.87,3.17-6.9,7.49-9.1,12.96l15.3,4.43c.91-2.09,2.29-4.11,4.15-6.04,1.85-1.93,4.24-3.53,7.17-4.79,2.92-1.26,6.43-1.89,10.51-1.89s7.37.66,10.03,1.97c2.66,1.32,4.67,3.21,6.04,5.68,1.37,2.47,2.05,5.48,2.05,9.02v.48c0,2.15-.82,3.68-2.46,4.59-1.64.91-4.12,1.57-7.45,1.97-3.33.4-7.68.93-13.04,1.57-4.24.54-8.41,1.28-12.52,2.21-4.11.94-7.85,2.35-11.23,4.23-3.38,1.88-6.08,4.44-8.09,7.69-2.01,3.25-3.02,7.45-3.02,12.6,0,5.91,1.37,10.91,4.11,15.02,2.74,4.11,6.41,7.22,11.03,9.34,4.62,2.12,9.77,3.18,15.46,3.18,4.99,0,9.27-.72,12.84-2.17,3.57-1.45,6.49-3.27,8.78-5.48,2.28-2.2,3.96-4.43,5.03-6.68h.97v12.32h15.7v-59.59c0-6.76-1.16-12.23-3.46-16.39-2.31-4.16-5.26-7.33-8.86-9.5ZM830.17,407.54c0,3.54-.94,6.92-2.82,10.15-1.88,3.22-4.6,5.84-8.17,7.85-3.57,2.01-7.91,3.02-13,3.02-3.44,0-6.5-.52-9.18-1.57-2.68-1.05-4.79-2.56-6.32-4.55-1.53-1.99-2.29-4.48-2.29-7.49,0-3.27.87-5.88,2.62-7.81,1.74-1.93,4.07-3.42,6.97-4.47s6.04-1.78,9.42-2.21c1.4-.16,3.23-.39,5.52-.68,2.28-.29,4.63-.64,7.05-1.05,2.42-.4,4.56-.87,6.44-1.41,1.88-.54,3.14-1.15,3.78-1.85v12.08ZM939,320.01h-20.61l-52.1,82.45v13.61h56.61v23.91h16.1v-23.91h16.1v-14.49h-16.1v-81.57ZM923.05,401.58h-39.05v-.97l38.09-60.15h.97v61.12ZM1030.1,379.11h46.7v13.37c0,10.04-2.13,18.74-6.4,26.09-4.27,7.35-10.12,13.03-17.55,17.03-7.44,4-15.98,6-25.65,6-10.79,0-20.24-2.5-28.34-7.49-8.11-4.99-14.44-12.09-19-21.3-4.56-9.21-6.84-20.12-6.84-32.73s2.29-23.77,6.88-32.97c4.59-9.21,10.9-16.29,18.92-21.26,8.02-4.96,17.19-7.45,27.5-7.45,6.39,0,12.36.94,17.92,2.82,5.56,1.88,10.52,4.58,14.9,8.09,4.37,3.52,8,7.69,10.87,12.52,2.87,4.83,4.84,10.15,5.92,15.94h-17.31c-1.18-3.7-2.75-7.02-4.71-9.94-1.96-2.93-4.3-5.44-7.01-7.53-2.71-2.09-5.77-3.69-9.18-4.79-3.41-1.1-7.15-1.65-11.23-1.65-6.93,0-13.17,1.76-18.72,5.27-5.56,3.52-9.97,8.71-13.25,15.58-3.27,6.87-4.91,15.33-4.91,25.36s1.64,18.24,4.91,25.08c3.27,6.84,7.74,12.05,13.41,15.62,5.66,3.57,12.09,5.35,19.28,5.35,6.6,0,12.4-1.37,17.39-4.11,4.99-2.74,8.87-6.63,11.64-11.68,2.64-4.82,4.01-10.49,4.12-16.99h-30.25v-14.25ZM1159.31,354.64c-6.25-3.87-13.54-5.8-21.86-5.8s-15.59,1.93-21.82,5.8c-6.23,3.87-11.07,9.3-14.53,16.31-3.46,7.01-5.19,15.21-5.19,24.6s1.73,17.34,5.19,24.32c3.46,6.98,8.31,12.4,14.53,16.27,6.23,3.87,13.5,5.8,21.82,5.8s15.61-1.93,21.86-5.8c6.25-3.86,11.1-9.29,14.53-16.27,3.43-6.98,5.15-15.08,5.15-24.32s-1.72-17.59-5.15-24.6c-3.44-7.01-8.28-12.44-14.53-16.31ZM1160.03,411.56c-1.8,4.94-4.58,8.9-8.33,11.88-3.76,2.98-8.51,4.47-14.25,4.47s-10.47-1.49-14.17-4.47c-3.7-2.98-6.46-6.94-8.25-11.88-1.8-4.94-2.7-10.31-2.7-16.1s.9-11.25,2.7-16.19c1.8-4.94,4.55-8.91,8.25-11.92,3.7-3.01,8.43-4.51,14.17-4.51s10.49,1.5,14.25,4.51c3.76,3.01,6.54,6.99,8.33,11.96,1.8,4.97,2.7,10.35,2.7,16.14s-.9,11.17-2.7,16.1ZM1259.38,354.64c-6.25-3.87-13.54-5.8-21.86-5.8s-15.59,1.93-21.82,5.8c-6.23,3.87-11.07,9.3-14.53,16.31-3.46,7.01-5.19,15.21-5.19,24.6s1.73,17.34,5.19,24.32c3.46,6.98,8.31,12.4,14.53,16.27,6.23,3.87,13.5,5.8,21.82,5.8s15.61-1.93,21.86-5.8c6.25-3.86,11.1-9.29,14.53-16.27,3.43-6.98,5.15-15.08,5.15-24.32s-1.72-17.59-5.15-24.6c-3.44-7.01-8.28-12.44-14.53-16.31ZM1260.1,411.56c-1.8,4.94-4.58,8.9-8.33,11.88-3.76,2.98-8.51,4.47-14.25,4.47s-10.47-1.49-14.17-4.47c-3.7-2.98-6.46-6.94-8.25-11.88-1.8-4.94-2.7-10.31-2.7-16.1s.9-11.25,2.7-16.19c1.8-4.94,4.55-8.91,8.25-11.92,3.7-3.01,8.43-4.51,14.17-4.51s10.49,1.5,14.25,4.51c3.76,3.01,6.54,6.99,8.33,11.96,1.8,4.97,2.7,10.35,2.7,16.14s-.9,11.17-2.7,16.1ZM1361.02,364.54h-1.05c-.97-1.77-2.4-3.88-4.31-6.32-1.91-2.44-4.58-4.62-8.01-6.52-3.44-1.9-8-2.86-13.69-2.86-7.36,0-13.88,1.85-19.57,5.56-5.69,3.7-10.17,9.02-13.45,15.94-3.27,6.93-4.91,15.22-4.91,24.88s1.61,17.9,4.83,24.88c3.22,6.98,7.69,12.35,13.41,16.1,5.72,3.76,12.25,5.64,19.61,5.64,5.64,0,10.17-.95,13.61-2.86,3.43-1.9,6.12-4.11,8.05-6.6,1.93-2.5,3.41-4.63,4.43-6.4h1.53v14.01h15.62v-119.98h-16.1v44.53ZM1358.49,412.13c-1.85,4.94-4.59,8.79-8.21,11.55-3.62,2.77-8.07,4.15-13.33,4.15s-9.81-1.46-13.49-4.39c-3.68-2.93-6.43-6.86-8.25-11.8-1.83-4.94-2.74-10.47-2.74-16.59s.9-11.53,2.7-16.39c1.8-4.86,4.52-8.71,8.17-11.56,3.65-2.84,8.19-4.27,13.61-4.27s9.77,1.36,13.37,4.07c3.6,2.71,6.32,6.47,8.17,11.27,1.85,4.8,2.78,10.43,2.78,16.87s-.93,12.13-2.78,17.07ZM1425.45,429.76c0,3.17-1.1,5.85-3.3,8.05-2.2,2.2-4.89,3.3-8.05,3.3s-5.87-1.1-8.09-3.3c-2.23-2.2-3.34-4.88-3.34-8.05s1.11-5.85,3.34-8.05c2.23-2.2,4.92-3.3,8.09-3.3s5.85,1.1,8.05,3.3c2.2,2.2,3.3,4.89,3.3,8.05Z"/>
    <g class="cls-2">
      <polygon class="cls-1" points="1425.45 421.57 1417.21 418.41 1425.45 418.41 1425.45 421.57"/>
      <polygon class="cls-1" points="1425.45 425.18 1407.81 418.41 1417.21 418.41 1425.45 421.57 1425.45 425.18"/>
      <polygon class="cls-1" points="1425.45 428.79 1402.96 420.16 1403.63 418.41 1407.81 418.41 1425.45 425.18 1425.45 428.79"/>
      <polygon class="cls-1" points="1425.45 432.4 1402.66 423.65 1402.66 420.95 1402.96 420.16 1425.45 428.79 1425.45 432.4"/>
      <polygon class="cls-1" points="1425.45 436.01 1402.66 427.26 1402.66 423.65 1425.45 432.4 1425.45 436.01"/>
      <polygon class="cls-1" points="1425.45 438.57 1425.1 439.48 1402.66 430.87 1402.66 427.26 1425.45 436.01 1425.45 438.57"/>
      <polygon class="cls-1" points="1425.1 439.48 1424.47 441.12 1419.95 441.12 1402.66 434.48 1402.66 430.87 1425.1 439.48"/>
      <polygon class="cls-1" points="1410.55 441.12 1402.66 438.09 1402.66 434.48 1419.95 441.12 1410.55 441.12"/>
      <polygon class="cls-1" points="1402.66 438.09 1410.55 441.12 1402.66 441.12 1402.66 438.09"/>
      <polygon class="cls-1" points="1361.27 364.45 1357.09 362.85 1361.27 362.85 1361.27 364.45"/>
      <polygon class="cls-1" points="1361.27 368.06 1347.69 362.85 1357.09 362.85 1361.27 364.45 1361.27 368.06"/>
      <polygon class="cls-1" points="1361.27 371.67 1338.29 362.85 1347.69 362.85 1361.27 368.06 1361.27 371.67"/>
      <polygon class="cls-1" points="1361.27 375.28 1328.88 362.85 1338.29 362.85 1361.27 371.67 1361.27 375.28"/>
      <polygon class="cls-1" points="1361.27 378.89 1319.48 362.85 1328.88 362.85 1361.27 375.28 1361.27 378.89"/>
      <polygon class="cls-1" points="1361.27 382.5 1317.86 365.84 1319.01 362.85 1319.48 362.85 1361.27 378.89 1361.27 382.5"/>
      <polygon class="cls-1" points="1361.27 386.11 1316.65 368.98 1317.86 365.84 1361.27 382.5 1361.27 386.11"/>
      <polygon class="cls-1" points="1361.27 389.72 1315.45 372.13 1316.65 368.98 1361.27 386.11 1361.27 389.72"/>
      <polygon class="cls-1" points="1361.27 393.32 1314.24 375.27 1315.45 372.13 1361.27 389.72 1361.27 393.32"/>
      <polygon class="cls-1" points="1361.27 396.93 1313.03 378.42 1314.24 375.27 1361.27 393.32 1361.27 396.93"/>
      <polygon class="cls-1" points="1361.27 400.54 1312.47 381.81 1312.47 379.88 1313.03 378.42 1361.27 396.93 1361.27 400.54"/>
      <polygon class="cls-1" points="1361.27 404.15 1312.47 385.42 1312.47 381.81 1361.27 400.54 1361.27 404.15"/>
      <polygon class="cls-1" points="1361.27 407.76 1312.47 389.03 1312.47 385.42 1361.27 404.15 1361.27 407.76"/>
      <polygon class="cls-1" points="1361.27 410.65 1361.02 411.28 1312.47 392.64 1312.47 389.03 1361.27 407.76 1361.27 410.65"/>
      <polygon class="cls-1" points="1361.02 411.28 1359.82 414.42 1312.47 396.25 1312.47 392.64 1361.02 411.28"/>
      <polygon class="cls-1" points="1359.82 414.42 1358.61 417.57 1312.47 399.86 1312.47 396.25 1359.82 414.42"/>
      <polygon class="cls-1" points="1358.61 417.57 1357.4 420.71 1312.47 403.47 1312.47 399.86 1358.61 417.57"/>
      <polygon class="cls-1" points="1357.4 420.71 1356.19 423.86 1312.47 407.08 1312.47 403.47 1357.4 420.71"/>
      <polygon class="cls-1" points="1356.19 423.86 1354.99 427.01 1312.47 410.69 1312.47 407.08 1356.19 423.86"/>
      <polygon class="cls-1" points="1354.99 427.01 1354.67 427.83 1347.73 427.83 1312.47 414.29 1312.47 410.69 1354.99 427.01"/>
      <polygon class="cls-1" points="1338.33 427.83 1312.47 417.9 1312.47 414.29 1347.73 427.83 1338.33 427.83"/>
      <polygon class="cls-1" points="1328.92 427.83 1312.47 421.51 1312.47 417.9 1338.33 427.83 1328.92 427.83"/>
      <polygon class="cls-1" points="1319.52 427.83 1312.47 425.12 1312.47 421.51 1328.92 427.83 1319.52 427.83"/>
      <polygon class="cls-1" points="1312.47 425.12 1319.52 427.83 1312.47 427.83 1312.47 425.12"/>
      <path class="cls-1" d="M1377.13,323.62l-9.4-3.61,9.4,3.61Z"/>
      <polygon class="cls-1" points="1377.13 327.23 1358.32 320.01 1367.73 320.01 1377.13 323.62 1377.13 327.23"/>
      <polygon class="cls-1" points="1377.13 330.84 1348.92 320.01 1358.32 320.01 1377.13 327.23 1377.13 330.84"/>
      <polygon class="cls-1" points="1377.13 334.45 1339.52 320.01 1348.92 320.01 1377.13 330.84 1377.13 334.45"/>
      <polygon class="cls-1" points="1377.13 338.06 1330.12 320.01 1339.52 320.01 1377.13 334.45 1377.13 338.06"/>
      <polygon class="cls-1" points="1377.13 341.67 1320.71 320.01 1330.12 320.01 1377.13 338.06 1377.13 341.67"/>
      <polygon class="cls-1" points="1377.13 345.28 1316.7 322.08 1317.49 320.01 1320.71 320.01 1377.13 341.67 1377.13 345.28"/>
      <polygon class="cls-1" points="1377.13 348.88 1315.49 325.22 1316.7 322.08 1377.13 345.28 1377.13 348.88"/>
      <polygon class="cls-1" points="1377.13 352.49 1314.28 328.37 1315.49 325.22 1377.13 348.88 1377.13 352.49"/>
      <polygon class="cls-1" points="1377.13 356.1 1313.07 331.52 1314.28 328.37 1377.13 352.49 1377.13 356.1"/>
      <polygon class="cls-1" points="1377.13 359.71 1311.87 334.66 1313.07 331.52 1377.13 356.1 1377.13 359.71"/>
      <polygon class="cls-1" points="1377.13 363.32 1310.66 337.81 1311.87 334.66 1377.13 359.71 1377.13 363.32"/>
      <polygon class="cls-1" points="1377.13 366.93 1309.45 340.95 1310.66 337.81 1377.13 363.32 1377.13 366.93"/>
      <polygon class="cls-1" points="1377.13 370.54 1308.24 344.1 1309.45 340.95 1377.13 366.93 1377.13 370.54"/>
      <polygon class="cls-1" points="1377.13 374.15 1307.04 347.24 1308.24 344.1 1377.13 370.54 1377.13 374.15"/>
      <polygon class="cls-1" points="1377.13 377.76 1305.83 350.39 1307.04 347.24 1377.13 374.15 1377.13 377.76"/>
      <polygon class="cls-1" points="1377.13 381.37 1304.62 353.54 1305.83 350.39 1377.13 377.76 1377.13 381.37"/>
      <polygon class="cls-1" points="1377.13 384.98 1303.41 356.68 1304.62 353.54 1377.13 381.37 1377.13 384.98"/>
      <polygon class="cls-1" points="1377.13 388.59 1302.21 359.83 1303.41 356.68 1377.13 384.98 1377.13 388.59"/>
      <polygon class="cls-1" points="1377.13 392.2 1301 362.97 1302.21 359.83 1377.13 388.59 1377.13 392.2"/>
      <polygon class="cls-1" points="1377.13 395.8 1299.79 366.12 1301 362.97 1377.13 392.2 1377.13 395.8"/>
      <polygon class="cls-1" points="1377.13 399.41 1298.58 369.26 1299.79 366.12 1377.13 395.8 1377.13 399.41"/>
      <polygon class="cls-1" points="1377.13 403.02 1297.38 372.41 1298.58 369.26 1377.13 399.41 1377.13 403.02"/>
      <polygon class="cls-1" points="1377.13 406.63 1296.17 375.55 1297.38 372.41 1377.13 403.02 1377.13 406.63"/>
      <polygon class="cls-1" points="1377.13 410.24 1296.04 379.12 1296.04 375.88 1296.17 375.55 1377.13 406.63 1377.13 410.24"/>
      <polygon class="cls-1" points="1377.13 413.85 1296.04 382.72 1296.04 379.12 1377.13 410.24 1377.13 413.85"/>
      <polygon class="cls-1" points="1377.13 417.46 1296.04 386.33 1296.04 382.72 1377.13 413.85 1377.13 417.46"/>
      <polygon class="cls-1" points="1377.13 421.07 1296.04 389.94 1296.04 386.33 1377.13 417.46 1377.13 421.07"/>
      <polygon class="cls-1" points="1377.13 424.68 1296.04 393.55 1296.04 389.94 1377.13 421.07 1377.13 424.68"/>
      <polygon class="cls-1" points="1377.13 428.29 1296.04 397.16 1296.04 393.55 1377.13 424.68 1377.13 428.29"/>
      <polygon class="cls-1" points="1377.13 431.9 1296.04 400.77 1296.04 397.16 1377.13 428.29 1377.13 431.9"/>
      <polygon class="cls-1" points="1377.13 435.51 1296.04 404.38 1296.04 400.77 1377.13 431.9 1377.13 435.51"/>
      <polygon class="cls-1" points="1377.13 439.11 1296.04 407.99 1296.04 404.38 1377.13 435.51 1377.13 439.11"/>
      <polygon class="cls-1" points="1374.82 441.84 1296.04 411.6 1296.04 407.99 1377.13 439.11 1377.13 441.84 1374.82 441.84"/>
      <polygon class="cls-1" points="1365.42 441.84 1296.04 415.21 1296.04 411.6 1374.82 441.84 1365.42 441.84"/>
      <polygon class="cls-1" points="1356.02 441.84 1296.04 418.82 1296.04 415.21 1365.42 441.84 1356.02 441.84"/>
      <polygon class="cls-1" points="1346.62 441.84 1296.04 422.43 1296.04 418.82 1356.02 441.84 1346.62 441.84"/>
      <polygon class="cls-1" points="1337.22 441.84 1296.04 426.04 1296.04 422.43 1346.62 441.84 1337.22 441.84"/>
      <polygon class="cls-1" points="1327.81 441.84 1296.04 429.64 1296.04 426.04 1337.22 441.84 1327.81 441.84"/>
      <polygon class="cls-1" points="1318.41 441.84 1296.04 433.25 1296.04 429.64 1327.81 441.84 1318.41 441.84"/>
      <polygon class="cls-1" points="1309.01 441.84 1296.04 436.86 1296.04 433.25 1318.41 441.84 1309.01 441.84"/>
      <polygon class="cls-1" points="1299.61 441.84 1296.04 440.47 1296.04 436.86 1309.01 441.84 1299.61 441.84"/>
      <polygon class="cls-1" points="1296.04 440.47 1299.61 441.84 1296.04 441.84 1296.04 440.47"/>
      <polygon class="cls-1" points="1262.8 366.36 1253.67 362.85 1262.8 362.85 1262.8 366.36"/>
      <polygon class="cls-1" points="1262.8 369.96 1244.26 362.85 1253.67 362.85 1262.8 366.36 1262.8 369.96"/>
      <polygon class="cls-1" points="1262.8 373.57 1234.86 362.85 1244.26 362.85 1262.8 369.96 1262.8 373.57"/>
      <polygon class="cls-1" points="1262.8 377.18 1225.46 362.85 1234.86 362.85 1262.8 373.57 1262.8 377.18"/>
      <polygon class="cls-1" points="1262.8 380.79 1218.74 363.88 1219.13 362.85 1225.46 362.85 1262.8 377.18 1262.8 380.79"/>
      <polygon class="cls-1" points="1262.8 384.4 1217.53 367.02 1218.74 363.88 1262.8 380.79 1262.8 384.4"/>
      <polygon class="cls-1" points="1262.8 388.01 1216.32 370.17 1217.53 367.02 1262.8 384.4 1262.8 388.01"/>
      <polygon class="cls-1" points="1262.8 391.62 1215.12 373.32 1216.32 370.17 1262.8 388.01 1262.8 391.62"/>
      <polygon class="cls-1" points="1262.8 395.23 1213.91 376.46 1215.12 373.32 1262.8 391.62 1262.8 395.23"/>
      <polygon class="cls-1" points="1262.8 398.84 1212.7 379.61 1213.91 376.46 1262.8 395.23 1262.8 398.84"/>
      <polygon class="cls-1" points="1262.8 402.45 1212.4 383.1 1212.4 380.4 1212.7 379.61 1262.8 398.84 1262.8 402.45"/>
      <polygon class="cls-1" points="1262.8 406.06 1212.4 386.71 1212.4 383.1 1262.8 402.45 1262.8 406.06"/>
      <polygon class="cls-1" points="1262.8 409.67 1212.4 390.32 1212.4 386.71 1262.8 406.06 1262.8 409.67"/>
      <polygon class="cls-1" points="1262.8 410.43 1261.85 412.91 1212.4 393.93 1212.4 390.32 1262.8 409.67 1262.8 410.43"/>
      <polygon class="cls-1" points="1261.85 412.91 1260.64 416.06 1212.4 397.53 1212.4 393.93 1261.85 412.91"/>
      <polygon class="cls-1" points="1260.64 416.06 1259.44 419.2 1212.4 401.14 1212.4 397.53 1260.64 416.06"/>
      <polygon class="cls-1" points="1259.44 419.2 1258.23 422.35 1212.4 404.75 1212.4 401.14 1259.44 419.2"/>
      <polygon class="cls-1" points="1258.23 422.35 1257.02 425.49 1212.4 408.36 1212.4 404.75 1258.23 422.35"/>
      <polygon class="cls-1" points="1257.02 425.49 1256.09 427.91 1253.92 427.91 1212.4 411.97 1212.4 408.36 1257.02 425.49"/>
      <polygon class="cls-1" points="1244.51 427.91 1212.4 415.58 1212.4 411.97 1253.92 427.91 1244.51 427.91"/>
      <polygon class="cls-1" points="1235.11 427.91 1212.4 419.19 1212.4 415.58 1244.51 427.91 1235.11 427.91"/>
      <polygon class="cls-1" points="1225.71 427.91 1212.4 422.8 1212.4 419.19 1235.11 427.91 1225.71 427.91"/>
      <polygon class="cls-1" points="1216.31 427.91 1212.4 426.41 1212.4 422.8 1225.71 427.91 1216.31 427.91"/>
      <polygon class="cls-1" points="1212.4 426.41 1216.31 427.91 1212.4 427.91 1212.4 426.41"/>
      <polygon class="cls-1" points="1279.07 350.94 1273.58 348.84 1279.07 348.84 1279.07 350.94"/>
      <polygon class="cls-1" points="1279.07 354.55 1264.18 348.84 1273.58 348.84 1279.07 350.94 1279.07 354.55"/>
      <polygon class="cls-1" points="1279.07 358.16 1254.78 348.84 1264.18 348.84 1279.07 354.55 1279.07 358.16"/>
      <polygon class="cls-1" points="1279.07 361.77 1245.37 348.84 1254.78 348.84 1279.07 358.16 1279.07 361.77"/>
      <polygon class="cls-1" points="1279.07 365.38 1235.97 348.84 1245.37 348.84 1279.07 361.77 1279.07 365.38"/>
      <polygon class="cls-1" points="1279.07 368.99 1226.57 348.84 1235.97 348.84 1279.07 365.38 1279.07 368.99"/>
      <polygon class="cls-1" points="1279.07 372.6 1217.17 348.84 1226.57 348.84 1279.07 368.99 1279.07 372.6"/>
      <polygon class="cls-1" points="1279.07 376.21 1207.77 348.84 1217.17 348.84 1279.07 372.6 1279.07 376.21"/>
      <polygon class="cls-1" points="1279.07 379.82 1205.64 351.63 1206.71 348.84 1207.77 348.84 1279.07 376.21 1279.07 379.82"/>
      <polygon class="cls-1" points="1279.07 383.43 1204.43 354.78 1205.64 351.63 1279.07 379.82 1279.07 383.43"/>
      <polygon class="cls-1" points="1279.07 387.04 1203.22 357.92 1204.43 354.78 1279.07 383.43 1279.07 387.04"/>
      <polygon class="cls-1" points="1279.07 390.64 1202.01 361.07 1203.22 357.92 1279.07 387.04 1279.07 390.64"/>
      <polygon class="cls-1" points="1279.07 394.25 1200.81 364.21 1202.01 361.07 1279.07 390.64 1279.07 394.25"/>
      <polygon class="cls-1" points="1279.07 397.86 1199.6 367.36 1200.81 364.21 1279.07 394.25 1279.07 397.86"/>
      <polygon class="cls-1" points="1279.07 401.47 1198.39 370.5 1199.6 367.36 1279.07 397.86 1279.07 401.47"/>
      <polygon class="cls-1" points="1279.07 405.08 1197.18 373.65 1198.39 370.5 1279.07 401.47 1279.07 405.08"/>
      <polygon class="cls-1" points="1279.07 408.69 1195.98 376.8 1197.18 373.65 1279.07 405.08 1279.07 408.69"/>
      <polygon class="cls-1" points="1279.07 412.3 1195.97 380.4 1195.97 376.81 1195.98 376.8 1279.07 408.69 1279.07 412.3"/>
      <polygon class="cls-1" points="1279.07 414.05 1278.44 415.67 1195.97 384.01 1195.97 380.4 1279.07 412.3 1279.07 414.05"/>
      <polygon class="cls-1" points="1278.44 415.67 1277.24 418.82 1195.97 387.62 1195.97 384.01 1278.44 415.67"/>
      <polygon class="cls-1" points="1277.24 418.82 1276.03 421.96 1195.97 391.23 1195.97 387.62 1277.24 418.82"/>
      <polygon class="cls-1" points="1276.03 421.96 1274.82 425.11 1195.97 394.84 1195.97 391.23 1276.03 421.96"/>
      <polygon class="cls-1" points="1274.82 425.11 1273.61 428.25 1195.97 398.45 1195.97 394.84 1274.82 425.11"/>
      <polygon class="cls-1" points="1273.61 428.25 1272.41 431.4 1195.97 402.06 1195.97 398.45 1273.61 428.25"/>
      <polygon class="cls-1" points="1272.41 431.4 1271.2 434.54 1195.97 405.67 1195.97 402.06 1272.41 431.4"/>
      <polygon class="cls-1" points="1271.2 434.54 1269.99 437.69 1195.97 409.28 1195.97 405.67 1271.2 434.54"/>
      <polygon class="cls-1" points="1269.99 437.69 1268.78 440.84 1195.97 412.88 1195.97 409.28 1269.99 437.69"/>
      <polygon class="cls-1" points="1268.78 440.84 1268.37 441.92 1262.21 441.92 1195.97 416.49 1195.97 412.88 1268.78 440.84"/>
      <polygon class="cls-1" points="1252.81 441.92 1195.97 420.1 1195.97 416.49 1262.21 441.92 1252.81 441.92"/>
      <polygon class="cls-1" points="1243.4 441.92 1195.97 423.71 1195.97 420.1 1252.81 441.92 1243.4 441.92"/>
      <polygon class="cls-1" points="1234 441.92 1195.97 427.32 1195.97 423.71 1243.4 441.92 1234 441.92"/>
      <polygon class="cls-1" points="1224.6 441.92 1195.97 430.93 1195.97 427.32 1234 441.92 1224.6 441.92"/>
      <polygon class="cls-1" points="1215.2 441.92 1195.97 434.54 1195.97 430.93 1224.6 441.92 1215.2 441.92"/>
      <polygon class="cls-1" points="1205.79 441.92 1195.97 438.15 1195.97 434.54 1215.2 441.92 1205.79 441.92"/>
      <polygon class="cls-1" points="1196.39 441.92 1195.97 441.76 1195.97 438.15 1205.79 441.92 1196.39 441.92"/>
      <polygon class="cls-1" points="1195.97 441.76 1196.39 441.92 1195.97 441.92 1195.97 441.76"/>
      <polygon class="cls-1" points="1162.73 364.03 1159.64 362.85 1162.73 362.85 1162.73 364.03"/>
      <polygon class="cls-1" points="1162.73 367.64 1150.24 362.85 1159.64 362.85 1162.73 364.03 1162.73 367.64"/>
      <polygon class="cls-1" points="1162.73 371.25 1140.84 362.85 1150.24 362.85 1162.73 367.64 1162.73 371.25"/>
      <polygon class="cls-1" points="1162.73 374.86 1131.44 362.85 1140.84 362.85 1162.73 371.25 1162.73 374.86"/>
      <polygon class="cls-1" points="1162.73 378.47 1122.03 362.85 1131.44 362.85 1162.73 374.86 1162.73 378.47"/>
      <polygon class="cls-1" points="1162.73 382.08 1118.23 365 1119.06 362.85 1122.03 362.85 1162.73 378.47 1162.73 382.08"/>
      <polygon class="cls-1" points="1162.73 385.69 1117.03 368.14 1118.23 365 1162.73 382.08 1162.73 385.69"/>
      <polygon class="cls-1" points="1162.73 389.3 1115.82 371.29 1117.03 368.14 1162.73 385.69 1162.73 389.3"/>
      <polygon class="cls-1" points="1162.73 392.91 1114.61 374.44 1115.82 371.29 1162.73 389.3 1162.73 392.91"/>
      <polygon class="cls-1" points="1162.73 396.52 1113.4 377.58 1114.61 374.44 1162.73 392.91 1162.73 396.52"/>
      <polygon class="cls-1" points="1162.73 400.12 1112.32 380.78 1112.32 380.4 1113.4 377.58 1162.73 396.52 1162.73 400.12"/>
      <polygon class="cls-1" points="1162.73 403.73 1112.32 384.38 1112.32 380.78 1162.73 400.12 1162.73 403.73"/>
      <polygon class="cls-1" points="1162.73 407.34 1112.32 387.99 1112.32 384.38 1162.73 403.73 1162.73 407.34"/>
      <polygon class="cls-1" points="1162.73 410.43 1162.55 410.89 1112.32 391.6 1112.32 387.99 1162.73 407.34 1162.73 410.43"/>
      <polygon class="cls-1" points="1162.55 410.89 1161.35 414.03 1112.32 395.21 1112.32 391.6 1162.55 410.89"/>
      <polygon class="cls-1" points="1161.35 414.03 1160.14 417.18 1112.32 398.82 1112.32 395.21 1161.35 414.03"/>
      <polygon class="cls-1" points="1160.14 417.18 1158.93 420.32 1112.32 402.43 1112.32 398.82 1160.14 417.18"/>
      <polygon class="cls-1" points="1158.93 420.32 1157.72 423.47 1112.32 406.04 1112.32 402.43 1158.93 420.32"/>
      <polygon class="cls-1" points="1157.72 423.47 1156.52 426.61 1112.32 409.65 1112.32 406.04 1157.72 423.47"/>
      <polygon class="cls-1" points="1156.52 426.61 1156.02 427.91 1150.49 427.91 1112.32 413.26 1112.32 409.65 1156.52 426.61"/>
      <polygon class="cls-1" points="1141.09 427.91 1112.32 416.87 1112.32 413.26 1150.49 427.91 1141.09 427.91"/>
      <polygon class="cls-1" points="1131.69 427.91 1112.32 420.48 1112.32 416.87 1141.09 427.91 1131.69 427.91"/>
      <polygon class="cls-1" points="1122.28 427.91 1112.32 424.09 1112.32 420.48 1131.69 427.91 1122.28 427.91"/>
      <polygon class="cls-1" points="1112.88 427.91 1112.32 427.69 1112.32 424.09 1122.28 427.91 1112.88 427.91"/>
      <polygon class="cls-1" points="1112.32 427.69 1112.88 427.91 1112.32 427.91 1112.32 427.69"/>
      <polygon class="cls-1" points="1178.99 352.23 1170.16 348.84 1178.99 348.84 1178.99 352.23"/>
      <polygon class="cls-1" points="1178.99 355.84 1160.75 348.84 1170.16 348.84 1178.99 352.23 1178.99 355.84"/>
      <polygon class="cls-1" points="1178.99 359.45 1151.35 348.84 1160.75 348.84 1178.99 355.84 1178.99 359.45"/>
      <polygon class="cls-1" points="1178.99 363.06 1141.95 348.84 1151.35 348.84 1178.99 359.45 1178.99 363.06"/>
      <polygon class="cls-1" points="1178.99 366.67 1132.55 348.84 1141.95 348.84 1178.99 363.06 1178.99 366.67"/>
      <polygon class="cls-1" points="1178.99 370.28 1123.14 348.84 1132.55 348.84 1178.99 366.67 1178.99 370.28"/>
      <polygon class="cls-1" points="1178.99 373.89 1113.74 348.84 1123.14 348.84 1178.99 370.28 1178.99 373.89"/>
      <polygon class="cls-1" points="1178.99 377.49 1106.34 349.61 1106.63 348.84 1113.74 348.84 1178.99 373.89 1178.99 377.49"/>
      <polygon class="cls-1" points="1178.99 381.1 1105.13 352.75 1106.34 349.61 1178.99 377.49 1178.99 381.1"/>
      <polygon class="cls-1" points="1178.99 384.71 1103.92 355.9 1105.13 352.75 1178.99 381.1 1178.99 384.71"/>
      <polygon class="cls-1" points="1178.99 388.32 1102.72 359.04 1103.92 355.9 1178.99 384.71 1178.99 388.32"/>
      <polygon class="cls-1" points="1178.99 391.93 1101.51 362.19 1102.72 359.04 1178.99 388.32 1178.99 391.93"/>
      <polygon class="cls-1" points="1178.99 395.54 1100.3 365.33 1101.51 362.19 1178.99 391.93 1178.99 395.54"/>
      <polygon class="cls-1" points="1178.99 399.15 1099.09 368.48 1100.3 365.33 1178.99 395.54 1178.99 399.15"/>
      <polygon class="cls-1" points="1178.99 402.76 1097.89 371.62 1099.09 368.48 1178.99 399.15 1178.99 402.76"/>
      <polygon class="cls-1" points="1178.99 406.37 1096.68 374.77 1097.89 371.62 1178.99 402.76 1178.99 406.37"/>
      <polygon class="cls-1" points="1178.99 409.98 1095.89 378.08 1095.89 376.81 1096.68 374.77 1178.99 406.37 1178.99 409.98"/>
      <polygon class="cls-1" points="1178.99 413.59 1095.89 381.69 1095.89 378.08 1178.99 409.98 1178.99 413.59"/>
      <polygon class="cls-1" points="1178.99 414.05 1177.94 416.79 1095.89 385.3 1095.89 381.69 1178.99 413.59 1178.99 414.05"/>
      <polygon class="cls-1" points="1177.94 416.79 1176.73 419.94 1095.89 388.91 1095.89 385.3 1177.94 416.79"/>
      <polygon class="cls-1" points="1176.73 419.94 1175.52 423.08 1095.89 392.52 1095.89 388.91 1176.73 419.94"/>
      <polygon class="cls-1" points="1175.52 423.08 1174.32 426.23 1095.89 396.12 1095.89 392.52 1175.52 423.08"/>
      <polygon class="cls-1" points="1174.32 426.23 1173.11 429.37 1095.89 399.73 1095.89 396.12 1174.32 426.23"/>
      <polygon class="cls-1" points="1173.11 429.37 1171.9 432.52 1095.89 403.34 1095.89 399.73 1173.11 429.37"/>
      <polygon class="cls-1" points="1171.9 432.52 1170.69 435.67 1095.89 406.95 1095.89 403.34 1171.9 432.52"/>
      <polygon class="cls-1" points="1170.69 435.67 1169.49 438.81 1095.89 410.56 1095.89 406.95 1170.69 435.67"/>
      <polygon class="cls-1" points="1169.49 438.81 1168.29 441.92 1168.18 441.92 1095.89 414.17 1095.89 410.56 1169.49 438.81"/>
      <polygon class="cls-1" points="1158.78 441.92 1095.89 417.78 1095.89 414.17 1168.18 441.92 1158.78 441.92"/>
      <polygon class="cls-1" points="1149.38 441.92 1095.89 421.39 1095.89 417.78 1158.78 441.92 1149.38 441.92"/>
      <polygon class="cls-1" points="1139.98 441.92 1095.89 425 1095.89 421.39 1149.38 441.92 1139.98 441.92"/>
      <polygon class="cls-1" points="1130.58 441.92 1095.89 428.61 1095.89 425 1139.98 441.92 1130.58 441.92"/>
      <polygon class="cls-1" points="1121.17 441.92 1095.89 432.22 1095.89 428.61 1130.58 441.92 1121.17 441.92"/>
      <polygon class="cls-1" points="1111.77 441.92 1095.89 435.83 1095.89 432.22 1121.17 441.92 1111.77 441.92"/>
      <polygon class="cls-1" points="1102.37 441.92 1095.89 439.44 1095.89 435.83 1111.77 441.92 1102.37 441.92"/>
      <polygon class="cls-1" points="1095.89 439.44 1102.37 441.92 1095.89 441.92 1095.89 439.44"/>
      <polygon class="cls-1" points="1076.8 320.22 1072.06 318.4 1076.8 318.4 1076.8 320.22"/>
      <polygon class="cls-1" points="1076.8 323.83 1062.66 318.4 1072.06 318.4 1076.8 320.22 1076.8 323.83"/>
      <polygon class="cls-1" points="1076.8 327.44 1053.26 318.4 1062.66 318.4 1076.8 323.83 1076.8 327.44"/>
      <polygon class="cls-1" points="1076.8 331.05 1043.85 318.4 1053.26 318.4 1076.8 327.44 1076.8 331.05"/>
      <polygon class="cls-1" points="1076.8 334.66 1034.45 318.4 1043.85 318.4 1076.8 331.05 1076.8 334.66"/>
      <polygon class="cls-1" points="1076.8 338.27 1025.05 318.4 1034.45 318.4 1076.8 334.66 1076.8 338.27"/>
      <polygon class="cls-1" points="1076.8 341.88 1015.65 318.4 1025.05 318.4 1076.8 338.27 1076.8 341.88"/>
      <polygon class="cls-1" points="1076.8 345.49 1006.24 318.4 1015.65 318.4 1076.8 341.88 1076.8 345.49"/>
      <polygon class="cls-1" points="1076.8 349.1 996.84 318.4 1006.24 318.4 1076.8 345.49 1076.8 349.1"/>
      <polygon class="cls-1" points="1076.8 352.7 987.66 318.49 987.69 318.4 996.84 318.4 1076.8 349.1 1076.8 352.7"/>
      <polygon class="cls-1" points="1076.8 356.31 986.45 321.63 987.66 318.49 1076.8 352.7 1076.8 356.31"/>
      <polygon class="cls-1" points="1076.8 359.92 985.25 324.78 986.45 321.63 1076.8 356.31 1076.8 359.92"/>
      <polygon class="cls-1" points="1076.8 363.53 984.04 327.92 985.25 324.78 1076.8 359.92 1076.8 363.53"/>
      <polygon class="cls-1" points="1076.8 367.14 982.83 331.07 984.04 327.92 1076.8 363.53 1076.8 367.14"/>
      <polygon class="cls-1" points="1076.8 370.75 981.62 334.21 982.83 331.07 1076.8 367.14 1076.8 370.75"/>
      <polygon class="cls-1" points="1076.8 374.36 980.42 337.36 981.62 334.21 1076.8 370.75 1076.8 374.36"/>
      <polygon class="cls-1" points="1076.8 377.97 979.21 340.51 980.42 337.36 1076.8 374.36 1076.8 377.97"/>
      <polygon class="cls-1" points="1076.8 381.58 978 343.65 979.21 340.51 1076.8 377.97 1076.8 381.58"/>
      <polygon class="cls-1" points="1076.8 385.19 976.79 346.8 978 343.65 1076.8 381.58 1076.8 385.19"/>
      <polygon class="cls-1" points="1076.8 388.8 975.59 349.94 976.79 346.8 1076.8 385.19 1076.8 388.8"/>
      <polygon class="cls-1" points="1076.8 392.41 974.38 353.09 975.59 349.94 1076.8 388.8 1076.8 392.41"/>
      <polygon class="cls-1" points="1076.8 396.01 973.17 356.23 974.38 353.09 1076.8 392.41 1076.8 396.01"/>
      <polygon class="cls-1" points="1076.8 399.62 973.01 359.78 973.01 356.65 973.17 356.23 1076.8 396.01 1076.8 399.62"/>
      <polygon class="cls-1" points="1076.8 403.23 973.01 363.39 973.01 359.78 1076.8 399.62 1076.8 403.23"/>
      <polygon class="cls-1" points="1076.8 406.84 973.01 367 973.01 363.39 1076.8 403.23 1076.8 406.84"/>
      <polygon class="cls-1" points="1076.8 410.45 973.01 370.61 973.01 367 1076.8 406.84 1076.8 410.45"/>
      <polygon class="cls-1" points="1076.8 411.3 1075.88 413.71 973.01 374.22 973.01 370.61 1076.8 410.45 1076.8 411.3"/>
      <polygon class="cls-1" points="1075.88 413.71 1074.67 416.85 973.01 377.83 973.01 374.22 1075.88 413.71"/>
      <polygon class="cls-1" points="1074.67 416.85 1073.46 420 973.01 381.44 973.01 377.83 1074.67 416.85"/>
      <polygon class="cls-1" points="1073.46 420 1072.26 423.14 973.01 385.05 973.01 381.44 1073.46 420"/>
      <polygon class="cls-1" points="1072.26 423.14 1071.05 426.29 973.01 388.66 973.01 385.05 1072.26 423.14"/>
      <polygon class="cls-1" points="1071.05 426.29 1069.84 429.43 973.01 392.26 973.01 388.66 1071.05 426.29"/>
      <polygon class="cls-1" points="1069.84 429.43 1068.63 432.58 973.01 395.87 973.01 392.26 1069.84 429.43"/>
      <polygon class="cls-1" points="1068.63 432.58 1067.43 435.73 973.01 399.48 973.01 395.87 1068.63 432.58"/>
      <polygon class="cls-1" points="1067.43 435.73 1066.22 438.87 973.01 403.09 973.01 399.48 1067.43 435.73"/>
      <polygon class="cls-1" points="1066.22 438.87 1065.17 441.6 1063.92 441.6 973.01 406.7 973.01 403.09 1066.22 438.87"/>
      <polygon class="cls-1" points="1054.52 441.6 973.01 410.31 973.01 406.7 1063.92 441.6 1054.52 441.6"/>
      <polygon class="cls-1" points="1045.12 441.6 973.01 413.92 973.01 410.31 1054.52 441.6 1045.12 441.6"/>
      <polygon class="cls-1" points="1035.71 441.6 973.01 417.53 973.01 413.92 1045.12 441.6 1035.71 441.6"/>
      <polygon class="cls-1" points="1026.31 441.6 973.01 421.14 973.01 417.53 1035.71 441.6 1026.31 441.6"/>
      <polygon class="cls-1" points="1016.91 441.6 973.01 424.75 973.01 421.14 1026.31 441.6 1016.91 441.6"/>
      <polygon class="cls-1" points="1007.51 441.6 973.01 428.36 973.01 424.75 1016.91 441.6 1007.51 441.6"/>
      <polygon class="cls-1" points="998.11 441.6 973.01 431.97 973.01 428.36 1007.51 441.6 998.11 441.6"/>
      <polygon class="cls-1" points="988.7 441.6 973.01 435.58 973.01 431.97 998.11 441.6 988.7 441.6"/>
      <polygon class="cls-1" points="979.3 441.6 973.01 439.18 973.01 435.58 988.7 441.6 979.3 441.6"/>
      <polygon class="cls-1" points="973.01 439.18 979.3 441.6 973.01 441.6 973.01 439.18"/>
      <polygon class="cls-1" points="923.05 340.61 922.69 340.46 923.05 340.46 923.05 340.61"/>
      <polygon class="cls-1" points="923.05 344.21 913.28 340.46 922.69 340.46 923.05 340.61 923.05 344.21"/>
      <polygon class="cls-1" points="923.05 347.82 904.79 340.81 904.92 340.46 913.28 340.46 923.05 344.21 923.05 347.82"/>
      <polygon class="cls-1" points="923.05 351.43 903.58 343.96 904.79 340.81 923.05 347.82 923.05 351.43"/>
      <polygon class="cls-1" points="923.05 355.04 902.38 347.1 903.58 343.96 923.05 351.43 923.05 355.04"/>
      <polygon class="cls-1" points="923.05 358.65 901.17 350.25 902.38 347.1 923.05 355.04 923.05 358.65"/>
      <polygon class="cls-1" points="923.05 362.26 899.96 353.4 901.17 350.25 923.05 358.65 923.05 362.26"/>
      <polygon class="cls-1" points="923.05 365.87 898.75 356.54 899.96 353.4 923.05 362.26 923.05 365.87"/>
      <polygon class="cls-1" points="923.05 369.48 897.55 359.69 898.75 356.54 923.05 365.87 923.05 369.48"/>
      <polygon class="cls-1" points="923.05 373.09 896.34 362.83 897.55 359.69 923.05 369.48 923.05 373.09"/>
      <polygon class="cls-1" points="923.05 376.7 895.13 365.98 896.34 362.83 923.05 373.09 923.05 376.7"/>
      <polygon class="cls-1" points="923.05 380.31 893.92 369.12 895.13 365.98 923.05 376.7 923.05 380.31"/>
      <polygon class="cls-1" points="923.05 383.92 892.72 372.27 893.92 369.12 923.05 380.31 923.05 383.92"/>
      <polygon class="cls-1" points="923.05 387.52 891.51 375.42 892.72 372.27 923.05 383.92 923.05 387.52"/>
      <polygon class="cls-1" points="923.05 391.13 890.3 378.56 891.51 375.42 923.05 387.52 923.05 391.13"/>
      <polygon class="cls-1" points="923.05 394.74 889.09 381.71 890.3 378.56 923.05 391.13 923.05 394.74"/>
      <polygon class="cls-1" points="923.05 398.35 887.89 384.85 889.09 381.71 923.05 394.74 923.05 398.35"/>
      <polygon class="cls-1" points="922.06 401.58 886.68 388 887.89 384.85 923.05 398.35 923.05 401.58 922.06 401.58"/>
      <polygon class="cls-1" points="912.66 401.58 885.47 391.14 886.68 388 922.06 401.58 912.66 401.58"/>
      <polygon class="cls-1" points="903.25 401.58 884.26 394.29 885.47 391.14 912.66 401.58 903.25 401.58"/>
      <polygon class="cls-1" points="893.85 401.58 884 397.8 884 394.97 884.26 394.29 903.25 401.58 893.85 401.58"/>
      <polygon class="cls-1" points="884.45 401.58 884 401.41 884 397.8 893.85 401.58 884.45 401.58"/>
      <polygon class="cls-1" points="884 401.41 884.45 401.58 884 401.58 884 401.41"/>
      <polygon class="cls-1" points="955.1 320.42 954.03 320.01 955.1 320.01 955.1 320.42"/>
      <polygon class="cls-1" points="955.1 324.03 944.62 320.01 954.03 320.01 955.1 320.42 955.1 324.03"/>
      <polygon class="cls-1" points="955.1 327.64 935.22 320.01 944.62 320.01 955.1 324.03 955.1 327.64"/>
      <polygon class="cls-1" points="955.1 331.25 925.82 320.01 935.22 320.01 955.1 327.64 955.1 331.25"/>
      <polygon class="cls-1" points="955.1 334.86 916.42 320.01 925.82 320.01 955.1 331.25 955.1 334.86"/>
      <polygon class="cls-1" points="955.1 338.47 907.01 320.01 916.42 320.01 955.1 334.86 955.1 338.47"/>
      <polygon class="cls-1" points="955.1 342.08 897.61 320.01 907.01 320.01 955.1 338.47 955.1 342.08"/>
      <polygon class="cls-1" points="955.1 345.69 894.8 322.54 895.77 320.01 897.61 320.01 955.1 342.08 955.1 345.69"/>
      <polygon class="cls-1" points="955.1 349.3 893.59 325.69 894.8 322.54 955.1 345.69 955.1 349.3"/>
      <polygon class="cls-1" points="955.1 352.91 892.39 328.83 893.59 325.69 955.1 349.3 955.1 352.91"/>
      <polygon class="cls-1" points="955.1 356.52 891.18 331.98 892.39 328.83 955.1 352.91 955.1 356.52"/>
      <polygon class="cls-1" points="955.1 360.13 889.97 335.12 891.18 331.98 955.1 356.52 955.1 360.13"/>
      <polygon class="cls-1" points="955.1 363.73 888.76 338.27 889.97 335.12 955.1 360.13 955.1 363.73"/>
      <polygon class="cls-1" points="955.1 367.34 887.56 341.42 888.76 338.27 955.1 363.73 955.1 367.34"/>
      <polygon class="cls-1" points="955.1 370.95 886.35 344.56 887.56 341.42 955.1 367.34 955.1 370.95"/>
      <polygon class="cls-1" points="955.1 374.56 885.14 347.71 886.35 344.56 955.1 370.95 955.1 374.56"/>
      <polygon class="cls-1" points="955.1 378.17 883.93 350.85 885.14 347.71 955.1 374.56 955.1 378.17"/>
      <polygon class="cls-1" points="955.1 381.78 882.73 354 883.93 350.85 955.1 378.17 955.1 381.78"/>
      <polygon class="cls-1" points="955.1 385.39 881.52 357.14 882.73 354 955.1 381.78 955.1 385.39"/>
      <polygon class="cls-1" points="955.1 389 880.31 360.29 881.52 357.14 955.1 385.39 955.1 389"/>
      <polygon class="cls-1" points="955.1 392.61 879.1 363.43 880.31 360.29 955.1 389 955.1 392.61"/>
      <polygon class="cls-1" points="955.1 396.22 877.9 366.58 879.1 363.43 955.1 392.61 955.1 396.22"/>
      <polygon class="cls-1" points="955.1 399.83 876.69 369.73 877.9 366.58 955.1 396.22 955.1 399.83"/>
      <polygon class="cls-1" points="955.1 403.44 875.48 372.87 876.69 369.73 955.1 399.83 955.1 403.44"/>
      <polygon class="cls-1" points="955.1 407.04 874.27 376.02 875.48 372.87 955.1 403.44 955.1 407.04"/>
      <polygon class="cls-1" points="955.1 410.65 873.07 379.16 874.27 376.02 955.1 407.04 955.1 410.65"/>
      <polygon class="cls-1" points="955.1 414.26 871.86 382.31 873.07 379.16 955.1 410.65 955.1 414.26"/>
      <polygon class="cls-1" points="955.1 417.87 870.65 385.45 871.86 382.31 955.1 414.26 955.1 417.87"/>
      <polygon class="cls-1" points="955.1 421.48 869.44 388.6 870.65 385.45 955.1 417.87 955.1 421.48"/>
      <polygon class="cls-1" points="955.1 421.72 953.97 424.66 868.24 391.75 869.44 388.6 955.1 421.48 955.1 421.72"/>
      <rect class="cls-1" x="908.82" y="363.86" width="3.37" height="91.84" transform="translate(201.65 1112.95) rotate(-69)"/>
      <polygon class="cls-1" points="952.76 427.8 951.56 430.95 866.29 398.22 866.29 396.82 867.03 394.89 952.76 427.8"/>
      <polygon class="cls-1" points="951.56 430.95 950.35 434.09 866.29 401.83 866.29 398.22 951.56 430.95"/>
      <polygon class="cls-1" points="950.35 434.09 949.14 437.24 866.29 405.43 866.29 401.83 950.35 434.09"/>
      <polygon class="cls-1" points="949.14 437.24 948.09 439.99 946.9 439.99 866.29 409.04 866.29 405.43 949.14 437.24"/>
      <polygon class="cls-1" points="937.5 439.99 866.29 412.65 866.29 409.04 946.9 439.99 937.5 439.99"/>
      <polygon class="cls-1" points="928.09 439.99 866.29 416.26 866.29 412.65 937.5 439.99 928.09 439.99"/>
      <polygon class="cls-1" points="918.69 439.99 866.29 419.87 866.29 416.26 928.09 439.99 918.69 439.99"/>
      <polygon class="cls-1" points="909.29 439.99 866.29 423.48 866.29 419.87 918.69 439.99 909.29 439.99"/>
      <polygon class="cls-1" points="899.89 439.99 866.29 427.09 866.29 423.48 909.29 439.99 899.89 439.99"/>
      <polygon class="cls-1" points="890.48 439.99 866.29 430.7 866.29 427.09 899.89 439.99 890.48 439.99"/>
      <polygon class="cls-1" points="881.08 439.99 866.29 434.31 866.29 430.7 890.48 439.99 881.08 439.99"/>
      <polygon class="cls-1" points="871.68 439.99 866.29 437.92 866.29 434.31 881.08 439.99 871.68 439.99"/>
      <polygon class="cls-1" points="866.29 437.92 871.68 439.99 866.29 439.99 866.29 437.92"/>
      <polygon class="cls-1" points="830.17 398.79 821.5 395.46 830.17 395.46 830.17 398.79"/>
      <polygon class="cls-1" points="830.17 402.4 812.09 395.46 821.5 395.46 830.17 398.79 830.17 402.4"/>
      <polygon class="cls-1" points="830.17 406.01 802.69 395.46 812.09 395.46 830.17 402.4 830.17 406.01"/>
      <polygon class="cls-1" points="830.17 409.62 793.29 395.46 802.69 395.46 830.17 406.01 830.17 409.62"/>
      <polygon class="cls-1" points="830.17 413.23 791.23 398.28 792.31 395.46 793.29 395.46 830.17 409.62 830.17 413.23"/>
      <polygon class="cls-1" points="830.17 416.84 790.02 401.42 791.23 398.28 830.17 413.23 830.17 416.84"/>
      <polygon class="cls-1" points="830.17 417.66 829.24 420.09 788.81 404.57 790.02 401.42 830.17 416.84 830.17 417.66"/>
      <polygon class="cls-1" points="829.24 420.09 828.03 423.23 788.38 408.01 788.38 405.7 788.81 404.57 829.24 420.09"/>
      <polygon class="cls-1" points="828.03 423.23 826.82 426.38 788.38 411.62 788.38 408.01 828.03 423.23"/>
      <polygon class="cls-1" points="826.82 426.38 825.99 428.55 823.09 428.55 788.38 415.23 788.38 411.62 826.82 426.38"/>
      <polygon class="cls-1" points="813.69 428.55 788.38 418.84 788.38 415.23 823.09 428.55 813.69 428.55"/>
      <polygon class="cls-1" points="804.28 428.55 788.38 422.45 788.38 418.84 813.69 428.55 804.28 428.55"/>
      <polygon class="cls-1" points="794.88 428.55 788.38 426.06 788.38 422.45 804.28 428.55 794.88 428.55"/>
      <polygon class="cls-1" points="788.38 426.06 794.88 428.55 788.38 428.55 788.38 426.06"/>
      <polygon class="cls-1" points="846.28 350.83 841.08 348.84 846.28 348.84 846.28 350.83"/>
      <polygon class="cls-1" points="846.28 354.44 831.67 348.84 841.08 348.84 846.28 350.83 846.28 354.44"/>
      <polygon class="cls-1" points="846.28 358.05 822.27 348.84 831.67 348.84 846.28 354.44 846.28 358.05"/>
      <polygon class="cls-1" points="846.28 361.66 812.87 348.84 822.27 348.84 846.28 358.05 846.28 361.66"/>
      <polygon class="cls-1" points="846.28 365.27 803.47 348.84 812.87 348.84 846.28 361.66 846.28 365.27"/>
      <polygon class="cls-1" points="846.28 368.88 794.07 348.84 803.47 348.84 846.28 365.27 846.28 368.88"/>
      <polygon class="cls-1" points="846.28 372.49 784.66 348.84 794.07 348.84 846.28 368.88 846.28 372.49"/>
      <polygon class="cls-1" points="846.28 376.1 780.42 350.82 781.18 348.84 784.66 348.84 846.28 372.49 846.28 376.1"/>
      <polygon class="cls-1" points="846.28 379.71 779.21 353.96 780.42 350.82 846.28 376.1 846.28 379.71"/>
      <polygon class="cls-1" points="846.28 383.32 778 357.11 779.21 353.96 846.28 379.71 846.28 383.32"/>
      <polygon class="cls-1" points="846.28 386.93 776.79 360.25 778 357.11 846.28 383.32 846.28 386.93"/>
      <polygon class="cls-1" points="846.28 390.53 775.59 363.4 776.79 360.25 846.28 386.93 846.28 390.53"/>
      <polygon class="cls-1" points="846.28 394.14 774.38 366.55 775.59 363.4 846.28 390.53 846.28 394.14"/>
      <polygon class="cls-1" points="846.28 397.75 773.17 369.69 774.38 366.55 846.28 394.14 846.28 397.75"/>
      <polygon class="cls-1" points="846.28 401.36 772.36 372.99 772.36 371.81 773.17 369.69 846.28 397.75 846.28 401.36"/>
      <polygon class="cls-1" points="846.28 404.97 772.36 376.6 772.36 372.99 846.28 401.36 846.28 404.97"/>
      <polygon class="cls-1" points="846.28 408.58 772.36 380.21 772.36 376.6 846.28 404.97 846.28 408.58"/>
      <polygon class="cls-1" points="846.28 412.19 772.36 383.82 772.36 380.21 846.28 408.58 846.28 412.19"/>
      <polygon class="cls-1" points="846.28 415.8 772.36 387.42 772.36 383.82 846.28 412.19 846.28 415.8"/>
      <polygon class="cls-1" points="846.28 419.41 772.36 391.03 772.36 387.42 846.28 415.8 846.28 419.41"/>
      <polygon class="cls-1" points="846.28 423.02 772.36 394.64 772.36 391.03 846.28 419.41 846.28 423.02"/>
      <polygon class="cls-1" points="846.28 426.63 772.36 398.25 772.36 394.64 846.28 423.02 846.28 426.63"/>
      <polygon class="cls-1" points="846.28 430.24 772.36 401.86 772.36 398.25 846.28 426.63 846.28 430.24"/>
      <polygon class="cls-1" points="846.28 433.85 772.36 405.47 772.36 401.86 846.28 430.24 846.28 433.85"/>
      <polygon class="cls-1" points="846.28 437.45 772.36 409.08 772.36 405.47 846.28 433.85 846.28 437.45"/>
      <polygon class="cls-1" points="846.28 441.06 772.36 412.69 772.36 409.08 846.28 437.45 846.28 441.06"/>
      <polygon class="cls-1" points="839.32 442 772.36 416.3 772.36 412.69 846.28 441.06 846.28 442 839.32 442"/>
      <polygon class="cls-1" points="829.91 442 772.36 419.91 772.36 416.3 839.32 442 829.91 442"/>
      <polygon class="cls-1" points="820.51 442 772.36 423.52 772.36 419.91 829.91 442 820.51 442"/>
      <polygon class="cls-1" points="811.11 442 772.36 427.13 772.36 423.52 820.51 442 811.11 442"/>
      <polygon class="cls-1" points="801.71 442 772.36 430.74 772.36 427.13 811.11 442 801.71 442"/>
      <polygon class="cls-1" points="792.3 442 772.36 434.34 772.36 430.74 801.71 442 792.3 442"/>
      <polygon class="cls-1" points="782.9 442 772.36 437.95 772.36 434.34 792.3 442 782.9 442"/>
      <polygon class="cls-1" points="773.5 442 772.36 441.56 772.36 437.95 782.9 442 773.5 442"/>
      <polygon class="cls-1" points="772.36 441.56 773.5 442 772.36 442 772.36 441.56"/>
      <polygon class="cls-1" points="760.55 328.75 760.01 328.55 760.55 328.55 760.55 328.75"/>
      <polygon class="cls-1" points="760.55 332.36 750.61 328.55 760.01 328.55 760.55 328.75 760.55 332.36"/>
      <polygon class="cls-1" points="760.55 335.97 741.2 328.55 750.61 328.55 760.55 332.36 760.55 335.97"/>
      <polygon class="cls-1" points="760.55 339.58 731.8 328.55 741.2 328.55 760.55 335.97 760.55 339.58"/>
      <polygon class="cls-1" points="760.55 343.19 722.4 328.55 731.8 328.55 760.55 339.58 760.55 343.19"/>
      <polygon class="cls-1" points="760.55 346.8 715.99 329.7 716.44 328.55 722.4 328.55 760.55 343.19 760.55 346.8"/>
      <polygon class="cls-1" points="760.55 350.41 714.79 332.84 715.99 329.7 760.55 346.8 760.55 350.41"/>
      <polygon class="cls-1" points="760.55 354.02 713.58 335.99 714.79 332.84 760.55 350.41 760.55 354.02"/>
      <polygon class="cls-1" points="760.55 357.63 712.37 339.13 713.58 335.99 760.55 354.02 760.55 357.63"/>
      <polygon class="cls-1" points="760.55 361.24 711.16 342.28 712.37 339.13 760.55 357.63 760.55 361.24"/>
      <polygon class="cls-1" points="760.55 364.84 710.38 345.59 710.38 344.32 711.16 342.28 760.55 361.24 760.55 364.84"/>
      <polygon class="cls-1" points="760.55 368.45 710.38 349.2 710.38 345.59 760.55 364.84 760.55 368.45"/>
      <polygon class="cls-1" points="760.55 372.06 710.38 352.81 710.38 349.2 760.55 368.45 760.55 372.06"/>
      <polygon class="cls-1" points="760.55 375.67 710.38 356.42 710.38 352.81 760.55 372.06 760.55 375.67"/>
      <polygon class="cls-1" points="760.55 379.28 710.38 360.02 710.38 356.42 760.55 375.67 760.55 379.28"/>
      <polygon class="cls-1" points="760.55 382.89 710.38 363.63 710.38 360.02 760.55 379.28 760.55 382.89"/>
      <polygon class="cls-1" points="760.55 386.5 710.38 367.24 710.38 363.63 760.55 382.89 760.55 386.5"/>
      <polygon class="cls-1" points="760.55 390.11 710.38 370.85 710.38 367.24 760.55 386.5 760.55 390.11"/>
      <polygon class="cls-1" points="760.55 393.72 710.38 374.46 710.38 370.85 760.55 390.11 760.55 393.72"/>
      <polygon class="cls-1" points="760.55 397.33 710.38 378.07 710.38 374.46 760.55 393.72 760.55 397.33"/>
      <polygon class="cls-1" points="760.55 400.94 710.38 381.68 710.38 378.07 760.55 397.33 760.55 400.94"/>
      <polygon class="cls-1" points="760.55 404.55 710.38 385.29 710.38 381.68 760.55 400.94 760.55 404.55"/>
      <polygon class="cls-1" points="760.55 408.15 710.38 388.9 710.38 385.29 760.55 404.55 760.55 408.15"/>
      <polygon class="cls-1" points="760.55 411.76 710.38 392.51 710.38 388.9 760.55 408.15 760.55 411.76"/>
      <polygon class="cls-1" points="760.55 415.37 710.38 396.12 710.38 392.51 760.55 411.76 760.55 415.37"/>
      <polygon class="cls-1" points="760.55 418.98 710.38 399.73 710.38 396.12 760.55 415.37 760.55 418.98"/>
      <polygon class="cls-1" points="760.55 422.59 710.38 403.34 710.38 399.73 760.55 418.98 760.55 422.59"/>
      <polygon class="cls-1" points="760.55 426.2 710.38 406.94 710.38 403.34 760.55 422.59 760.55 426.2"/>
      <polygon class="cls-1" points="760.55 429.81 710.38 410.55 710.38 406.94 760.55 426.2 760.55 429.81"/>
      <polygon class="cls-1" points="760.55 433.42 710.38 414.16 710.38 410.55 760.55 429.81 760.55 433.42"/>
      <polygon class="cls-1" points="760.55 437.03 710.38 417.77 710.38 414.16 760.55 433.42 760.55 437.03"/>
      <polygon class="cls-1" points="760.55 440.64 710.38 421.38 710.38 417.77 760.55 437.03 760.55 440.64"/>
      <polygon class="cls-1" points="752.39 441.12 710.38 424.99 710.38 421.38 760.55 440.64 760.55 441.12 752.39 441.12"/>
      <polygon class="cls-1" points="742.99 441.12 710.38 428.6 710.38 424.99 752.39 441.12 742.99 441.12"/>
      <polygon class="cls-1" points="733.58 441.12 710.38 432.21 710.38 428.6 742.99 441.12 733.58 441.12"/>
      <polygon class="cls-1" points="724.18 441.12 710.38 435.82 710.38 432.21 733.58 441.12 724.18 441.12"/>
      <polygon class="cls-1" points="714.78 441.12 710.38 439.43 710.38 435.82 724.18 441.12 714.78 441.12"/>
      <polygon class="cls-1" points="710.38 439.43 714.78 441.12 710.38 441.12 710.38 439.43"/>
      <polygon class="cls-1" points="680.08 398.92 671.06 395.46 680.08 395.46 680.08 398.92"/>
      <polygon class="cls-1" points="680.08 402.53 661.66 395.46 671.06 395.46 680.08 398.92 680.08 402.53"/>
      <polygon class="cls-1" points="680.08 406.14 652.26 395.46 661.66 395.46 680.08 402.53 680.08 406.14"/>
      <polygon class="cls-1" points="680.08 409.75 642.85 395.46 652.26 395.46 680.08 406.14 680.08 409.75"/>
      <polygon class="cls-1" points="680.08 413.36 641.09 398.39 642.22 395.46 642.85 395.46 680.08 409.75 680.08 413.36"/>
      <polygon class="cls-1" points="680.08 416.97 639.89 401.54 641.09 398.39 680.08 413.36 680.08 416.97"/>
      <polygon class="cls-1" points="680.08 417.66 679.1 420.2 638.68 404.68 639.89 401.54 680.08 416.97 680.08 417.66"/>
      <polygon class="cls-1" points="679.1 420.2 677.9 423.35 638.29 408.14 638.29 405.7 638.68 404.68 679.1 420.2"/>
      <polygon class="cls-1" points="677.9 423.35 676.69 426.49 638.29 411.75 638.29 408.14 677.9 423.35"/>
      <polygon class="cls-1" points="676.69 426.49 675.9 428.55 672.65 428.55 638.29 415.36 638.29 411.75 676.69 426.49"/>
      <polygon class="cls-1" points="663.25 428.55 638.29 418.97 638.29 415.36 672.65 428.55 663.25 428.55"/>
      <polygon class="cls-1" points="653.85 428.55 638.29 422.58 638.29 418.97 663.25 428.55 653.85 428.55"/>
      <polygon class="cls-1" points="644.45 428.55 638.29 426.19 638.29 422.58 653.85 428.55 644.45 428.55"/>
      <polygon class="cls-1" points="638.29 426.19 644.45 428.55 638.29 428.55 638.29 426.19"/>
      <polygon class="cls-1" points="696.18 350.97 690.64 348.84 696.18 348.84 696.18 350.97"/>
      <polygon class="cls-1" points="696.18 354.58 681.24 348.84 690.64 348.84 696.18 350.97 696.18 354.58"/>
      <polygon class="cls-1" points="696.18 358.18 671.84 348.84 681.24 348.84 696.18 354.58 696.18 358.18"/>
      <polygon class="cls-1" points="696.18 361.79 662.43 348.84 671.84 348.84 696.18 358.18 696.18 361.79"/>
      <polygon class="cls-1" points="696.18 365.4 653.03 348.84 662.43 348.84 696.18 361.79 696.18 365.4"/>
      <polygon class="cls-1" points="696.18 369.01 643.63 348.84 653.03 348.84 696.18 365.4 696.18 369.01"/>
      <polygon class="cls-1" points="696.18 372.62 634.23 348.84 643.63 348.84 696.18 369.01 696.18 372.62"/>
      <polygon class="cls-1" points="696.18 376.23 630.28 350.93 631.08 348.84 634.23 348.84 696.18 372.62 696.18 376.23"/>
      <polygon class="cls-1" points="696.18 379.84 629.07 354.08 630.28 350.93 696.18 376.23 696.18 379.84"/>
      <polygon class="cls-1" points="696.18 383.45 627.87 357.22 629.07 354.08 696.18 379.84 696.18 383.45"/>
      <polygon class="cls-1" points="696.18 387.06 626.66 360.37 627.87 357.22 696.18 383.45 696.18 387.06"/>
      <polygon class="cls-1" points="696.18 390.67 625.45 363.52 626.66 360.37 696.18 387.06 696.18 390.67"/>
      <polygon class="cls-1" points="696.18 394.28 624.24 366.66 625.45 363.52 696.18 390.67 696.18 394.28"/>
      <polygon class="cls-1" points="696.18 397.89 623.04 369.81 624.24 366.66 696.18 394.28 696.18 397.89"/>
      <polygon class="cls-1" points="696.18 401.5 622.27 373.12 622.27 371.81 623.04 369.81 696.18 397.89 696.18 401.5"/>
      <polygon class="cls-1" points="696.18 405.1 622.27 376.73 622.27 373.12 696.18 401.5 696.18 405.1"/>
      <polygon class="cls-1" points="696.18 408.71 622.27 380.34 622.27 376.73 696.18 405.1 696.18 408.71"/>
      <polygon class="cls-1" points="696.18 412.32 622.27 383.95 622.27 380.34 696.18 408.71 696.18 412.32"/>
      <polygon class="cls-1" points="696.18 415.93 622.27 387.56 622.27 383.95 696.18 412.32 696.18 415.93"/>
      <polygon class="cls-1" points="696.18 419.54 622.27 391.17 622.27 387.56 696.18 415.93 696.18 419.54"/>
      <polygon class="cls-1" points="696.18 423.15 622.27 394.78 622.27 391.17 696.18 419.54 696.18 423.15"/>
      <polygon class="cls-1" points="696.18 426.76 622.27 398.39 622.27 394.78 696.18 423.15 696.18 426.76"/>
      <polygon class="cls-1" points="696.18 430.37 622.27 401.99 622.27 398.39 696.18 426.76 696.18 430.37"/>
      <polygon class="cls-1" points="696.18 433.98 622.27 405.6 622.27 401.99 696.18 430.37 696.18 433.98"/>
      <polygon class="cls-1" points="696.18 437.59 622.27 409.21 622.27 405.6 696.18 433.98 696.18 437.59"/>
      <polygon class="cls-1" points="696.18 441.2 622.27 412.82 622.27 409.21 696.18 437.59 696.18 441.2"/>
      <polygon class="cls-1" points="688.88 442 622.27 416.43 622.27 412.82 696.18 441.2 696.18 442 688.88 442"/>
      <polygon class="cls-1" points="679.48 442 622.27 420.04 622.27 416.43 688.88 442 679.48 442"/>
      <polygon class="cls-1" points="670.07 442 622.27 423.65 622.27 420.04 679.48 442 670.07 442"/>
      <polygon class="cls-1" points="660.67 442 622.27 427.26 622.27 423.65 670.07 442 660.67 442"/>
      <polygon class="cls-1" points="651.27 442 622.27 430.87 622.27 427.26 660.67 442 651.27 442"/>
      <polygon class="cls-1" points="641.87 442 622.27 434.48 622.27 430.87 651.27 442 641.87 442"/>
      <polygon class="cls-1" points="632.47 442 622.27 438.09 622.27 434.48 641.87 442 632.47 442"/>
      <polygon class="cls-1" points="623.06 442 622.27 441.7 622.27 438.09 632.47 442 623.06 442"/>
      <polygon class="cls-1" points="622.27 441.7 623.06 442 622.27 442 622.27 441.7"/>
      <polygon class="cls-1" points="589.31 335.21 588.33 334.83 589.31 334.83 589.31 335.21"/>
      <polygon class="cls-1" points="589.31 338.82 578.92 334.83 588.33 334.83 589.31 335.21 589.31 338.82"/>
      <polygon class="cls-1" points="589.31 342.43 569.52 334.83 578.92 334.83 589.31 338.82 589.31 342.43"/>
      <polygon class="cls-1" points="589.31 346.03 560.12 334.83 569.52 334.83 589.31 342.43 589.31 346.03"/>
      <polygon class="cls-1" points="589.31 349.64 550.72 334.83 560.12 334.83 589.31 346.03 589.31 349.64"/>
      <polygon class="cls-1" points="589.31 353.25 541.31 334.83 550.72 334.83 589.31 349.64 589.31 353.25"/>
      <polygon class="cls-1" points="589.31 356.86 531.91 334.83 541.31 334.83 589.31 353.25 589.31 356.86"/>
      <polygon class="cls-1" points="589.31 360.47 526.91 336.52 526.91 334.83 531.91 334.83 589.31 356.86 589.31 360.47"/>
      <polygon class="cls-1" points="589.31 364.08 526.91 340.13 526.91 336.52 589.31 360.47 589.31 364.08"/>
      <polygon class="cls-1" points="589.31 367.69 526.91 343.73 526.91 340.13 589.31 364.08 589.31 367.69"/>
      <polygon class="cls-1" points="589.31 371.3 526.91 347.34 526.91 343.73 589.31 367.69 589.31 371.3"/>
      <polygon class="cls-1" points="589.31 374.91 526.91 350.95 526.91 347.34 589.31 371.3 589.31 374.91"/>
      <polygon class="cls-1" points="589.31 378.52 526.91 354.56 526.91 350.95 589.31 374.91 589.31 378.52"/>
      <polygon class="cls-1" points="589.31 382.13 526.91 358.17 526.91 354.56 589.31 378.52 589.31 382.13"/>
      <polygon class="cls-1" points="589.31 385.74 526.91 361.78 526.91 358.17 589.31 382.13 589.31 385.74"/>
      <polygon class="cls-1" points="589.31 389.34 526.91 365.39 526.91 361.78 589.31 385.74 589.31 389.34"/>
      <polygon class="cls-1" points="589.31 392.95 526.91 369 526.91 365.39 589.31 389.34 589.31 392.95"/>
      <polygon class="cls-1" points="589.31 396.56 526.91 372.61 526.91 369 589.31 392.95 589.31 396.56"/>
      <polygon class="cls-1" points="589.31 399.18 588.98 400.04 526.91 376.22 526.91 372.61 589.31 396.56 589.31 399.18"/>
      <polygon class="cls-1" points="588.98 400.04 587.77 403.19 526.91 379.83 526.91 376.22 588.98 400.04"/>
      <polygon class="cls-1" points="587.77 403.19 586.56 406.34 526.91 383.44 526.91 379.83 587.77 403.19"/>
      <polygon class="cls-1" points="586.56 406.34 585.36 409.48 526.91 387.05 526.91 383.44 586.56 406.34"/>
      <polygon class="cls-1" points="585.36 409.48 584.15 412.63 526.91 390.65 526.91 387.05 585.36 409.48"/>
      <polygon class="cls-1" points="584.15 412.63 582.94 415.77 526.91 394.26 526.91 390.65 584.15 412.63"/>
      <polygon class="cls-1" points="582.94 415.77 581.73 418.92 526.91 397.87 526.91 394.26 582.94 415.77"/>
      <polygon class="cls-1" points="581.73 418.92 580.53 422.06 526.91 401.48 526.91 397.87 581.73 418.92"/>
      <polygon class="cls-1" points="580.53 422.06 579.33 425.17 579.22 425.17 526.91 405.09 526.91 401.48 580.53 422.06"/>
      <polygon class="cls-1" points="569.82 425.17 526.91 408.7 526.91 405.09 579.22 425.17 569.82 425.17"/>
      <polygon class="cls-1" points="560.42 425.17 526.91 412.31 526.91 408.7 569.82 425.17 560.42 425.17"/>
      <polygon class="cls-1" points="551.02 425.17 526.91 415.92 526.91 412.31 560.42 425.17 551.02 425.17"/>
      <polygon class="cls-1" points="541.61 425.17 526.91 419.53 526.91 415.92 551.02 425.17 541.61 425.17"/>
      <polygon class="cls-1" points="532.21 425.17 526.91 423.14 526.91 419.53 541.61 425.17 532.21 425.17"/>
      <polygon class="cls-1" points="526.91 423.14 532.21 425.17 526.91 425.17 526.91 423.14"/>
      <polygon class="cls-1" points="605.74 323.47 596.74 320.01 605.74 320.01 605.74 323.47"/>
      <polygon class="cls-1" points="605.74 327.08 587.34 320.01 596.74 320.01 605.74 323.47 605.74 327.08"/>
      <polygon class="cls-1" points="605.74 330.68 577.93 320.01 587.34 320.01 605.74 327.08 605.74 330.68"/>
      <polygon class="cls-1" points="605.74 334.29 568.53 320.01 577.93 320.01 605.74 330.68 605.74 334.29"/>
      <polygon class="cls-1" points="605.74 337.9 559.13 320.01 568.53 320.01 605.74 334.29 605.74 337.9"/>
      <polygon class="cls-1" points="605.74 341.51 549.73 320.01 559.13 320.01 605.74 337.9 605.74 341.51"/>
      <polygon class="cls-1" points="605.74 345.12 540.33 320.01 549.73 320.01 605.74 341.51 605.74 345.12"/>
      <polygon class="cls-1" points="605.74 348.73 530.92 320.01 540.33 320.01 605.74 345.12 605.74 348.73"/>
      <polygon class="cls-1" points="605.74 352.34 521.52 320.01 530.92 320.01 605.74 348.73 605.74 352.34"/>
      <polygon class="cls-1" points="605.74 355.95 512.12 320.01 521.52 320.01 605.74 352.34 605.74 355.95"/>
      <polygon class="cls-1" points="605.74 359.56 510 322.81 510 320.01 512.12 320.01 605.74 355.95 605.74 359.56"/>
      <polygon class="cls-1" points="605.74 363.17 510 326.42 510 322.81 605.74 359.56 605.74 363.17"/>
      <polygon class="cls-1" points="605.74 366.78 510 330.03 510 326.42 605.74 363.17 605.74 366.78"/>
      <polygon class="cls-1" points="605.74 370.39 510 333.63 510 330.03 605.74 366.78 605.74 370.39"/>
      <polygon class="cls-1" points="605.74 373.99 510 337.24 510 333.63 605.74 370.39 605.74 373.99"/>
      <polygon class="cls-1" points="605.74 377.6 510 340.85 510 337.24 605.74 373.99 605.74 377.6"/>
      <polygon class="cls-1" points="605.74 381.21 510 344.46 510 340.85 605.74 377.6 605.74 381.21"/>
      <polygon class="cls-1" points="605.74 384.82 510 348.07 510 344.46 605.74 381.21 605.74 384.82"/>
      <polygon class="cls-1" points="605.74 388.43 510 351.68 510 348.07 605.74 384.82 605.74 388.43"/>
      <polygon class="cls-1" points="605.74 392.04 510 355.29 510 351.68 605.74 388.43 605.74 392.04"/>
      <polygon class="cls-1" points="605.74 395.65 510 358.9 510 355.29 605.74 392.04 605.74 395.65"/>
      <polygon class="cls-1" points="605.74 399.26 510 362.51 510 358.9 605.74 395.65 605.74 399.26"/>
      <polygon class="cls-1" points="605.74 402.82 605.72 402.86 510 366.12 510 362.51 605.74 399.26 605.74 402.82"/>
      <polygon class="cls-1" points="605.72 402.86 604.52 406.01 510 369.73 510 366.12 605.72 402.86"/>
      <polygon class="cls-1" points="604.52 406.01 603.31 409.15 510 373.34 510 369.73 604.52 406.01"/>
      <polygon class="cls-1" points="603.31 409.15 602.1 412.3 510 376.94 510 373.34 603.31 409.15"/>
      <polygon class="cls-1" points="602.1 412.3 600.89 415.44 510 380.55 510 376.94 602.1 412.3"/>
      <polygon class="cls-1" points="600.89 415.44 599.69 418.59 510 384.16 510 380.55 600.89 415.44"/>
      <polygon class="cls-1" points="599.69 418.59 598.48 421.74 510 387.77 510 384.16 599.69 418.59"/>
      <polygon class="cls-1" points="598.48 421.74 597.27 424.88 510 391.38 510 387.77 598.48 421.74"/>
      <polygon class="cls-1" points="597.27 424.88 596.06 428.03 510 394.99 510 391.38 597.27 424.88"/>
      <polygon class="cls-1" points="596.06 428.03 594.86 431.17 510 398.6 510 394.99 596.06 428.03"/>
      <polygon class="cls-1" points="594.86 431.17 593.65 434.32 510 402.21 510 398.6 594.86 431.17"/>
      <polygon class="cls-1" points="593.65 434.32 592.44 437.46 510 405.82 510 402.21 593.65 434.32"/>
      <polygon class="cls-1" points="592.44 437.46 591.47 439.99 589.61 439.99 510 409.43 510 405.82 592.44 437.46"/>
      <polygon class="cls-1" points="580.21 439.99 510 413.04 510 409.43 589.61 439.99 580.21 439.99"/>
      <polygon class="cls-1" points="570.81 439.99 510 416.65 510 413.04 580.21 439.99 570.81 439.99"/>
      <polygon class="cls-1" points="561.41 439.99 510 420.26 510 416.65 570.81 439.99 561.41 439.99"/>
      <polygon class="cls-1" points="552 439.99 510 423.86 510 420.26 561.41 439.99 552 439.99"/>
      <polygon class="cls-1" points="542.6 439.99 510 427.47 510 423.86 552 439.99 542.6 439.99"/>
      <polygon class="cls-1" points="533.2 439.99 510 431.08 510 427.47 542.6 439.99 533.2 439.99"/>
      <polygon class="cls-1" points="523.8 439.99 510 434.69 510 431.08 533.2 439.99 523.8 439.99"/>
      <polygon class="cls-1" points="514.39 439.99 510 438.3 510 434.69 523.8 439.99 514.39 439.99"/>
      <polygon class="cls-1" points="510 438.3 514.39 439.99 510 439.99 510 438.3"/>
    </g>
  </g>
</svg>