<?xml version="1.0" encoding="UTF-8"?>
<svg id="Positiv" xmlns="http://www.w3.org/2000/svg" viewBox="0 0 1320 460">
  <defs>
    <style>
      .cls-1 {
        fill: #3c3c3b;
      }

      .cls-2 {
        fill: #4787e5;
      }

      .cls-3 {
        fill: #2467b8;
      }

      .cls-4 {
        fill: #fc356f;
      }

      .cls-5 {
        fill: #ffa4be;
      }

      .cls-6 {
        fill: #d19dc8;
      }

      .cls-7 {
        fill: #fe6d97;
      }

      .cls-8 {
        fill: #a396d2;
      }
    </style>
  </defs>
  <g>
    <polygon class="cls-2" points="390 325.79 390 434.68 275.26 392.96 390 325.79"/>
    <polygon class="cls-3" points="375.37 440 194.9 440 264.05 399.52 375.37 440"/>
    <polygon class="cls-3" points="251.84 395.08 198.92 426.06 223.09 384.63 251.84 395.08"/>
    <polygon class="cls-2" points="380.1 320 263.05 388.52 228.21 375.85 260.79 320 380.1 320"/>
    <polygon class="cls-2" points="213.54 381.15 181.29 436.44 68.92 328.57 213.54 381.15"/>
    <polygon class="cls-8" points="251.34 316.34 218.66 372.37 73.35 319.54 198.79 263.79 251.34 316.34"/>
    <polygon class="cls-6" points="195 205.47 195 254.53 60 314.53 60 145.47 195 205.47"/>
    <polygon class="cls-4" points="375.37 20 264.05 60.48 194.9 20 375.37 20"/>
    <polygon class="cls-7" points="390 25.32 390 134.21 275.26 67.04 390 25.32"/>
    <polygon class="cls-4" points="251.84 64.92 223.09 75.37 198.92 33.94 251.84 64.92"/>
    <polygon class="cls-7" points="380.1 140 260.79 140 228.21 84.15 263.05 71.48 380.1 140"/>
    <polygon class="cls-5" points="251.34 143.66 198.79 196.21 73.35 140.46 218.66 87.63 251.34 143.66"/>
    <polygon class="cls-7" points="213.54 78.85 68.92 131.44 181.29 23.56 213.54 78.85"/>
  </g>
  <g>
    <path class="cls-1" d="M827.81,80l-103.66,299.91h63.4l23.47-72.06h109.28l24.24,72.06h63.6l-105.87-299.91h-74.47ZM825.91,262.16l10.56-32.41c5.1-17.04,10.43-36.26,16-57.67,3.8-14.61,7.81-30.39,12.02-47.29,4.38,16.75,8.56,32.4,12.54,46.88,5.84,21.27,11.5,40.63,17.01,58.07l10.9,32.41h-79.03Z"/>
    <path class="cls-1" d="M1260.26,259.14c-6.24-10.73-14.29-19.05-24.15-24.96-9.86-5.9-20.3-9.12-31.3-9.66v-2.82c10.06-2.42,19.09-6.37,27.07-11.88,7.98-5.5,14.32-12.61,19.02-21.34,4.7-8.72,7.04-19.05,7.04-31,0-14.9-3.59-28.18-10.77-39.85-7.18-11.67-18.01-20.86-32.51-27.58-14.49-6.71-32.68-10.06-54.55-10.06h-116.94v299.91h123.99c22.81,0,41.8-3.59,56.96-10.77,15.16-7.18,26.53-16.97,34.12-29.39,7.58-12.41,11.37-26.4,11.37-41.97s-3.12-27.91-9.36-38.65ZM1100.74,127.3h52.73c15.16,0,26.74,3.59,34.72,10.77,7.98,7.18,11.98,16.4,11.98,27.68,0,8.45-2.11,15.77-6.34,21.94-4.23,6.17-9.96,10.94-17.21,14.29-7.25,3.36-15.37,5.03-24.35,5.03h-51.53v-79.71ZM1198.06,321.24c-8.52,7.32-22.24,10.97-41.16,10.97h-56.16v-84.94h57.77c10.73,0,19.99,1.98,27.78,5.94,7.78,3.96,13.82,9.36,18.12,16.2,4.29,6.84,6.44,14.63,6.44,23.35,0,11.67-4.26,21.17-12.78,28.48Z"/>
    <rect class="cls-1" x="470" y="80.11" width="57.65" height="299.8"/>
    <rect class="cls-1" x="550.72" y="287.66" width="57.65" height="92.25"/>
    <rect class="cls-1" x="631.43" y="230.01" width="57.65" height="149.9"/>
  </g>
</svg>