<?xml version="1.0" encoding="UTF-8"?>
<svg id="Positiv" xmlns="http://www.w3.org/2000/svg" viewBox="0 0 990 725">
  <defs>
    <style>
      .cls-1 {
        fill: #3c3c3b;
      }

      .cls-2 {
        fill: #4787e5;
      }

      .cls-3 {
        fill: #2467b8;
      }

      .cls-4 {
        fill: #fc356f;
      }

      .cls-5 {
        fill: #ffa4be;
      }

      .cls-6 {
        fill: #d19dc8;
      }

      .cls-7 {
        fill: #fe6d97;
      }

      .cls-8 {
        fill: #a396d2;
      }
    </style>
  </defs>
  <g>
    <polygon class="cls-2" points="620 325.79 620 434.68 505.26 392.96 620 325.79"/>
    <polygon class="cls-3" points="605.37 440 424.9 440 494.05 399.52 605.37 440"/>
    <polygon class="cls-3" points="481.84 395.08 428.92 426.06 453.09 384.63 481.84 395.08"/>
    <polygon class="cls-2" points="610.1 320 493.05 388.52 458.21 375.85 490.79 320 610.1 320"/>
    <polygon class="cls-2" points="443.54 381.15 411.29 436.44 298.92 328.57 443.54 381.15"/>
    <polygon class="cls-8" points="481.34 316.34 448.66 372.37 303.35 319.54 428.79 263.79 481.34 316.34"/>
    <polygon class="cls-6" points="425 205.47 425 254.53 290 314.53 290 145.47 425 205.47"/>
    <polygon class="cls-4" points="605.37 20 494.05 60.48 424.9 20 605.37 20"/>
    <polygon class="cls-7" points="620 25.32 620 134.21 505.26 67.04 620 25.32"/>
    <polygon class="cls-4" points="481.84 64.92 453.09 75.37 428.92 33.94 481.84 64.92"/>
    <polygon class="cls-7" points="610.1 140 490.79 140 458.21 84.15 493.05 71.48 610.1 140"/>
    <polygon class="cls-5" points="481.34 143.66 428.79 196.21 303.35 140.46 448.66 87.63 481.34 143.66"/>
    <polygon class="cls-7" points="443.54 78.85 298.92 131.44 411.29 23.56 443.54 78.85"/>
  </g>
  <g>
    <path class="cls-1" d="M57,583.16c6.78-4.31,14.45-6.47,23.02-6.47,4.61,0,9.02.63,13.24,1.9,4.22,1.27,8.06,3.16,11.53,5.69,3.47,2.53,6.39,5.61,8.76,9.25,2.37,3.63,4.04,7.88,5.01,12.75h20.44c-1.23-7.59-3.6-14.37-7.11-20.34-3.5-5.97-7.87-11.03-13.09-15.18-5.22-4.15-11.14-7.31-17.76-9.49-6.62-2.17-13.69-3.26-21.22-3.26-12.39,0-23.49,3-33.29,9-9.8,6-17.5,14.57-23.11,25.69-5.61,11.13-8.42,24.41-8.42,39.86s2.81,28.63,8.42,39.76c5.61,11.13,13.3,19.68,23.07,25.65,9.76,5.97,20.88,8.95,33.33,8.95,7.72,0,14.91-1.14,21.56-3.41,6.65-2.27,12.59-5.55,17.81-9.83,5.22-4.28,9.54-9.36,12.94-15.23,3.41-5.87,5.69-12.47,6.86-19.81h-20.34c-1.04,4.8-2.74,9.04-5.11,12.7-2.37,3.67-5.29,6.75-8.76,9.25-3.47,2.5-7.32,4.4-11.53,5.69-4.22,1.3-8.66,1.95-13.33,1.95-8.44,0-16.04-2.12-22.82-6.37-6.78-4.25-12.15-10.53-16.11-18.83-3.96-8.3-5.94-18.46-5.94-30.46s1.96-22.24,5.89-30.51c3.93-8.27,9.28-14.57,16.06-18.88Z"/>
    <path class="cls-1" d="M234.09,601.8c-7.56-4.67-16.37-7.01-26.42-7.01s-18.85,2.34-26.38,7.01c-7.53,4.67-13.38,11.24-17.57,19.71-4.19,8.47-6.28,18.38-6.28,29.73s2.09,20.96,6.28,29.39c4.19,8.44,10.04,14.99,17.57,19.66,7.53,4.67,16.32,7.01,26.38,7.01s18.86-2.34,26.42-7.01c7.56-4.67,13.41-11.22,17.57-19.66,4.15-8.43,6.23-18.23,6.23-29.39s-2.08-21.27-6.23-29.73c-4.15-8.47-10.01-15.04-17.57-19.71ZM234.97,670.61c-2.17,5.97-5.53,10.75-10.07,14.36-4.54,3.6-10.28,5.4-17.23,5.4s-12.65-1.8-17.13-5.4c-4.48-3.6-7.8-8.39-9.98-14.36-2.17-5.97-3.26-12.46-3.26-19.47s1.09-13.59,3.26-19.56c2.17-5.97,5.5-10.77,9.98-14.4,4.48-3.63,10.19-5.45,17.13-5.45s12.68,1.82,17.23,5.45c4.54,3.63,7.9,8.45,10.07,14.45,2.17,6,3.26,12.51,3.26,19.51s-1.09,13.5-3.26,19.47Z"/>
    <path class="cls-1" d="M328.5,594.6c-6.42,0-12.18,1.69-17.28,5.06-5.09,3.37-8.65,7.92-10.66,13.63h-1.17v-17.13h-18.78v108.81h19.47v-67.06c0-4.87,1.13-9.16,3.41-12.9,2.27-3.73,5.42-6.67,9.44-8.81,4.02-2.14,8.56-3.21,13.63-3.21,2.34,0,4.57.13,6.72.39,2.14.26,3.54.49,4.19.68v-19.08c-1.1-.06-2.53-.15-4.28-.24-1.75-.1-3.31-.15-4.67-.15Z"/>
    <path class="cls-1" d="M402.81,594.6c-6.42,0-12.18,1.69-17.28,5.06-5.09,3.37-8.65,7.92-10.66,13.63h-1.17v-17.13h-18.78v108.81h19.47v-67.06c0-4.87,1.13-9.16,3.41-12.9,2.27-3.73,5.42-6.67,9.44-8.81,4.02-2.14,8.56-3.21,13.63-3.21,2.34,0,4.57.13,6.72.39,2.14.26,3.54.49,4.19.68v-19.08c-1.1-.06-2.53-.15-4.28-.24-1.75-.1-3.31-.15-4.67-.15Z"/>
    <path class="cls-1" d="M504.23,607.15c-4.61-4.28-9.77-7.41-15.48-9.39-5.71-1.98-11.55-2.97-17.52-2.97-9.99,0-18.7,2.4-26.13,7.2-7.43,4.8-13.19,11.44-17.28,19.9-4.09,8.47-6.13,18.28-6.13,29.44s2.08,21.02,6.23,29.39c4.15,8.37,10.07,14.89,17.76,19.56,7.69,4.67,16.85,7.01,27.49,7.01,7.59,0,14.4-1.18,20.44-3.55,6.03-2.37,11.1-5.66,15.18-9.88,4.09-4.22,6.97-9.08,8.66-14.6l-18.49-4.77c-1.3,3.57-3.16,6.55-5.6,8.95-2.43,2.4-5.35,4.2-8.76,5.4-3.41,1.2-7.15,1.8-11.24,1.8-6.36,0-11.96-1.39-16.79-4.19-4.83-2.79-8.6-6.88-11.29-12.26-2.43-4.85-3.75-10.67-3.99-17.42h77.91v-7.49c0-9.93-1.35-18.36-4.04-25.3-2.69-6.94-6.34-12.56-10.95-16.84ZM455.08,616.01c4.48-3.05,9.86-4.57,16.16-4.57s11.57,1.51,15.82,4.53c4.25,3.02,7.46,7.19,9.64,12.51,1.59,3.9,2.59,8.21,3.02,12.94h-58.34c.32-4.69,1.46-9.14,3.45-13.33,2.37-5,5.79-9.02,10.27-12.07Z"/>
    <rect class="cls-1" x="541.98" y="559.95" width="19.47" height="145.02"/>
    <path class="cls-1" d="M762.78,559.95l-50.12,145.02h30.66l11.35-34.84h52.84l11.72,34.84h30.76l-51.19-145.02h-36.01ZM761.86,648.03l5.1-15.67c2.47-8.24,5.04-17.53,7.74-27.88,1.84-7.06,3.78-14.7,5.81-22.86,2.12,8.1,4.14,15.67,6.06,22.67,2.82,10.29,5.56,19.64,8.22,28.08l5.27,15.67h-38.21Z"/>
    <path class="cls-1" d="M971.88,646.57c-3.02-5.19-6.91-9.21-11.68-12.07-4.77-2.85-9.82-4.41-15.13-4.67v-1.36c4.87-1.17,9.23-3.08,13.09-5.74,3.86-2.66,6.93-6.1,9.2-10.32,2.27-4.22,3.41-9.21,3.41-14.99,0-7.2-1.74-13.63-5.21-19.27-3.47-5.64-8.71-10.09-15.72-13.33-7.01-3.24-15.8-4.87-26.38-4.87h-56.55v145.02h59.95c11.03,0,20.21-1.74,27.54-5.21,7.33-3.47,12.83-8.21,16.5-14.21,3.67-6,5.5-12.77,5.5-20.29s-1.51-13.49-4.53-18.69ZM894.75,582.82h25.5c7.33,0,12.93,1.74,16.79,5.21,3.86,3.47,5.79,7.93,5.79,13.38,0,4.09-1.02,7.63-3.07,10.61-2.04,2.98-4.82,5.29-8.32,6.91-3.5,1.62-7.43,2.43-11.78,2.43h-24.92v-38.54ZM941.81,676.59c-4.12,3.54-10.75,5.3-19.9,5.3h-27.15v-41.07h27.93c5.19,0,9.67.96,13.43,2.87,3.76,1.91,6.68,4.53,8.76,7.83,2.08,3.31,3.11,7.07,3.11,11.29,0,5.64-2.06,10.24-6.18,13.77Z"/>
    <rect class="cls-1" x="589.76" y="560" width="27.88" height="144.97"/>
    <rect class="cls-1" x="628.79" y="660.36" width="27.88" height="44.6"/>
    <rect class="cls-1" x="667.82" y="632.48" width="27.88" height="72.48"/>
  </g>
</svg>