<?xml version="1.0" encoding="UTF-8"?>
<svg width="24" height="24" fill="currentColor" version="1.1" viewBox="0 0 1200 1200" xmlns="http://www.w3.org/2000/svg">
 <path d="m950.02 200.02h-99.984l-0.046875-50.016c0-27.609-22.359-50.016-50.016-50.016s-50.016 22.406-50.016 50.016v50.016h-299.95v-50.016c0-27.609-22.406-50.016-50.016-50.016s-49.969 22.406-49.969 50.016v50.016h-100.03c-82.688 0-150 67.266-150 150v600c0 82.734 67.266 150 150 150h699.98c82.734 0 150-67.266 150-150l0.046875-600c0-82.734-67.312-150-150-150zm49.969 750c0 27.562-22.406 50.016-50.016 50.016l-699.98-0.046875c-27.562 0-50.016-22.453-50.016-50.016v-353.21h800.02zm0-453.24h-799.97v-146.76c0-27.562 22.453-50.016 50.016-50.016h99.984v50.016c0 27.609 22.406 50.016 50.016 50.016s50.016-22.406 50.016-50.016l-0.046875-50.016h300v50.016c0 27.609 22.359 50.016 50.016 50.016s50.016-22.406 50.016-50.016l-0.046875-50.016h99.984c27.609 0 50.016 22.453 50.016 50.016z"/>
</svg>
