<?xml version="1.0" encoding="UTF-8"?>
<svg id="Positiv" xmlns="http://www.w3.org/2000/svg" xmlns:xlink="http://www.w3.org/1999/xlink" viewBox="0 0 1880 460">
  <defs>
    <style>
      .chunk-1 {
        fill: #2467b8;
      }

      .chunk-2 {
        fill: #79bbaa;
      }

      .logo-gradient {
        fill: url(#Unbenannter_Verlauf_7);
      }

      .chunk-4 {
        fill: #3c3c3b;
      }

      .chunk-5 {
        fill: #c4e38a;
      }

      .chunk-6 {
        fill: #4787e5;
      }

      .chunk-7 {
        fill: #89cc96;
      }

      .chunk-8 {
        fill: #a7d890;
      }

      .chunk-9 {
        fill: #68aabe;
      }
    </style>
    <linearGradient id="Unbenannter_Verlauf_7" data-name="Unbenannter Verlauf 7" x1="510" y1="380.20098" x2="1425.4462" y2="380.20098" gradientUnits="userSpaceOnUse">
      <stop offset="0" stop-color="#4787e5" />
      <stop offset="1" stop-color="#89cc96" />
    </linearGradient>
  </defs>
  <g>
    <polygon class="chunk-6" points="390 325.78998 390 434.67999 275.26001 392.95996 390 325.78998" />
    <polygon class="chunk-1" points="375.37 440 194.90002 440 264.04999 399.51996 375.37 440" />
    <polygon class="chunk-1" points="251.84003 395.07996 198.91998 426.06 223.09003 384.63 251.84003 395.07996" />
    <polygon class="chunk-6" points="380.09998 320 263.04999 388.51996 228.21002 375.84998 260.78998 320 380.09998 320" />
    <polygon class="chunk-6" points="213.53998 381.14996 181.28998 436.44 68.91998 328.57001 213.53998 381.14996" />
    <polygon class="chunk-9" points="251.34003 316.33997 218.65997 372.37 73.34998 319.53998 198.78998 263.78998 251.34003 316.33997" />
    <polygon class="chunk-2" points="195 205.46997 195 254.52997 60 314.52997 60 145.46997 195 205.46997" />
    <polygon class="chunk-5" points="375.37 20 264.04999 60.47998 194.90002 20 375.37 20" />
    <polygon class="chunk-8" points="390 25.32001 390 134.20996 275.26001 67.03998 390 25.32001" />
    <polygon class="chunk-5" points="251.84003 64.91998 223.09003 75.37 198.91998 33.94 251.84003 64.91998" />
    <polygon class="chunk-8" points="380.09998 140 260.78998 140 228.21002 84.14996 263.04999 71.47998 380.09998 140" />
    <polygon class="chunk-7" points="251.34003 143.65997 198.78998 196.20996 73.34998 140.45996 218.65997 87.63 251.34003 143.65997" />
    <polygon class="chunk-8" points="213.53998 78.84998 68.91998 131.44 181.28998 23.56 213.53998 78.84998" />
  </g>
  <g>
    <path class="chunk-4" d="M644.9771,178.89934c-2.93112,4.75396-6.57972,8.78754-10.94869,12.10073-4.37092,3.31319-9.26974,5.83503-14.69451,7.56356-5.42671,1.72854-11.26076,2.5928-17.50313,2.5928-11.33368,0-21.34519-2.78432-30.03648-8.35492-8.69324-5.56962-15.51114-13.80593-20.45662-24.70699-4.94743-10.89911-7.41871-24.32103-7.41871-40.26479,0-15.74932,2.42365-29.075,7.27483-39.97605,4.84826-10.89911,11.6438-19.23264,20.38468-24.99476,8.73796-5.76211,18.87196-8.64366,30.39619-8.64366,6.24237,0,12.1017,.86427,17.57605,2.5928s10.37219,4.25037,14.69353,7.56356c4.32231,3.31319,7.92327,7.34677,10.80481,12.10073,2.88154,4.75396,4.84826,10.20595,5.906,16.3511h41.63362c-1.63424-11.90726-5.067-22.52056-10.30025-31.83793-5.23519-9.31349-11.8849-17.2144-19.95206-23.69738-8.06715-6.48298-17.28731-11.40319-27.6595-14.76596-10.37219-3.36083-21.56199-5.04221-33.56647-5.04221-18.72711,0-35.56041,4.34662-50.4931,13.03742-14.93463,8.69324-26.72329,21.27325-35.36695,37.74393-8.64268,16.47165-12.965,36.32746-12.965,59.5684,0,23.14664,4.29704,42.93051,12.89306,59.35258,8.59407,16.42304,20.3351,28.98167,35.22306,37.67199,14.88505,8.69324,31.78738,13.03791,50.70893,13.03791,13.15749,0,25.04239-1.99491,35.65471-5.97891,10.61135-3.98399,19.85581-9.48362,27.73242-16.49498,7.87369-7.00942,14.2123-15.02894,19.01585-24.05757,4.80063-9.02669,7.87369-18.63086,9.21919-28.81251h-41.63265c-1.15301,6.1471-3.19458,11.59714-6.12279,16.3511Z" />
    <path class="chunk-4" d="M834.71462,82.30642c-11.62242-6.91415-25.40404-10.37219-41.34586-10.37219-15.94278,0-29.74775,3.45805-41.41683,10.37219-11.66908,6.91512-20.67244,16.63984-27.01106,29.17221-6.33862,12.53335-9.50792,27.10828-9.50792,43.72284,0,16.51929,3.16931,31.02227,9.50792,43.50604,6.33862,12.48571,15.34198,22.18515,27.01106,29.10027,11.66908,6.91512,25.47404,10.37219,41.41683,10.37219,15.94181,0,29.72344-3.45707,41.34586-10.37219,11.6195-6.91512,20.6005-16.61456,26.93912-29.10027,6.33862-12.48377,9.50792-26.98675,9.50792-43.50604,0-16.61456-3.16931-31.18949-9.50792-43.72284-6.33862-12.53238-15.31962-22.2571-26.93912-29.17221Zm-8.57171,98.68213c-2.73766,7.68411-6.84318,13.78163-12.31752,18.29546-5.47435,4.51481-12.29419,6.77026-20.45662,6.77026-8.26062,0-15.10379-2.25546-20.52856-6.77026-5.42671-4.51383-9.50792-10.61135-12.24461-18.29546-2.73766-7.68314-4.10552-16.3268-4.10552-25.93097,0-9.69944,1.36786-18.36837,4.10552-26.00291,2.73669-7.6355,6.8179-13.68635,12.24461-18.15158,5.42477-4.4662,12.26794-6.69929,20.52856-6.69929,8.16243,0,14.98227,2.2331,20.45662,6.69929,5.47435,4.46522,9.57986,10.54135,12.31752,18.22352,2.73669,7.68411,4.10552,16.32777,4.10552,25.93097,0,9.60417-1.36883,18.24782-4.10552,25.93097Z" />
    <path class="chunk-4" d="M979.71337,71.79035c-9.12586,0-17.21537,2.54614-24.27437,7.6355-7.059,5.09131-12.07837,12.43807-15.05421,22.04127h-1.72854v-27.51562h-39.04082V235.01067h40.33673v-93.20682c0-6.8179,1.51271-12.79681,4.53814-17.93575,3.02543-5.13603,7.22524-9.14724,12.60529-12.02879,5.37713-2.88154,11.47562-4.32231,18.29546-4.32231,3.26458,0,6.67402,.19444,10.22831,.5765,3.55235,.38498,6.19473,.86427,7.92327,1.44077v-36.44704c-1.922-.38304-4.1551-.69608-6.69832-.93621-2.54614-.23916-4.92312-.36068-7.13094-.36068Z" />
    <path class="chunk-4" d="M1095.7635,71.79035c-9.12586,0-17.21537,2.54614-24.27437,7.6355-7.059,5.09131-12.07837,12.43807-15.05421,22.04127h-1.72854v-27.51562h-39.04082V235.01067h40.33673v-93.20682c0-6.8179,1.51271-12.79681,4.53814-17.93575,3.02543-5.13603,7.22524-9.14724,12.60529-12.02879,5.37713-2.88154,11.47562-4.32231,18.29546-4.32231,3.26458,0,6.67402,.19444,10.22831,.5765,3.55235,.38498,6.19473,.86427,7.92327,1.44077v-36.44704c-1.922-.38304-4.1551-.69608-6.69832-.93621-2.54614-.23916-4.92312-.36068-7.13094-.36068Z" />
    <path class="chunk-4" d="M1250.41114,91.7424c-6.86748-6.67402-14.79075-11.6438-23.76981-14.90936-8.981-3.26458-18.6085-4.89882-28.88445-4.89882-15.4635,0-28.93306,3.50763-40.40867,10.51705-11.47756,7.01136-20.36134,16.78275-26.65135,29.3161-6.29098,12.53335-9.43501,27.06064-9.43501,43.57798,0,16.90427,3.16931,31.5492,9.50792,43.93866,6.33862,12.38849,15.41392,21.96933,27.22688,28.73959,11.81296,6.77124,25.83375,10.15637,42.06527,10.15637,12.29322,0,23.19428-1.80048,32.7022-5.40241,9.50792-3.60096,17.43119-8.69032,23.76981-15.27004,6.33862-6.57777,10.80481-14.23758,13.39762-22.97748l-36.73578-7.20288c-1.63424,4.32134-3.98594,7.97285-7.059,10.94772-3.07403,2.97876-6.77026,5.21089-11.09258,6.69929-4.32134,1.49035-9.0753,2.2331-14.26189,2.2331-7.87563,0-14.79075-1.67896-20.74438-5.0427-5.95558-3.35986-10.58802-8.37728-13.90218-15.05421-2.99529-6.03372-4.62272-13.3165-4.91024-21.82448h111.15497v-11.81296c0-14.02176-1.94436-26.14679-5.83405-36.3751-3.88969-10.22831-9.26974-18.6785-16.13528-25.35543Zm-72.31758,16.63984c5.52101-3.64956,12.17267-5.47435,19.95206-5.47435,7.87369,0,14.4534,1.80048,19.73623,5.40143,5.28088,3.60193,9.26682,8.66893,11.95685,15.19907,1.9045,4.62825,3.12118,9.82194,3.67679,15.5578h-72.02203c.50043-5.71356,1.85784-10.99931,4.09482-15.84654,2.88057-6.2414,7.08136-11.18688,12.60529-14.83742Z" />
    <rect class="chunk-4" x="1301.16965" y="20" width="40.33673" height="215.01067" />
    <path class="chunk-4" d="M1439.79576,20l-74.19097,215.01067h45.37846l16.79976-51.57319h78.21531l17.35245,51.57319h45.52332l-75.77659-215.01067h-53.30173Zm-1.36032,130.73528l7.55506-23.19331c3.64859-12.196,7.46634-25.95333,11.45228-41.27294,2.71967-10.4572,5.59052-21.75217,8.60307-33.84403,3.13407,11.99154,6.12765,23.19088,8.97298,33.55529,4.17746,15.22337,8.2334,29.07791,12.17267,41.56168l7.80369,23.19331h-56.55975Z" />
    <rect class="chunk-4" x="1593.17081" y="73.9515" width="40.33673" height="161.05917" />
    <path class="chunk-4" d="M1615.38925,9.37598c-6.27246,0-11.64941,2.07568-16.13574,6.22266-4.48535,4.14893-6.72852,9.21387-6.72852,15.19434,0,5.88574,2.24316,10.92578,6.72852,15.12207,4.48633,4.19727,9.86328,6.29492,16.13574,6.29492,6.36719,0,11.79395-2.09766,16.2793-6.29492,4.48633-4.19629,6.72949-9.23633,6.72949-15.12207,0-5.98047-2.24316-11.04541-6.72949-15.19434-4.48535-4.14697-9.91211-6.22266-16.2793-6.22266Z" />
    <path class="chunk-4" d="M1774.66327,20V100.89062h-1.44077c-1.922-4.03358-4.70632-8.30631-8.35492-12.82111-3.65151-4.51286-8.52408-8.33061-14.62256-11.45326-6.09946-3.11973-13.8069-4.68202-23.12136-4.68202-12.10073,0-23.14664,3.12264-33.13385,9.36404-9.99012,6.24431-17.93575,15.51114-23.84175,27.80338-5.90697,12.29516-8.85948,27.51562-8.85948,45.6672,0,17.76951,2.88057,32.82372,8.64268,45.16361,5.76308,12.34183,13.63677,21.75253,23.62593,28.23503,9.98818,6.48347,21.22464,9.72472,33.71035,9.72472,9.12294,0,16.71081-1.53799,22.76166-4.61008,6.05085-3.07306,10.92342-6.7936,14.62159-11.16452,3.69623-4.36898,6.55541-8.61935,8.57171-12.74917h2.16116v25.64223h39.61635V20h-40.33673Zm-3.38513,161.0605c-2.83391,7.54023-6.9647,13.42192-12.38947,17.64702-5.42671,4.22704-12.02879,6.33862-19.80817,6.33862-7.87563,0-14.52729-2.16116-19.95206-6.4825-5.42768-4.32231-9.5332-10.30025-12.31752-17.93575-2.78627-7.6355-4.17746-16.30152-4.17746-26.00291,0-9.69944,1.36883-18.31782,4.10552-25.85902,2.73766-7.53829,6.8179-13.44428,12.24558-17.71896,5.42477-4.27273,12.12309-6.41056,20.09594-6.41056,7.77939,0,14.38146,2.06588,19.80817,6.19473,5.42477,4.12982,9.55556,9.91721,12.38947,17.35925,2.83196,7.44398,4.2494,16.25583,4.2494,26.43455,0,10.08443-1.41744,18.89724-4.2494,26.43553Z" />
  </g>
  <path class="logo-gradient" d="M579.77181,327.17772c-8.34805-4.77731-18.39925-7.16652-30.15505-7.16652h-39.61676v119.97663h38.24756c12.18486,0,22.57219-2.4157,31.16199-7.24674,8.58762-4.8314,15.12363-11.74237,19.60656-20.73437,4.48148-8.99054,6.72331-19.74014,6.72331-32.24878,0-12.40011-2.24183-23.06912-6.72331-32.00703-4.48293-8.93791-10.89769-15.7948-19.24429-20.5732Zm4.91198,77.13942c-3.0876,6.7636-7.73024,11.93076-13.93084,15.50005-6.19987,3.57074-14.02449,5.35483-23.47168,5.35483h-20.37174v-90.34465h21.57977c9.01813,0,16.54727,1.77139,22.58598,5.31418,6.03943,3.54315,10.58843,8.65623,13.64843,15.33924,3.06001,6.68338,4.58965,14.77588,4.58965,24.27715,0,9.6098-1.54343,17.79523-4.62958,24.5592Zm99.18128-49.80263c-3.59651-2.17395-7.36725-3.66366-11.31295-4.46877s-7.58287-1.20767-10.91076-1.20767c-4.93957,0-9.82324,.69803-14.65464,2.09336-4.8314,1.39642-9.1793,3.67745-13.04442,6.84418-3.86512,3.16818-6.89827,7.48849-9.09871,12.9642l15.29859,4.42848c.91256-2.09336,2.29482-4.10651,4.1468-6.03907,1.85198-1.93256,4.24045-3.52899,7.16688-4.79111,2.92498-1.26067,6.42783-1.89227,10.50784-1.89227,4.02629,0,7.36798,.6581,10.02507,1.97285,2.65709,1.3162,4.67023,3.20847,6.03871,5.6768,1.3692,2.46979,2.0538,5.47535,2.0538,9.01849v.48314c0,2.14745-.81963,3.67745-2.45599,4.58965-1.63854,.91328-4.12067,1.56993-7.44856,1.97249-3.32862,.40292-7.67724,.92635-13.04442,1.5703-4.24118,.53723-8.41411,1.27591-12.52099,2.21424-4.10615,.94014-7.85075,2.34927-11.23237,4.22738-3.38234,1.87993-6.07936,4.44264-8.0925,7.68995-2.01314,3.2484-3.01935,7.4482-3.01935,12.60157,0,5.90549,1.36847,10.9104,4.10615,15.01727,2.73767,4.10651,6.41404,7.22024,11.03127,9.34047,4.61651,2.11986,9.76952,3.18052,15.46048,3.18052,4.99184,0,9.27222-.72489,12.8426-2.17431,3.56965-1.44942,6.49462-3.27345,8.7771-5.47535,2.28103-2.20045,3.95805-4.42848,5.0325-6.68338h.96628v12.31989h15.70151v-59.58558c0-6.76396-1.15504-12.22551-3.4622-16.38611-2.30862-4.15951-5.26191-7.32732-8.85769-9.50163Zm-3.78381,53.02344c0,3.54278-.94014,6.92477-2.81826,10.14558-1.88029,3.22081-4.60417,5.83761-8.17309,7.85075-3.57037,2.01314-7.9052,3.01972-13.00449,3.01972-3.43607,0-6.49535-.52343-9.1793-1.5703-2.68468-1.04686-4.79075-2.56271-6.32111-4.54936-1.52964-1.98556-2.29482-4.48148-2.29482-7.48849,0-3.27381,.8719-5.87826,2.61716-7.81082,1.74381-1.9322,4.06622-3.42191,6.96506-4.46877s6.03943-1.7841,9.42105-2.21424c1.39533-.16117,3.23352-.38876,5.516-.6846,2.28103-.29439,4.62958-.64394,7.04564-1.0465,2.41534-.40292,4.56134-.8719,6.44163-1.40913,1.87811-.53614,3.13987-1.15395,3.78454-1.85198v12.07814Zm77.40477,18.68093l3.05928,13.20522c-1.7184,.59022-3.58271,1.01928-5.59586,1.28825-2.01314,.26825-4.01322,.40292-5.99878,.40292-7.99958,0-14.19945-2.06614-18.60035-6.20024-4.40235-4.13301-6.60279-9.95682-6.60279-17.47326v-54.11023h-13.36675v-13.36639h13.36675v-21.4186h16.10443v21.4186h18.19743v13.36639h-18.19743v52.82198c0,3.81212,.77753,6.60279,2.33475,8.37419,1.5565,1.77139,4.18746,2.65709,7.89141,2.65709,.91183,0,2.093-.10672,3.54278-.32197,1.44906-.2138,2.73767-.42905,3.86512-.64394Zm76.46971-71.70437c-3.59651-2.17395-7.36725-3.66366-11.31295-4.46877-3.9457-.80511-7.58287-1.20767-10.91076-1.20767-4.93957,0-9.82324,.69803-14.65464,2.09336-4.8314,1.39642-9.1793,3.67745-13.04442,6.84418-3.86512,3.16818-6.89827,7.48849-9.09871,12.9642l15.29859,4.42848c.91256-2.09336,2.29482-4.10651,4.1468-6.03907,1.85198-1.93256,4.24045-3.52899,7.16688-4.79111,2.92498-1.26067,6.42783-1.89227,10.50784-1.89227,4.02629,0,7.36798,.6581,10.02507,1.97285,2.65709,1.3162,4.67023,3.20847,6.03871,5.6768,1.3692,2.46979,2.0538,5.47535,2.0538,9.01849v.48314c0,2.14745-.81963,3.67745-2.45599,4.58965-1.63854,.91328-4.12067,1.56993-7.44856,1.97249-3.32862,.40292-7.67724,.92635-13.04442,1.5703-4.24118,.53723-8.41411,1.27591-12.52099,2.21424-4.10615,.94014-7.85075,2.34927-11.23237,4.22738-3.38234,1.87993-6.07936,4.44264-8.0925,7.68995-2.01314,3.2484-3.01935,7.4482-3.01935,12.60157,0,5.90549,1.36847,10.9104,4.10615,15.01727,2.73767,4.10651,6.41404,7.22024,11.03127,9.34047,4.61651,2.11986,9.76952,3.18052,15.46048,3.18052,4.99184,0,9.27222-.72489,12.8426-2.17431,3.56965-1.44942,6.49462-3.27345,8.7771-5.47535,2.28103-2.20045,3.95805-4.42848,5.0325-6.68338h.96628v12.31989h15.70151v-59.58558c0-6.76396-1.15504-12.22551-3.4622-16.38611-2.30862-4.15951-5.26191-7.32732-8.85769-9.50163Zm-3.78381,53.02344c0,3.54278-.94014,6.92477-2.81826,10.14558-1.88029,3.22081-4.60417,5.83761-8.17309,7.85075-3.57037,2.01314-7.9052,3.01972-13.00449,3.01972-3.43607,0-6.49535-.52343-9.1793-1.5703-2.68468-1.04686-4.79075-2.56271-6.32111-4.54936-1.52964-1.98556-2.29482-4.48148-2.29482-7.48849,0-3.27381,.8719-5.87826,2.61716-7.81082,1.74381-1.9322,4.06622-3.42191,6.96506-4.46877s6.03943-1.7841,9.42105-2.21424c1.39533-.16117,3.23352-.38876,5.516-.6846,2.28103-.29439,4.62958-.64394,7.04564-1.0465,2.41534-.40292,4.56134-.8719,6.44163-1.40913,1.87811-.53614,3.13987-1.15395,3.78454-1.85198v12.07814Zm108.82521-87.52675h-20.61349l-52.09709,82.45396v13.60778h56.60615v23.91489h16.10443v-23.91489h16.10443v-14.49384h-16.10443v-81.56791Zm-15.94326,81.56791h-39.05267v-.96628l38.08639-60.14894h.96628v61.11522Zm107.04728-22.4651h46.70233v13.36639c0,10.03886-2.13438,18.73502-6.4017,26.08884-4.26804,7.35491-10.11944,13.03171-17.55348,17.03005-7.43549,3.99979-15.98391,5.99914-25.64599,5.99914-10.79025,0-20.23889-2.49628-28.34373-7.48849-8.1063-4.99257-14.4412-12.09084-19.00254-21.29809-4.56351-9.2058-6.84454-20.11619-6.84454-32.73156,0-12.77544,2.29482-23.76642,6.88447-32.97367,4.58965-9.2058,10.89697-16.29173,18.92268-21.25744,8.02426-4.96462,17.19122-7.4482,27.49796-7.4482,6.38718,0,12.35982,.93978,17.91575,2.81826,5.55593,1.87956,10.52091,4.57694,14.89639,8.09214,4.37476,3.51665,7.99813,7.68995,10.87011,12.52135,2.87125,4.83104,4.84374,10.14558,5.91819,15.9429h-17.31173c-1.18117-3.70395-2.75147-7.01769-4.71016-9.94412-1.96015-2.92534-4.29563-5.43542-7.00571-7.52878-2.71154-2.09373-5.77082-3.69016-9.1793-4.79111-3.40993-1.0995-7.15381-1.65052-11.23237-1.65052-6.92513,0-13.16566,1.75869-18.72159,5.27389-5.55593,3.51665-9.97207,8.71031-13.24551,15.58099-3.2749,6.87213-4.91198,15.32654-4.91198,25.36431,0,9.87733,1.63709,18.23772,4.91198,25.08226,3.27345,6.84418,7.74258,12.05164,13.40668,15.62092,5.66265,3.57074,12.09048,5.35483,19.28495,5.35483,6.60279,0,12.39975-1.36884,17.39232-4.10651,4.99257-2.73804,8.87003-6.62929,11.63529-11.67558,2.64366-4.82487,4.00868-10.49459,4.12411-16.99012h-30.25288v-14.25209Zm129.20421-24.47861c-6.25432-3.86512-13.54171-5.79732-21.86145-5.79732-8.32119,0-15.59479,1.9322-21.82152,5.79732-6.22746,3.86512-11.0712,9.30017-14.53413,16.30552-3.4622,7.00535-5.19366,15.20603-5.19366,24.59912,0,9.23375,1.73146,17.33968,5.19366,24.31744,3.46293,6.97885,8.30667,12.40047,14.53413,16.26523,6.22673,3.86512,13.50033,5.79768,21.82152,5.79768,8.31974,0,15.60713-1.93256,21.86145-5.79768,6.25287-3.86476,11.09806-9.28638,14.53413-16.26523,3.43461-6.97776,5.15301-15.0837,5.15301-24.31744,0-9.3931-1.7184-17.59378-5.15301-24.59912-3.43607-7.00535-8.28126-12.4404-14.53413-16.30552Zm.72453,56.92849c-1.79898,4.93957-4.57731,8.89762-8.33426,11.87704-3.75768,2.97906-8.50849,4.46877-14.25172,4.46877-5.74468,0-10.46791-1.48971-14.17187-4.46877-3.70395-2.97942-6.45542-6.93747-8.25367-11.87704-1.79898-4.93812-2.69702-10.30675-2.69702-16.10406,0-5.85068,.89804-11.24544,2.69702-16.18501,1.79825-4.93812,4.54972-8.90996,8.25367-11.91697,3.70395-3.00592,8.42718-4.50907,14.17187-4.50907,5.74323,0,10.49405,1.50314,14.25172,4.50907,3.75695,3.00701,6.53528,6.99264,8.33426,11.95726,1.79825,4.96607,2.69774,10.34704,2.69774,16.14472,0,5.79732-.89949,11.16594-2.69774,16.10406Zm99.34971-56.92849c-6.25432-3.86512-13.54171-5.79732-21.86145-5.79732-8.32119,0-15.59479,1.9322-21.82152,5.79732-6.22746,3.86512-11.0712,9.30017-14.53413,16.30552-3.4622,7.00535-5.19366,15.20603-5.19366,24.59912,0,9.23375,1.73146,17.33968,5.19366,24.31744,3.46293,6.97885,8.30667,12.40047,14.53413,16.26523,6.22673,3.86512,13.50033,5.79768,21.82152,5.79768,8.31974,0,15.60713-1.93256,21.86145-5.79768,6.25287-3.86476,11.09806-9.28638,14.53413-16.26523,3.43461-6.97776,5.15301-15.0837,5.15301-24.31744,0-9.3931-1.7184-17.59378-5.15301-24.59912-3.43607-7.00535-8.28126-12.4404-14.53413-16.30552Zm.72453,56.92849c-1.79898,4.93957-4.57731,8.89762-8.33426,11.87704-3.75768,2.97906-8.50849,4.46877-14.25172,4.46877-5.74468,0-10.46791-1.48971-14.17187-4.46877-3.70395-2.97942-6.45542-6.93747-8.25367-11.87704-1.79898-4.93812-2.69702-10.30675-2.69702-16.10406,0-5.85068,.89804-11.24544,2.69702-16.18501,1.79825-4.93812,4.54972-8.90996,8.25367-11.91697,3.70395-3.00592,8.42718-4.50907,14.17187-4.50907,5.74323,0,10.49405,1.50314,14.25172,4.50907,3.75695,3.00701,6.53528,6.99264,8.33426,11.95726,1.79825,4.96607,2.69774,10.34704,2.69774,16.14472,0,5.79732-.89949,11.16594-2.69774,16.10406Zm100.92001-47.0243h-1.04686c-.96628-1.77139-2.403-3.87746-4.30797-6.32111-1.90642-2.44184-4.57731-4.61578-8.01192-6.52221-3.43607-1.90461-7.99958-2.85819-13.68836-2.85819-7.35563,0-13.87784,1.85198-19.56663,5.55593-5.69096,3.70395-10.17389,9.01813-13.44734,15.9429-3.2749,6.92513-4.91198,15.21873-4.91198,24.88117,0,9.6098,1.61095,17.90341,4.8314,24.88117,3.22118,6.97885,7.68959,12.34711,13.40668,16.10406,5.7171,3.75804,12.25165,5.63651,19.60728,5.63651,5.63651,0,10.17171-.95358,13.60778-2.85855,3.43461-1.90461,6.12002-4.10651,8.05258-6.60279,1.93183-2.49592,3.40775-4.62994,4.42848-6.40133h1.52964v14.0107h15.62092v-119.97663h-16.1037v44.52838Zm-2.53658,47.58802c-1.85198,4.93921-4.58965,8.79054-8.21302,11.55471-3.62337,2.76526-8.06637,4.1468-13.32682,4.1468-5.31418,0-9.8109-1.46176-13.48727-4.38819-3.67709-2.92534-6.42856-6.85689-8.25295-11.79646-1.82584-4.93812-2.73767-10.46791-2.73767-16.58757,0-6.0652,.89804-11.52712,2.69702-16.38574,1.79825-4.8579,4.52213-8.70886,8.17309-11.55507,3.65023-2.84439,8.18543-4.26731,13.60778-4.26731,5.3149,0,9.76952,1.35613,13.36675,4.06622,3.59578,2.71117,6.32111,6.46921,8.17309,11.27303,1.85198,4.80454,2.7776,10.42726,2.7776,16.86888,0,6.44199-.92563,12.13259-2.7776,17.07071Zm66.95864,17.63407c0,3.16782-1.10131,5.85177-3.30176,8.05221-2.2019,2.20045-4.88512,3.3014-8.05185,3.3014-3.16818,0-5.86592-1.10095-8.0925-3.3014-2.22803-2.20045-3.34169-4.8844-3.34169-8.05221,0-3.16673,1.11365-5.85031,3.34169-8.05221,2.22658-2.20045,4.92433-3.3014,8.0925-3.3014,3.16673,0,5.84995,1.10095,8.05185,3.3014,2.20045,2.2019,3.30176,4.88549,3.30176,8.05221Z" />
</svg>
