<?xml version="1.0" encoding="UTF-8"?>
<svg id="Positiv" xmlns="http://www.w3.org/2000/svg" xmlns:xlink="http://www.w3.org/1999/xlink" viewBox="0 0 920 860">
  <defs>
    <style>
      .cls-1 {
        fill: #2467b8;
      }

      .cls-2 {
        fill: #79bbaa;
      }

      .cls-3 {
        fill: url(#Unbenannter_Verlauf_8);
      }

      .cls-4 {
        fill: #3c3c3b;
      }

      .cls-5 {
        fill: #c4e38a;
      }

      .cls-6 {
        fill: #4787e5;
      }

      .cls-7 {
        fill: #89cc96;
      }

      .cls-8 {
        fill: #a7d890;
      }

      .cls-9 {
        fill: #68aabe;
      }
    </style>
    <linearGradient id="Unbenannter_Verlauf_8" data-name="Unbenannter Verlauf 8" x1="156.98365" y1="800.12195" x2="767.57015" y2="800.12195" gradientUnits="userSpaceOnUse">
      <stop offset="0" stop-color="#4787e5"/>
      <stop offset="1" stop-color="#89cc96"/>
    </linearGradient>
  </defs>
  <g>
    <polygon class="cls-6" points="620 325.78998 620 434.67999 505.26001 392.95996 620 325.78998"/>
    <polygon class="cls-1" points="605.37 440 424.90002 440 494.04999 399.51996 605.37 440"/>
    <polygon class="cls-1" points="481.84003 395.07996 428.91998 426.06 453.09003 384.63 481.84003 395.07996"/>
    <polygon class="cls-6" points="610.09998 320 493.04999 388.51996 458.21002 375.84998 490.78998 320 610.09998 320"/>
    <polygon class="cls-6" points="443.53998 381.14996 411.28998 436.44 298.91998 328.57001 443.53998 381.14996"/>
    <polygon class="cls-9" points="481.34003 316.33997 448.65997 372.37 303.34998 319.53998 428.78998 263.78998 481.34003 316.33997"/>
    <polygon class="cls-2" points="425 205.46997 425 254.52997 290 314.52997 290 145.46997 425 205.46997"/>
    <polygon class="cls-5" points="605.37 20 494.04999 60.47998 424.90002 20 605.37 20"/>
    <polygon class="cls-8" points="620 25.32001 620 134.20996 505.26001 67.03998 620 25.32001"/>
    <polygon class="cls-5" points="481.84003 64.91998 453.09003 75.37 428.91998 33.94 481.84003 64.91998"/>
    <polygon class="cls-8" points="610.09998 140 490.78998 140 458.21002 84.14996 493.04999 71.47998 610.09998 140"/>
    <polygon class="cls-7" points="481.34003 143.65997 428.78998 196.20996 303.34998 140.45996 448.65997 87.63 481.34003 143.65997"/>
    <polygon class="cls-8" points="443.53998 78.84998 298.91998 131.44 411.28998 23.56 443.53998 78.84998"/>
  </g>
  <g>
    <path class="cls-4" d="M111.22795,667.12254c-1.97668,3.20596-4.4372,5.92611-7.38354,8.16044-2.94765,2.23434-6.25129,3.935-9.90963,5.10069-3.65965,1.16568-7.59399,1.74853-11.8037,1.74853-7.64316,0-14.39469-1.87768-20.25589-5.63436-5.86251-3.75602-10.46034-9.31039-13.79546-16.66181-3.33643-7.3501-5.003-16.40153-5.003-27.15362,0-10.62097,1.63445-19.60749,4.90597-26.9589,3.26955-7.3501,7.85231-12.97004,13.74694-16.85587,5.89267-3.88583,12.72681-5.82908,20.49847-5.82908,4.20971,0,8.1611,.58284,11.85287,1.74853,3.69177,1.16568,6.99476,2.86635,9.90897,5.10069,2.91487,2.23434,5.34327,4.95449,7.28651,8.16044,1.94324,3.20596,3.26955,6.88265,3.98286,11.02679h28.07673c-1.10209-8.02998-3.41707-15.18733-6.94624-21.47075-3.53049-6.2808-8.0149-11.60898-13.45519-15.98095-5.4403-4.37197-11.65815-7.69004-18.65291-9.95781-6.99476-2.26646-14.54089-3.40035-22.63643-3.40035-12.62912,0-23.9811,2.93126-34.05135,8.79213-10.07156,5.86251-18.02156,14.34618-23.85063,25.45361-5.82842,11.10809-8.74329,24.49838-8.74329,40.17152,0,15.60955,2.89782,28.95132,8.69477,40.02597,5.79564,11.07531,13.71351,19.54455,23.7536,25.4051,10.03813,5.86251,21.43666,8.79246,34.1969,8.79246,8.8731,0,16.888-1.34532,24.04469-4.03203,7.15604-2.68671,13.39029-6.39553,18.70208-11.12383,5.30983-4.72699,9.58444-10.13516,12.82384-16.22386,3.23743-6.08739,5.30983-12.56421,6.2172-19.43047h-28.07607c-.77756,4.14546-2.15435,7.82084-4.12907,11.02679Z"/>
    <path class="cls-4" d="M239.18243,601.98256c-7.83788-4.66274-17.13189-6.99476-27.88267-6.99476-10.75144,0-20.06117,2.33202-27.93053,6.99476-7.86935,4.66339-13.94101,11.22151-18.21562,19.67305-4.27461,8.45219-6.41192,18.28118-6.41192,29.48565,0,11.14022,2.13731,20.92069,6.41192,29.33944,4.27461,8.42007,10.34627,14.96114,18.21562,19.62453,7.86935,4.66339,17.17909,6.99476,27.93053,6.99476,10.75078,0,20.04478-2.33137,27.88267-6.99476,7.83591-4.66339,13.89249-11.20447,18.1671-19.62453,4.27461-8.41876,6.41192-18.19923,6.41192-29.33944,0-11.20447-2.13731-21.03345-6.41192-29.48565-4.27461-8.45154-10.33119-15.00966-18.1671-19.67305Zm-5.78056,66.54889c-1.84621,5.18198-4.61488,9.294-8.30665,12.33803-3.69177,3.04468-8.29091,4.56571-13.79546,4.56571-5.57076,0-10.18564-1.52103-13.84397-4.56571-3.65965-3.04402-6.41192-7.15604-8.25748-12.33803-1.84621-5.18133-2.76866-11.0104-2.76866-17.48723,0-6.54107,.92245-12.3872,2.76866-17.53574,1.84556-5.1492,4.59783-9.22975,8.25748-12.24099,3.65833-3.0119,8.27321-4.51785,13.84397-4.51785,5.50455,0,10.10369,1.50595,13.79546,4.51785,3.69177,3.01124,6.46043,7.10884,8.30665,12.28951,1.84556,5.18198,2.76866,11.01106,2.76866,17.48723,0,6.47682-.92311,12.3059-2.76866,17.48723Z"/>
    <path class="cls-4" d="M336.96615,594.89077c-6.15426,0-11.60964,1.71706-16.37006,5.1492-4.76042,3.43346-8.14537,8.38794-10.1522,14.86411h-1.16568v-18.55588h-26.3282v108.61449h27.20214v-62.85647c0-4.59783,1.02014-8.62987,3.06041-12.09545,2.04028-3.46362,4.87253-6.16869,8.50071-8.11193,3.62621-1.94324,7.73888-2.91487,12.33803-2.91487,2.20156,0,4.5008,.13112,6.89773,.38878,2.39562,.25962,4.17758,.58284,5.34327,.97162v-24.57902c-1.29615-.25831-2.8021-.46942-4.51719-.63136-1.71706-.16128-3.32004-.24323-4.80894-.24323Z"/>
    <path class="cls-4" d="M415.22762,594.89077c-6.15426,0-11.60964,1.71706-16.37006,5.1492-4.76042,3.43346-8.14537,8.38794-10.1522,14.86411h-1.16568v-18.55588h-26.3282v108.61449h27.20214v-62.85647c0-4.59783,1.02014-8.62987,3.06041-12.09545,2.04028-3.46362,4.87253-6.16869,8.50071-8.11193,3.62621-1.94324,7.73888-2.91487,12.33803-2.91487,2.20156,0,4.5008,.13112,6.89773,.38878,2.39562,.25962,4.17758,.58284,5.34327,.97162v-24.57902c-1.29615-.25831-2.8021-.46942-4.51719-.63136-1.71706-.16128-3.32004-.24323-4.80894-.24323Z"/>
    <path class="cls-4" d="M519.51832,608.34597c-4.63127-4.5008-9.97453-7.85231-16.0298-10.05452-6.05657-2.20156-12.54913-3.30365-19.47899-3.30365-10.42822,0-19.51177,2.36546-27.25065,7.09245-7.7402,4.7283-13.73121,11.31789-17.97304,19.77008-4.24249,8.45219-6.36275,18.24905-6.36275,29.38796,0,11.39984,2.13731,21.27603,6.41192,29.63119,4.27461,8.35451,10.39478,14.8156,18.36116,19.3813,7.96638,4.56636,17.42167,6.84921,28.36782,6.84921,8.29026,0,15.64167-1.2142,22.05359-3.64325,6.41192-2.4284,11.75518-5.86055,16.0298-10.29775,4.27461-4.43589,7.28651-9.60149,9.03504-15.49547l-24.77374-4.85745c-1.10209,2.91421-2.68802,5.3767-4.76042,7.38288-2.07306,2.00881-4.56571,3.5141-7.48057,4.51785-2.91421,1.00506-6.12017,1.50595-9.61788,1.50595-5.31114,0-9.97453-1.13225-13.98952-3.40068-4.0163-2.26581-7.14031-5.64944-9.3753-10.1522-2.01995-4.06899-3.11745-8.98033-3.31135-14.71791h74.96028v-7.96638c0-9.45594-1.31123-17.63278-3.93435-24.5305-2.62312-6.89773-6.25129-12.59634-10.88125-17.0991Zm-48.76926,11.22151c3.72324-2.46118,8.20896-3.69177,13.45519-3.69177,5.30983,0,9.74703,1.2142,13.30965,3.6426,3.5613,2.42905,6.24933,5.84612,8.06341,10.24989,1.28435,3.12118,2.10485,6.62368,2.47954,10.49181h-48.56995c.33748-3.85309,1.25288-7.41767,2.76145-10.68653,1.94259-4.20905,4.7755-7.54417,8.50071-10.006Z"/>
    <rect class="cls-4" x="553.74865" y="559.96459" width="27.20214" height="144.9981"/>
    <path class="cls-4" d="M647.23482,559.96459l-50.03263,144.9981h30.60216l11.32936-34.77974h52.74655l11.70208,34.77974h30.69985l-51.10194-144.9981h-35.94542Zm-.91737,88.16477l5.09495-15.64102c2.46052-8.22469,5.03513-17.50231,7.72315-27.8335,1.83408-7.05209,3.77012-14.66915,5.8017-22.82361,2.11354,8.08681,4.13234,15.63938,6.05117,22.62889,2.81718,10.26628,5.55241,19.60946,8.20896,28.02821l5.26262,15.64102h-38.14256Z"/>
    <rect class="cls-4" x="750.66732" y="596.34821" width="27.20214" height="108.61449"/>
    <path class="cls-4" d="M765.65091,552.8c-4.23,0-7.85609,1.39979-10.88156,4.19641-3.02481,2.79794-4.53755,6.21361-4.53755,10.2467,0,3.96921,1.51274,7.36809,4.53755,10.19797,3.02547,2.83054,6.65156,4.24515,10.88156,4.24515,4.29388,0,7.95356-1.41461,10.97837-4.24515,3.02547-2.82988,4.53821-6.22876,4.53821-10.19797,0-4.03309-1.51274-7.44876-4.53821-10.2467-3.02481-2.79662-6.68449-4.19641-10.97837-4.19641Z"/>
    <path class="cls-4" d="M873.06153,559.96459v54.55072h-.97162c-1.29615-2.72015-3.17383-5.60158-5.63436-8.64626-2.46249-3.04337-5.74844-5.61797-9.86111-7.7238-4.11333-2.10387-9.31105-3.15744-15.5925-3.15744-8.16044,0-15.60955,2.10584-22.34468,6.31489-6.7371,4.21102-12.09545,10.46034-16.07831,18.74994-3.98352,8.29157-5.97462,18.55588-5.97462,30.79688,0,11.98334,1.94259,22.13554,5.82842,30.45727,3.88649,8.32304,9.19632,14.66939,15.93276,19.04104,6.73579,4.3723,14.31339,6.55812,22.73346,6.55812,6.15229,0,11.26937-1.03718,15.34992-3.10893,4.08055-2.0724,7.36649-4.58144,9.86046-7.52909,2.49265-2.94634,4.42081-5.81269,5.78056-8.59774h1.45743v17.29251h26.71633v-144.9981h-27.20214Zm-2.28285,108.61538c-1.91112,5.08495-4.69683,9.05143-8.35516,11.90073-3.65965,2.85062-8.11193,4.27461-13.35816,4.27461-5.31114,0-9.79686-1.45743-13.45519-4.37164-3.6603-2.91487-6.42896-6.94624-8.30665-12.09545-1.87899-5.1492-2.81718-10.99336-2.81718-17.53574,0-6.54107,.92311-12.3531,2.76866-17.43871,1.84621-5.08364,4.59783-9.0665,8.25813-11.94925,3.65833-2.88143,8.17552-4.32313,13.55223-4.32313,5.24623,0,9.69852,1.39318,13.35816,4.17758,3.65833,2.78505,6.44404,6.68793,8.35516,11.70667,1.90981,5.02005,2.86569,10.96254,2.86569,17.82684,0,6.8007-.95589,12.74385-2.86569,17.82749Z"/>
  </g>
  <path class="cls-3" d="M203.52022,764.75637c-5.568-3.18638-12.27198-4.77994-20.11289-4.77994h-26.42368v80.0223h25.51045c8.12709,0,15.05525-1.61123,20.7845-4.83345,5.72779-3.22246,10.08719-7.83196,13.07723-13.82946,2.98907-5.99653,4.48433-13.16632,4.48433-21.50937,0-8.27066-1.49526-15.3867-4.48433-21.34813-2.99004-5.96143-7.26857-10.53485-12.8356-13.72196Zm3.27621,51.45064c-2.05937,4.5112-5.15593,7.95761-9.29163,10.33826-4.13521,2.38162-9.35409,3.57158-15.6552,3.57158h-13.58759v-60.25829h14.39333c6.01493,0,11.03674,1.18149,15.06445,3.54446,4.02819,2.36322,7.06229,5.77355,9.10327,10.231,2.04097,4.45769,3.06122,9.85525,3.06122,16.19243,0,6.40957-1.02944,11.86911-3.08785,16.38055Zm66.15217-33.21748c-2.39881-1.44999-4.91383-2.4436-7.54554-2.98059s-5.05764-.80549-7.27729-.80549c-3.29461,0-6.55193,.46557-9.77439,1.39624-3.22246,.93139-6.12243,2.4528-8.7004,4.56495-2.57797,2.11312-4.60102,4.99469-6.06868,8.64689l10.20389,2.95372c.60866-1.39624,1.53061-2.73897,2.76584-4.02795,1.23524-1.28898,2.82831-2.35378,4.78018-3.19559,1.95091-.84084,4.28725-1.26211,7.00855-1.26211,2.68546,0,4.91431,.43894,6.68654,1.31586,1.77223,.87788,3.11496,2.13999,4.02771,3.78633,.91323,1.6473,1.36985,3.65196,1.36985,6.01518v.32225c0,1.43231-.54668,2.4528-1.6381,3.06122-1.09288,.60914-2.74841,1.04712-4.96806,1.31562-2.22013,.26874-5.12059,.61786-8.7004,1.04736-2.82879,.35832-5.61207,.85101-8.35128,1.47686-2.73873,.62706-5.23631,1.56692-7.49179,2.81959-2.25596,1.25388-4.05483,2.96316-5.39756,5.12906-1.34273,2.16663-2.01386,4.96782-2.01386,8.40503,0,3.93886,.91275,7.27704,2.73873,10.01625,1.82598,2.73897,4.27805,4.81577,7.35767,6.22993,3.07913,1.41391,6.5161,2.12135,10.31187,2.12135,3.32947,0,6.18441-.48349,8.56579-1.45023,2.38089-.96674,4.3318-2.18333,5.85417-3.65196,1.52141-1.46766,2.63995-2.95372,3.35659-4.45769h.64449v8.21715h10.47263v-39.74253c0-4.51144-.77039-8.1542-2.30923-10.92924-1.53981-2.77432-3.5096-4.88719-5.90792-6.33742Zm-2.52374,35.3657c0,2.36298-.62706,4.6187-1.87973,6.76692-1.25412,2.14823-3.0709,3.89358-5.45131,5.23631-2.38138,1.34273-5.27263,2.0141-8.67377,2.0141-2.2918,0-4.33228-.34912-6.12243-1.04736-1.79063-.69824-3.19534-1.70928-4.21607-3.03434-1.02024-1.32433-1.53061-2.98907-1.53061-4.99469,0-2.18357,.58154-3.9207,1.7456-5.20968,1.16309-1.28874,2.7121-2.28235,4.64557-2.98059s4.02819-1.18996,6.28367-1.47686c.93066-.1075,2.1567-.2593,3.67907-.45662,1.52141-.19635,3.08785-.4295,4.69932-.698,1.61099-.26874,3.04233-.58154,4.29645-.93986,1.25267-.35759,2.09424-.76966,2.52422-1.23524v8.05591Zm51.62762,12.45985l2.04049,8.80765c-1.14614,.39367-2.38961,.67984-3.73234,.85924-1.34273,.17892-2.67675,.26874-4.00108,.26874-5.33558,0-9.47079-1.37808-12.4061-4.13545-2.93629-2.75664-4.40395-6.64103-4.40395-11.65436v-36.09057h-8.91539v-8.91515h8.91539v-14.28583h10.74137v14.28583h12.13736v8.91515h-12.13736v35.23133c0,2.54262,.5186,4.40395,1.55724,5.58543,1.03816,1.18149,2.79296,1.77223,5.26343,1.77223,.60818,0,1.396-.07118,2.36298-.21475,.9665-.1426,1.82598-.28617,2.57797-.4295Zm51.00395-47.82555c-2.39881-1.44999-4.91383-2.4436-7.54554-2.98059-2.63172-.537-5.05764-.80549-7.27729-.80549-3.29461,0-6.55193,.46557-9.77439,1.39624-3.22246,.93139-6.12243,2.4528-8.7004,4.56495-2.57797,2.11312-4.60102,4.99469-6.06868,8.64689l10.20389,2.95372c.60866-1.39624,1.53061-2.73897,2.76584-4.02795s2.82831-2.35378,4.78018-3.19559c1.95091-.84084,4.28725-1.26211,7.00855-1.26211,2.68546,0,4.91431,.43894,6.68654,1.31586,1.77223,.87788,3.11496,2.13999,4.02771,3.78633,.91323,1.6473,1.36985,3.65196,1.36985,6.01518v.32225c0,1.43231-.54668,2.4528-1.6381,3.06122-1.09288,.60914-2.74841,1.04712-4.96806,1.31562-2.22013,.26874-5.12059,.61786-8.7004,1.04736-2.82879,.35832-5.61207,.85101-8.35128,1.47686-2.73873,.62706-5.23631,1.56692-7.49179,2.81959-2.25596,1.25388-4.05483,2.96316-5.39756,5.12906-1.34273,2.16663-2.01386,4.96782-2.01386,8.40503,0,3.93886,.91275,7.27704,2.73873,10.01625,1.82598,2.73897,4.27805,4.81577,7.35767,6.22993,3.07913,1.41391,6.5161,2.12135,10.31187,2.12135,3.32947,0,6.18441-.48349,8.56579-1.45023,2.38089-.96674,4.3318-2.18333,5.85417-3.65196,1.52141-1.46766,2.63995-2.95372,3.35659-4.45769h.64449v8.21715h10.47263v-39.74253c0-4.51144-.77039-8.1542-2.30923-10.92924-1.53981-2.77432-3.5096-4.88719-5.90792-6.33742Zm-2.52374,35.3657c0,2.36298-.62706,4.6187-1.87973,6.76692-1.25412,2.14823-3.0709,3.89358-5.45131,5.23631-2.38138,1.34273-5.27263,2.0141-8.67377,2.0141-2.2918,0-4.33228-.34912-6.12243-1.04736-1.79063-.69824-3.19534-1.70928-4.21607-3.03434-1.02024-1.32433-1.53061-2.98907-1.53061-4.99469,0-2.18357,.58154-3.9207,1.7456-5.20968,1.16309-1.28874,2.7121-2.28235,4.64557-2.98059s4.02819-1.18996,6.28367-1.47686c.93066-.1075,2.1567-.2593,3.67907-.45662,1.52141-.19635,3.08785-.4295,4.69932-.698,1.61099-.26874,3.04233-.58154,4.29645-.93986,1.25267-.35759,2.09424-.76966,2.52422-1.23524v8.05591Zm72.5845-58.3788h-13.74884l-34.74784,54.99534v9.07615h37.75531v15.95081h10.74137v-15.95081h10.74137v-9.66714h-10.74137v-54.40436Zm-10.63387,54.40436h-26.04744v-.64449l25.40295-40.11828h.64449v40.76278Zm71.39865-14.98383h31.14963v8.91515c0,6.69574-1.4236,12.49593-4.26982,17.40079-2.84671,4.90559-6.74949,8.69192-11.70786,11.35874-4.95934,2.66779-10.66099,4.00132-17.10542,4.00132-7.19691,0-13.49898-1.66498-18.90477-4.99469-5.40676-3.32996-9.63203-8.06438-12.67436-14.20545-3.04378-6.1401-4.56519-13.41715-4.56519-21.83137,0-8.521,1.53061-15.85179,4.59182-21.99286,3.06122-6.1401,7.26809-10.8663,12.6211-14.17834,5.35204-3.31131,11.46624-4.96782,18.34066-4.96782,4.26013,0,8.24378,.62682,11.94949,1.87973,3.70571,1.25364,7.01726,3.05274,9.93563,5.39732,2.91789,2.34554,5.33461,5.12906,7.25017,8.35152,1.91508,3.22222,3.23069,6.76692,3.94733,10.63363h-11.54662c-.78782-2.47047-1.83518-4.68068-3.14159-6.63255-1.30738-1.95115-2.86511-3.62533-4.67269-5.02156-1.80855-1.39648-3.84903-2.46127-6.12243-3.19559-2.27436-.73335-4.77147-1.10087-7.49179-1.10087-4.61894,0-8.78126,1.17301-12.48697,3.51759-3.70571,2.34554-6.65119,5.80963-8.83453,10.39225-2.1843,4.58359-3.27621,10.22253-3.27621,16.91755,0,6.588,1.09191,12.16424,3.27621,16.72943,2.18333,4.56495,5.16417,8.03823,8.94202,10.41888,3.77689,2.38162,8.06414,3.57158,12.86272,3.57158,4.40395,0,8.27041-.91299,11.60037-2.73897,3.32996-1.82622,5.91615-4.42162,7.76053-7.78741,1.76327-3.2181,2.67372-6.99971,2.75071-11.33211h-20.17814v-9.50589Zm86.17693-16.3268c-4.17152-2.57797-9.03209-3.86671-14.5812-3.86671-5.55009,0-10.40145,1.28874-14.55457,3.86671-4.15361,2.57797-7.3843,6.20305-9.69401,10.8755-2.30923,4.67244-3.46408,10.14215-3.46408,16.40718,0,6.15875,1.15486,11.56526,3.46408,16.21931,2.30971,4.65477,5.5404,8.2709,9.69401,10.84862,4.15312,2.57797,9.00449,3.86695,14.55457,3.86695,5.54912,0,10.40968-1.28898,14.5812-3.86695,4.17055-2.57773,7.40221-6.19385,9.69401-10.84862,2.29083-4.65404,3.43697-10.06056,3.43697-16.21931,0-6.26503-1.14614-11.73474-3.43697-16.40718-2.2918-4.67244-5.52345-8.29753-9.69401-10.8755Zm.48325,37.9703c-1.19989,3.29461-3.05298,5.93455-5.5588,7.92178-2.5063,1.98698-5.67501,2.98059-9.50565,2.98059-3.8316,0-6.98191-.99361-9.45239-2.98059-2.47047-1.98722-4.30565-4.62717-5.50505-7.92178-1.19989-3.29364-1.79886-6.87442-1.79886-10.74113,0-3.9023,.59898-7.50051,1.79886-10.79512,1.1994-3.29364,3.03458-5.94279,5.50505-7.94841,2.47047-2.0049,5.62078-3.00747,9.45239-3.00747,3.83063,0,6.99935,1.00257,9.50565,3.00747,2.50582,2.00562,4.35891,4.66397,5.5588,7.97528,1.1994,3.31228,1.79935,6.90129,1.79935,10.76824,0,3.86671-.59994,7.44749-1.79935,10.74113Zm66.26451-37.9703c-4.17152-2.57797-9.03209-3.86671-14.5812-3.86671-5.55009,0-10.40145,1.28874-14.55457,3.86671-4.15361,2.57797-7.3843,6.20305-9.69401,10.8755-2.30923,4.67244-3.46408,10.14215-3.46408,16.40718,0,6.15875,1.15486,11.56526,3.46408,16.21931,2.30971,4.65477,5.5404,8.2709,9.69401,10.84862,4.15312,2.57797,9.00449,3.86695,14.55457,3.86695,5.54912,0,10.40968-1.28898,14.5812-3.86695,4.17055-2.57773,7.40221-6.19385,9.69401-10.84862,2.29083-4.65404,3.43697-10.06056,3.43697-16.21931,0-6.26503-1.14614-11.73474-3.43697-16.40718-2.2918-4.67244-5.52345-8.29753-9.69401-10.8755Zm.48325,37.9703c-1.19989,3.29461-3.05298,5.93455-5.5588,7.92178-2.5063,1.98698-5.67501,2.98059-9.50565,2.98059-3.8316,0-6.98191-.99361-9.45239-2.98059-2.47047-1.98722-4.30565-4.62717-5.50505-7.92178-1.19989-3.29364-1.79886-6.87442-1.79886-10.74113,0-3.9023,.59898-7.50051,1.79886-10.79512,1.1994-3.29364,3.03458-5.94279,5.50505-7.94841,2.47047-2.0049,5.62078-3.00747,9.45239-3.00747,3.83063,0,6.99935,1.00257,9.50565,3.00747,2.50582,2.00562,4.35891,4.66397,5.5588,7.97528,1.1994,3.31228,1.79935,6.90129,1.79935,10.76824,0,3.86671-.59994,7.44749-1.79935,10.74113Zm67.31187-31.36438h-.69824c-.64449-1.18149-1.60276-2.5862-2.87334-4.21607-1.27155-1.62866-3.05298-3.07865-5.34381-4.3502-2.2918-1.27034-5.33558-1.90636-9.1299-1.90636-4.90608,0-9.25628,1.23524-13.0506,3.70571-3.79577,2.47047-6.78581,6.01493-8.96914,10.63363-2.1843,4.61894-3.27621,10.15062-3.27621,16.5953,0,6.40957,1.07448,11.94126,3.22246,16.5953,2.14847,4.65477,5.12882,8.23531,8.94202,10.74113,3.8132,2.50655,8.17163,3.75945,13.07771,3.75945,3.75945,0,6.78435-.63602,9.07615-1.9066,2.29083-1.27034,4.08194-2.73897,5.37093-4.40395,1.2885-1.66474,2.27291-3.08809,2.95372-4.26958h1.02024v9.34489h10.41888v-80.0223h-10.74088v29.69964Zm-1.69185,31.74037c-1.23524,3.29437-3.06122,5.86313-5.47794,7.70679-2.41672,1.84438-5.38013,2.76584-8.88876,2.76584-3.54446,0-6.5437-.97497-8.99577-2.92685-2.45256-1.95115-4.28773-4.57342-5.50457-7.86803-1.2178-3.29364-1.82598-6.98191-1.82598-11.06361,0-4.04538,.59898-7.68839,1.79886-10.929,1.1994-3.24013,3.01618-5.80866,5.45131-7.70703,2.43464-1.89716,5.45954-2.84622,9.07615-2.84622,3.54495,0,6.5161,.90452,8.91539,2.7121,2.39832,1.80831,4.21607,4.31485,5.45131,7.51891,1.23524,3.20454,1.85261,6.9548,1.85261,11.25125,0,4.29669-.61738,8.09222-1.85261,11.38586Zm44.66023,11.76161c0,2.11288-.73456,3.90302-2.20222,5.37068-1.46863,1.46766-3.25829,2.20197-5.37044,2.20197-2.11312,0-3.91247-.73431-5.39756-2.20197-1.48606-1.46766-2.22885-3.25781-2.22885-5.37068,0-2.11215,.74279-3.90206,2.22885-5.37068,1.48509-1.46766,3.28444-2.20197,5.39756-2.20197,2.11215,0,3.90181,.73431,5.37044,2.20197,1.46766,1.46863,2.20222,3.25853,2.20222,5.37068Z"/>
</svg>