<?xml version="1.0" encoding="UTF-8"?>
<svg id="Invertiert" xmlns="http://www.w3.org/2000/svg" xmlns:xlink="http://www.w3.org/1999/xlink" viewBox="0 0 1880 460">
  <defs>
    <style>
      .cls-1 {
        fill: #7aadc0;
      }

      .cls-2 {
        fill: #a9cf9e;
      }

      .cls-3 {
        fill: #88b6b6;
      }

      .cls-4 {
        fill: #9ac4a9;
      }

      .cls-5 {
        fill: #fff;
      }

      .cls-6 {
        fill: #5c97d6;
      }

      .cls-7 {
        fill: #bcdd90;
      }

      .cls-8 {
        fill: #99c3aa;
      }

      .cls-9 {
        fill: #afd399;
      }

      .cls-10 {
        fill: #4b8ae2;
      }

      .cls-11 {
        fill: #93bfae;
      }

      .cls-12 {
        fill: #5f99d3;
      }

      .cls-13 {
        fill: #b0d499;
      }

      .cls-14 {
        fill: #679fce;
      }

      .cls-15 {
        fill: #5e98d4;
      }

      .cls-16 {
        fill: #89b7b5;
      }

      .cls-17 {
        fill: #4e8ce0;
      }

      .cls-18 {
        fill: #aad09d;
      }

      .cls-19 {
        fill: #a8ce9f;
      }

      .cls-20 {
        fill: #5894d9;
      }

      .cls-21 {
        fill: #b3d696;
      }

      .cls-22 {
        fill: #b4d796;
      }

      .cls-23 {
        fill: #74a8c4;
      }

      .cls-24 {
        fill: #6ea4c8;
      }

      .cls-25 {
        fill: #6fa5c8;
      }

      .cls-26 {
        fill: #91bdaf;
      }

      .cls-27 {
        fill: #c2e28b;
      }

      .cls-28 {
        fill: #639cd0;
      }

      .cls-29 {
        fill: #689fcd;
      }

      .cls-30 {
        fill: #2467b8;
      }

      .cls-31 {
        fill: #609ad3;
      }

      .cls-32 {
        fill: #a0c8a4;
      }

      .cls-33 {
        fill: #b8da93;
      }

      .cls-34 {
        fill: #92beaf;
      }

      .cls-35 {
        fill: #bbdc91;
      }

      .cls-36 {
        fill: #c3e28b;
      }

      .cls-37 {
        fill: #c0e08d;
      }

      .cls-38 {
        fill: #96c1ac;
      }

      .cls-39 {
        fill: #87b6b7;
      }

      .cls-40 {
        fill: #629bd1;
      }

      .cls-41 {
        fill: #4988e4;
      }

      .cls-42 {
        fill: #79acc0;
      }

      .cls-43 {
        fill: #98c2aa;
      }

      .cls-44 {
        fill: #7dafbd;
      }

      .cls-45 {
        fill: #79bbaa;
      }

      .cls-46 {
        fill: #a6cda0;
      }

      .cls-47 {
        fill: #7eb0bd;
      }

      .cls-48 {
        fill: #8cb9b3;
      }

      .cls-49 {
        fill: #4a89e3;
      }

      .cls-50 {
        fill: #8dbab2;
      }

      .cls-51 {
        fill: #7fb1bc;
      }

      .cls-52 {
        fill: #9dc6a7;
      }

      .cls-53 {
        fill: #add29b;
      }

      .cls-54 {
        fill: #90bcb0;
      }

      .cls-55 {
        fill: #a3cba2;
      }

      .cls-56 {
        fill: #80b1bb;
      }

      .cls-57 {
        fill: #71a6c6;
      }

      .cls-58 {
        fill: #508ede;
      }

      .cls-59 {
        fill: #669ece;
      }

      .cls-60 {
        fill: #5793d9;
      }

      .cls-61 {
        fill: #b6d994;
      }

      .cls-62 {
        fill: #acd19c;
      }

      .cls-63 {
        fill: #a5cca1;
      }

      .cls-64 {
        fill: #badc91;
      }

      .cls-65 {
        fill: #75a9c3;
      }

      .cls-66 {
        fill: #5b96d6;
      }

      .cls-67 {
        fill: #bfdf8e;
      }

      .cls-68 {
        fill: #94bfad;
      }

      .cls-69 {
        fill: #c1e18c;
      }

      .cls-70 {
        fill: #5994d8;
      }

      .cls-71 {
        fill: #8fbcb1;
      }

      .cls-72 {
        fill: #b9db92;
      }

      .cls-73 {
        fill: #6ca2ca;
      }

      .cls-74 {
        fill: #a2caa3;
      }

      .cls-75 {
        fill: #77abc2;
      }

      .cls-76 {
        fill: #7baebf;
      }

      .cls-77 {
        fill: #76aac3;
      }

      .cls-78 {
        fill: #bedf8e;
      }

      .cls-79 {
        fill: #5d97d5;
      }

      .cls-80 {
        fill: #4f8ddf;
      }

      .cls-81 {
        fill: #4c8be1;
      }

      .cls-82 {
        fill: #69a0cc;
      }

      .cls-83 {
        fill: #c4e38a;
      }

      .cls-84 {
        fill: #72a7c5;
      }

      .cls-85 {
        clip-path: url(#clippath);
      }

      .cls-86 {
        fill: #78abc1;
      }

      .cls-87 {
        fill: #8ebbb2;
      }

      .cls-88 {
        fill: #9fc8a5;
      }

      .cls-89 {
        fill: #518ede;
      }

      .cls-90 {
        fill: #4787e5;
      }

      .cls-91 {
        fill: none;
      }

      .cls-92 {
        fill: #5591db;
      }

      .cls-93 {
        fill: #5a95d7;
      }

      .cls-94 {
        fill: #5692da;
      }

      .cls-95 {
        fill: #9ec7a6;
      }

      .cls-96 {
        fill: #659dcf;
      }

      .cls-97 {
        fill: #5390dc;
      }

      .cls-98 {
        fill: #6aa1cb;
      }

      .cls-99 {
        fill: #8bb9b4;
      }

      .cls-100 {
        fill: #95c0ac;
      }

      .cls-101 {
        fill: #a7cd9f;
      }

      .cls-102 {
        fill: #bdde8f;
      }

      .cls-103 {
        fill: #b7d994;
      }

      .cls-104 {
        fill: #abd09c;
      }

      .cls-105 {
        fill: #84b4b8;
      }

      .cls-106 {
        fill: #aed39a;
      }

      .cls-107 {
        fill: #b1d598;
      }

      .cls-108 {
        fill: #97c2ab;
      }

      .cls-109 {
        fill: #5491db;
      }

      .cls-110 {
        fill: #528fdd;
      }

      .cls-111 {
        fill: #9bc5a8;
      }

      .cls-112 {
        fill: #86b5b8;
      }

      .cls-113 {
        fill: #a1c9a4;
      }

      .cls-114 {
        fill: #4d8be1;
      }

      .cls-115 {
        fill: #4888e4;
      }

      .cls-116 {
        fill: #619ad2;
      }

      .cls-117 {
        fill: #83b4b9;
      }

      .cls-118 {
        fill: #b5d895;
      }

      .cls-119 {
        fill: #73a8c5;
      }

      .cls-120 {
        fill: #89cc96;
      }

      .cls-121 {
        fill: #8ab8b5;
      }

      .cls-122 {
        fill: #81b2ba;
      }

      .cls-123 {
        fill: #b2d697;
      }

      .cls-124 {
        fill: #6da3c9;
      }

      .cls-125 {
        fill: #82b3ba;
      }

      .cls-126 {
        fill: #9cc5a7;
      }

      .cls-127 {
        fill: #70a5c7;
      }

      .cls-128 {
        fill: #649dd0;
      }

      .cls-129 {
        fill: #6ba2cb;
      }

      .cls-130 {
        fill: #a7d890;
      }

      .cls-131 {
        fill: #68aabe;
      }

      .cls-132 {
        fill: #7caebe;
      }

      .cls-133 {
        fill: #a4cba1;
      }
    </style>
    <clipPath id="clippath">
      <path class="cls-91" d="M579.77181,327.17772c-8.34805-4.77731-18.39925-7.16652-30.15505-7.16652h-39.61676v119.97663h38.24756c12.18486,0,22.57219-2.4157,31.16199-7.24674,8.58762-4.8314,15.12363-11.74237,19.60656-20.73437,4.48148-8.99054,6.72331-19.74014,6.72331-32.24878,0-12.40011-2.24183-23.06912-6.72331-32.00703-4.48293-8.93791-10.89769-15.7948-19.24429-20.5732Zm4.91198,77.13942c-3.0876,6.7636-7.73024,11.93076-13.93084,15.50005-6.19987,3.57074-14.02449,5.35483-23.47168,5.35483h-20.37174v-90.34465h21.57977c9.01813,0,16.54727,1.77139,22.58598,5.31418,6.03943,3.54315,10.58843,8.65623,13.64843,15.33924,3.06001,6.68338,4.58965,14.77588,4.58965,24.27715,0,9.6098-1.54343,17.79523-4.62958,24.5592Zm99.18128-49.80263c-3.59651-2.17395-7.36725-3.66366-11.31295-4.46877-3.9457-.80511-7.58287-1.20767-10.91076-1.20767-4.93957,0-9.82324,.69803-14.65464,2.09336-4.8314,1.39642-9.1793,3.67745-13.04442,6.84418-3.86512,3.16818-6.89827,7.48849-9.09871,12.9642l15.29859,4.42848c.91256-2.09336,2.29482-4.10651,4.1468-6.03907,1.85198-1.93256,4.24045-3.52899,7.16688-4.79111,2.92498-1.26067,6.42783-1.89227,10.50784-1.89227,4.02629,0,7.36798,.6581,10.02507,1.97285,2.65709,1.3162,4.67023,3.20847,6.03871,5.6768,1.3692,2.46979,2.0538,5.47535,2.0538,9.01849v.48314c0,2.14745-.81963,3.67745-2.45599,4.58965-1.63854,.91328-4.12067,1.56993-7.44856,1.97249-3.32862,.40292-7.67724,.92635-13.04442,1.5703-4.24118,.53723-8.41411,1.27591-12.52099,2.21424-4.10615,.94014-7.85075,2.34927-11.23237,4.22738-3.38234,1.87993-6.07936,4.44264-8.0925,7.68995-2.01314,3.2484-3.01935,7.4482-3.01935,12.60157,0,5.90549,1.36847,10.9104,4.10615,15.01727,2.73767,4.10651,6.41404,7.22024,11.03127,9.34047,4.61651,2.11986,9.76952,3.18052,15.46048,3.18052,4.99184,0,9.27222-.72489,12.8426-2.17431,3.56965-1.44942,6.49462-3.27345,8.7771-5.47535,2.28103-2.20045,3.95805-4.42848,5.0325-6.68338h.96628v12.31989h15.70151v-59.58558c0-6.76396-1.15504-12.22551-3.4622-16.38611-2.30862-4.15951-5.26191-7.32732-8.85769-9.50163Zm-3.78381,53.02344c0,3.54278-.94014,6.92477-2.81826,10.14558-1.88029,3.22081-4.60417,5.83761-8.17309,7.85075-3.57037,2.01314-7.9052,3.01972-13.00449,3.01972-3.43607,0-6.49535-.52343-9.1793-1.5703-2.68468-1.04686-4.79075-2.56271-6.32111-4.54936-1.52964-1.98556-2.29482-4.48148-2.29482-7.48849,0-3.27381,.8719-5.87826,2.61716-7.81082,1.74381-1.9322,4.06622-3.42191,6.96506-4.46877,2.89884-1.04686,6.03943-1.7841,9.42105-2.21424,1.39533-.16117,3.23352-.38876,5.516-.6846,2.28103-.29439,4.62958-.64394,7.04564-1.0465,2.41534-.40292,4.56134-.8719,6.44163-1.40913,1.87811-.53614,3.13987-1.15395,3.78454-1.85198v12.07814Zm77.40477,18.68093l3.05928,13.20522c-1.7184,.59022-3.58271,1.01928-5.59586,1.28825-2.01314,.26825-4.01322,.40292-5.99878,.40292-7.99958,0-14.19945-2.06614-18.60035-6.20024-4.40235-4.13301-6.60279-9.95682-6.60279-17.47326v-54.11023h-13.36675v-13.36639h13.36675v-21.4186h16.10443v21.4186h18.19743v13.36639h-18.19743v52.82198c0,3.81212,.77753,6.60279,2.33475,8.37419,1.5565,1.77139,4.18746,2.65709,7.89141,2.65709,.91183,0,2.093-.10672,3.54278-.32197,1.44906-.2138,2.73767-.42905,3.86512-.64394Zm76.46971-71.70437c-3.59651-2.17395-7.36725-3.66366-11.31295-4.46877s-7.58287-1.20767-10.91076-1.20767c-4.93957,0-9.82324,.69803-14.65464,2.09336-4.8314,1.39642-9.1793,3.67745-13.04442,6.84418-3.86512,3.16818-6.89827,7.48849-9.09871,12.9642l15.29859,4.42848c.91256-2.09336,2.29482-4.10651,4.1468-6.03907,1.85198-1.93256,4.24045-3.52899,7.16688-4.79111,2.92498-1.26067,6.42783-1.89227,10.50784-1.89227,4.02629,0,7.36798,.6581,10.02507,1.97285,2.65709,1.3162,4.67023,3.20847,6.03871,5.6768,1.3692,2.46979,2.0538,5.47535,2.0538,9.01849v.48314c0,2.14745-.81963,3.67745-2.45599,4.58965-1.63854,.91328-4.12067,1.56993-7.44856,1.97249-3.32862,.40292-7.67724,.92635-13.04442,1.5703-4.24118,.53723-8.41411,1.27591-12.52099,2.21424-4.10615,.94014-7.85075,2.34927-11.23237,4.22738-3.38234,1.87993-6.07936,4.44264-8.0925,7.68995-2.01314,3.2484-3.01935,7.4482-3.01935,12.60157,0,5.90549,1.36847,10.9104,4.10615,15.01727,2.73767,4.10651,6.41404,7.22024,11.03127,9.34047,4.61651,2.11986,9.76952,3.18052,15.46048,3.18052,4.99184,0,9.27222-.72489,12.8426-2.17431,3.56965-1.44942,6.49462-3.27345,8.7771-5.47535,2.28103-2.20045,3.95805-4.42848,5.0325-6.68338h.96628v12.31989h15.70151v-59.58558c0-6.76396-1.15504-12.22551-3.4622-16.38611-2.30862-4.15951-5.26191-7.32732-8.85769-9.50163Zm-3.78381,53.02344c0,3.54278-.94014,6.92477-2.81826,10.14558-1.88029,3.22081-4.60417,5.83761-8.17309,7.85075-3.57037,2.01314-7.9052,3.01972-13.00449,3.01972-3.43607,0-6.49535-.52343-9.1793-1.5703-2.68468-1.04686-4.79075-2.56271-6.32111-4.54936-1.52964-1.98556-2.29482-4.48148-2.29482-7.48849,0-3.27381,.8719-5.87826,2.61716-7.81082,1.74381-1.9322,4.06622-3.42191,6.96506-4.46877s6.03943-1.7841,9.42105-2.21424c1.39533-.16117,3.23352-.38876,5.516-.6846,2.28103-.29439,4.62958-.64394,7.04564-1.0465,2.41534-.40292,4.56134-.8719,6.44163-1.40913,1.87811-.53614,3.13987-1.15395,3.78454-1.85198v12.07814Zm108.82521-87.52675h-20.61349l-52.09709,82.45396v13.60778h56.60615v23.91489h16.10443v-23.91489h16.10443v-14.49384h-16.10443v-81.56791Zm-15.94326,81.56791h-39.05267v-.96628l38.08639-60.14894h.96628v61.11522Zm107.04728-22.4651h46.70233v13.36639c0,10.03886-2.13438,18.73502-6.4017,26.08884-4.26804,7.35491-10.11944,13.03171-17.55348,17.03005-7.43549,3.99979-15.98391,5.99914-25.64599,5.99914-10.79025,0-20.23889-2.49628-28.34373-7.48849-8.1063-4.99257-14.4412-12.09084-19.00254-21.29809-4.56351-9.2058-6.84454-20.11619-6.84454-32.73156,0-12.77544,2.29482-23.76642,6.88447-32.97367,4.58965-9.2058,10.89697-16.29173,18.92268-21.25744,8.02426-4.96462,17.19122-7.4482,27.49796-7.4482,6.38718,0,12.35982,.93978,17.91575,2.81826,5.55593,1.87956,10.52091,4.57694,14.89639,8.09214,4.37476,3.51665,7.99813,7.68995,10.87011,12.52135,2.87125,4.83104,4.84374,10.14558,5.91819,15.9429h-17.31173c-1.18117-3.70395-2.75147-7.01769-4.71016-9.94412-1.96015-2.92534-4.29563-5.43542-7.00571-7.52878-2.71154-2.09373-5.77082-3.69016-9.1793-4.79111-3.40993-1.0995-7.15381-1.65052-11.23237-1.65052-6.92513,0-13.16566,1.75869-18.72159,5.27389-5.55593,3.51665-9.97207,8.71031-13.24551,15.58099-3.2749,6.87213-4.91198,15.32654-4.91198,25.36431,0,9.87733,1.63709,18.23772,4.91198,25.08226,3.27345,6.84418,7.74258,12.05164,13.40668,15.62092,5.66265,3.57074,12.09048,5.35483,19.28495,5.35483,6.60279,0,12.39975-1.36884,17.39232-4.10651,4.99257-2.73804,8.87003-6.62929,11.63529-11.67558,2.64366-4.82487,4.00868-10.49459,4.12411-16.99012h-30.25288v-14.25209Zm129.20421-24.47861c-6.25432-3.86512-13.54171-5.79732-21.86145-5.79732-8.32119,0-15.59479,1.9322-21.82152,5.79732-6.22746,3.86512-11.0712,9.30017-14.53413,16.30552-3.4622,7.00535-5.19366,15.20603-5.19366,24.59912,0,9.23375,1.73146,17.33968,5.19366,24.31744,3.46293,6.97885,8.30667,12.40047,14.53413,16.26523,6.22673,3.86512,13.50033,5.79768,21.82152,5.79768,8.31974,0,15.60713-1.93256,21.86145-5.79768,6.25287-3.86476,11.09806-9.28638,14.53413-16.26523,3.43461-6.97776,5.15301-15.0837,5.15301-24.31744,0-9.3931-1.7184-17.59378-5.15301-24.59912-3.43607-7.00535-8.28126-12.4404-14.53413-16.30552Zm.72453,56.92849c-1.79898,4.93957-4.57731,8.89762-8.33426,11.87704-3.75768,2.97906-8.50849,4.46877-14.25172,4.46877-5.74468,0-10.46791-1.48971-14.17187-4.46877-3.70395-2.97942-6.45542-6.93747-8.25367-11.87704-1.79898-4.93812-2.69702-10.30675-2.69702-16.10406,0-5.85068,.89804-11.24544,2.69702-16.18501,1.79825-4.93812,4.54972-8.90996,8.25367-11.91697,3.70395-3.00592,8.42718-4.50907,14.17187-4.50907,5.74323,0,10.49405,1.50314,14.25172,4.50907,3.75695,3.00701,6.53528,6.99264,8.33426,11.95726,1.79825,4.96607,2.69774,10.34704,2.69774,16.14472,0,5.79732-.89949,11.16594-2.69774,16.10406Zm99.34971-56.92849c-6.25432-3.86512-13.54171-5.79732-21.86145-5.79732-8.32119,0-15.59479,1.9322-21.82152,5.79732-6.22746,3.86512-11.0712,9.30017-14.53413,16.30552-3.4622,7.00535-5.19366,15.20603-5.19366,24.59912,0,9.23375,1.73146,17.33968,5.19366,24.31744,3.46293,6.97885,8.30667,12.40047,14.53413,16.26523,6.22673,3.86512,13.50033,5.79768,21.82152,5.79768,8.31974,0,15.60713-1.93256,21.86145-5.79768,6.25287-3.86476,11.09806-9.28638,14.53413-16.26523,3.43461-6.97776,5.15301-15.0837,5.15301-24.31744,0-9.3931-1.7184-17.59378-5.15301-24.59912-3.43607-7.00535-8.28126-12.4404-14.53413-16.30552Zm.72453,56.92849c-1.79898,4.93957-4.57731,8.89762-8.33426,11.87704-3.75768,2.97906-8.50849,4.46877-14.25172,4.46877-5.74468,0-10.46791-1.48971-14.17187-4.46877-3.70395-2.97942-6.45542-6.93747-8.25367-11.87704-1.79898-4.93812-2.69702-10.30675-2.69702-16.10406,0-5.85068,.89804-11.24544,2.69702-16.18501,1.79825-4.93812,4.54972-8.90996,8.25367-11.91697,3.70395-3.00592,8.42718-4.50907,14.17187-4.50907,5.74323,0,10.49405,1.50314,14.25172,4.50907,3.75695,3.00701,6.53528,6.99264,8.33426,11.95726,1.79825,4.96607,2.69774,10.34704,2.69774,16.14472,0,5.79732-.89949,11.16594-2.69774,16.10406Zm100.92001-47.0243h-1.04686c-.96628-1.77139-2.403-3.87746-4.30797-6.32111-1.90642-2.44184-4.57731-4.61578-8.01192-6.52221-3.43607-1.90461-7.99958-2.85819-13.68836-2.85819-7.35563,0-13.87784,1.85198-19.56663,5.55593-5.69096,3.70395-10.17389,9.01813-13.44734,15.9429-3.2749,6.92513-4.91198,15.21873-4.91198,24.88117,0,9.6098,1.61095,17.90341,4.8314,24.88117,3.22118,6.97885,7.68959,12.34711,13.40668,16.10406,5.7171,3.75804,12.25165,5.63651,19.60728,5.63651,5.63651,0,10.17171-.95358,13.60778-2.85855,3.43461-1.90461,6.12002-4.10651,8.05258-6.60279,1.93183-2.49592,3.40775-4.62994,4.42848-6.40133h1.52964v14.0107h15.62092v-119.97663h-16.1037v44.52838Zm-2.53658,47.58802c-1.85198,4.93921-4.58965,8.79054-8.21302,11.55471-3.62337,2.76526-8.06637,4.1468-13.32682,4.1468-5.31418,0-9.8109-1.46176-13.48727-4.38819-3.67709-2.92534-6.42856-6.85689-8.25295-11.79646-1.82584-4.93812-2.73767-10.46791-2.73767-16.58757,0-6.0652,.89804-11.52712,2.69702-16.38574,1.79825-4.8579,4.52213-8.70886,8.17309-11.55507,3.65023-2.84439,8.18543-4.26731,13.60778-4.26731,5.3149,0,9.76952,1.35613,13.36675,4.06622,3.59578,2.71117,6.32111,6.46921,8.17309,11.27303,1.85198,4.80454,2.7776,10.42726,2.7776,16.86888,0,6.44199-.92563,12.13259-2.7776,17.07071Zm66.95864,17.63407c0,3.16782-1.10131,5.85177-3.30176,8.05221-2.2019,2.20045-4.88512,3.3014-8.05185,3.3014-3.16818,0-5.86592-1.10095-8.0925-3.3014-2.22803-2.20045-3.34169-4.8844-3.34169-8.05221,0-3.16673,1.11365-5.85031,3.34169-8.05221,2.22658-2.20045,4.92433-3.3014,8.0925-3.3014,3.16673,0,5.84995,1.10095,8.05185,3.3014,2.20045,2.2019,3.30176,4.88549,3.30176,8.05221Z"/>
    </clipPath>
  </defs>
  <g>
    <polygon class="cls-90" points="390 325.78998 390 434.67999 275.26001 392.95996 390 325.78998"/>
    <polygon class="cls-30" points="375.37 440 194.90002 440 264.04999 399.51996 375.37 440"/>
    <polygon class="cls-30" points="251.84003 395.07996 198.91998 426.06 223.09003 384.63 251.84003 395.07996"/>
    <polygon class="cls-90" points="380.09998 320 263.04999 388.51996 228.21002 375.84998 260.78998 320 380.09998 320"/>
    <polygon class="cls-90" points="213.53998 381.14996 181.28998 436.44 68.91998 328.57001 213.53998 381.14996"/>
    <polygon class="cls-131" points="251.34003 316.33997 218.65997 372.37 73.34998 319.53998 198.78998 263.78998 251.34003 316.33997"/>
    <polygon class="cls-45" points="195 205.46997 195 254.52997 60 314.52997 60 145.46997 195 205.46997"/>
    <polygon class="cls-83" points="375.37 20 264.04999 60.47998 194.90002 20 375.37 20"/>
    <polygon class="cls-130" points="390 25.32001 390 134.20996 275.26001 67.03998 390 25.32001"/>
    <polygon class="cls-83" points="251.84003 64.91998 223.09003 75.37 198.91998 33.94 251.84003 64.91998"/>
    <polygon class="cls-130" points="380.09998 140 260.78998 140 228.21002 84.14996 263.04999 71.47998 380.09998 140"/>
    <polygon class="cls-120" points="251.34003 143.65997 198.78998 196.20996 73.34998 140.45996 218.65997 87.63 251.34003 143.65997"/>
    <polygon class="cls-130" points="213.53998 78.84998 68.91998 131.44 181.28998 23.56 213.53998 78.84998"/>
  </g>
  <g>
    <path class="cls-5" d="M644.9771,178.89934c-2.93112,4.75396-6.57972,8.78754-10.94869,12.10073-4.37092,3.31319-9.26974,5.83503-14.69451,7.56356-5.42671,1.72854-11.26076,2.5928-17.50313,2.5928-11.33368,0-21.34519-2.78432-30.03648-8.35492-8.69324-5.56962-15.51114-13.80593-20.45662-24.70699-4.94743-10.89911-7.41871-24.32103-7.41871-40.26479,0-15.74932,2.42365-29.075,7.27483-39.97605,4.84826-10.89911,11.6438-19.23264,20.38468-24.99476,8.73796-5.76211,18.87196-8.64366,30.39619-8.64366,6.24237,0,12.1017,.86427,17.57605,2.5928s10.37219,4.25037,14.69353,7.56356c4.32231,3.31319,7.92327,7.34677,10.80481,12.10073,2.88154,4.75396,4.84826,10.20595,5.906,16.3511h41.63362c-1.63424-11.90726-5.067-22.52056-10.30025-31.83793-5.23519-9.31349-11.8849-17.2144-19.95206-23.69738-8.06715-6.48298-17.28731-11.40319-27.6595-14.76596-10.37219-3.36083-21.56199-5.04221-33.56647-5.04221-18.72711,0-35.56041,4.34662-50.4931,13.03742-14.93463,8.69324-26.72329,21.27325-35.36695,37.74393-8.64268,16.47165-12.965,36.32746-12.965,59.5684,0,23.14664,4.29704,42.93051,12.89306,59.35258,8.59407,16.42304,20.3351,28.98167,35.22306,37.67199,14.88505,8.69324,31.78738,13.03791,50.70893,13.03791,13.15749,0,25.04239-1.99491,35.65471-5.97891,10.61135-3.98399,19.85581-9.48362,27.73242-16.49498,7.87369-7.00942,14.2123-15.02894,19.01585-24.05757,4.80063-9.02669,7.87369-18.63086,9.21919-28.81251h-41.63265c-1.15301,6.1471-3.19458,11.59714-6.12279,16.3511Z"/>
    <path class="cls-5" d="M834.71462,82.30642c-11.62242-6.91415-25.40404-10.37219-41.34586-10.37219-15.94278,0-29.74775,3.45805-41.41683,10.37219-11.66908,6.91512-20.67244,16.63984-27.01106,29.17221-6.33862,12.53335-9.50792,27.10828-9.50792,43.72284,0,16.51929,3.16931,31.02227,9.50792,43.50604,6.33862,12.48571,15.34198,22.18515,27.01106,29.10027,11.66908,6.91512,25.47404,10.37219,41.41683,10.37219,15.94181,0,29.72344-3.45707,41.34586-10.37219,11.6195-6.91512,20.6005-16.61456,26.93912-29.10027,6.33862-12.48377,9.50792-26.98675,9.50792-43.50604,0-16.61456-3.16931-31.18949-9.50792-43.72284-6.33862-12.53238-15.31962-22.2571-26.93912-29.17221Zm-8.57171,98.68213c-2.73766,7.68411-6.84318,13.78163-12.31752,18.29546-5.47435,4.51481-12.29419,6.77026-20.45662,6.77026-8.26062,0-15.10379-2.25546-20.52856-6.77026-5.42671-4.51383-9.50792-10.61135-12.24461-18.29546-2.73766-7.68314-4.10552-16.3268-4.10552-25.93097,0-9.69944,1.36786-18.36837,4.10552-26.00291,2.73669-7.6355,6.8179-13.68635,12.24461-18.15158,5.42477-4.4662,12.26794-6.69929,20.52856-6.69929,8.16243,0,14.98227,2.2331,20.45662,6.69929,5.47435,4.46522,9.57986,10.54135,12.31752,18.22352,2.73669,7.68411,4.10552,16.32777,4.10552,25.93097,0,9.60417-1.36883,18.24782-4.10552,25.93097Z"/>
    <path class="cls-5" d="M979.71337,71.79035c-9.12586,0-17.21537,2.54614-24.27437,7.6355-7.059,5.09131-12.07837,12.43807-15.05421,22.04127h-1.72854v-27.51562h-39.04082V235.01067h40.33673v-93.20682c0-6.8179,1.51271-12.79681,4.53814-17.93575,3.02543-5.13603,7.22524-9.14724,12.60529-12.02879,5.37713-2.88154,11.47562-4.32231,18.29546-4.32231,3.26458,0,6.67402,.19444,10.22831,.5765,3.55235,.38498,6.19473,.86427,7.92327,1.44077v-36.44704c-1.922-.38304-4.1551-.69608-6.69832-.93621-2.54614-.23916-4.92312-.36068-7.13094-.36068Z"/>
    <path class="cls-5" d="M1095.7635,71.79035c-9.12586,0-17.21537,2.54614-24.27437,7.6355-7.059,5.09131-12.07837,12.43807-15.05421,22.04127h-1.72854v-27.51562h-39.04082V235.01067h40.33673v-93.20682c0-6.8179,1.51271-12.79681,4.53814-17.93575,3.02543-5.13603,7.22524-9.14724,12.60529-12.02879,5.37713-2.88154,11.47562-4.32231,18.29546-4.32231,3.26458,0,6.67402,.19444,10.22831,.5765,3.55235,.38498,6.19473,.86427,7.92327,1.44077v-36.44704c-1.922-.38304-4.1551-.69608-6.69832-.93621-2.54614-.23916-4.92312-.36068-7.13094-.36068Z"/>
    <path class="cls-5" d="M1250.41114,91.7424c-6.86748-6.67402-14.79075-11.6438-23.76981-14.90936-8.981-3.26458-18.6085-4.89882-28.88445-4.89882-15.4635,0-28.93306,3.50763-40.40867,10.51705-11.47756,7.01136-20.36134,16.78275-26.65135,29.3161-6.29098,12.53335-9.43501,27.06064-9.43501,43.57798,0,16.90427,3.16931,31.5492,9.50792,43.93866,6.33862,12.38849,15.41392,21.96933,27.22688,28.73959,11.81296,6.77124,25.83375,10.15637,42.06527,10.15637,12.29322,0,23.19428-1.80048,32.7022-5.40241,9.50792-3.60096,17.43119-8.69032,23.76981-15.27004,6.33862-6.57777,10.80481-14.23758,13.39762-22.97748l-36.73578-7.20288c-1.63424,4.32134-3.98594,7.97285-7.059,10.94772-3.07403,2.97876-6.77026,5.21089-11.09258,6.69929-4.32134,1.49035-9.0753,2.2331-14.26189,2.2331-7.87563,0-14.79075-1.67896-20.74438-5.0427-5.95558-3.35986-10.58802-8.37728-13.90218-15.05421-2.99529-6.03372-4.62272-13.3165-4.91024-21.82448h111.15497v-11.81296c0-14.02176-1.94436-26.14679-5.83405-36.3751-3.88969-10.22831-9.26974-18.6785-16.13528-25.35543Zm-72.31758,16.63984c5.52101-3.64956,12.17267-5.47435,19.95206-5.47435,7.87369,0,14.4534,1.80048,19.73623,5.40143,5.28088,3.60193,9.26682,8.66893,11.95685,15.19907,1.9045,4.62825,3.12118,9.82194,3.67679,15.5578h-72.02203c.50043-5.71356,1.85784-10.99931,4.09482-15.84654,2.88057-6.2414,7.08136-11.18688,12.60529-14.83742Z"/>
    <rect class="cls-5" x="1301.16965" y="20" width="40.33673" height="215.01067"/>
    <path class="cls-5" d="M1439.79576,20l-74.19097,215.01067h45.37846l16.79976-51.57319h78.21531l17.35245,51.57319h45.52332l-75.77659-215.01067h-53.30173Zm-1.36032,130.73528l7.55506-23.19331c3.64859-12.196,7.46634-25.95333,11.45228-41.27294,2.71967-10.4572,5.59052-21.75217,8.60307-33.84403,3.13407,11.99154,6.12765,23.19088,8.97298,33.55529,4.17746,15.22337,8.2334,29.07791,12.17267,41.56168l7.80369,23.19331h-56.55975Z"/>
    <rect class="cls-5" x="1593.17081" y="73.9515" width="40.33673" height="161.05917"/>
    <path class="cls-5" d="M1615.38925,9.37598c-6.27246,0-11.64941,2.07568-16.13574,6.22266-4.48535,4.14893-6.72852,9.21387-6.72852,15.19434,0,5.88574,2.24316,10.92578,6.72852,15.12207,4.48633,4.19727,9.86328,6.29492,16.13574,6.29492,6.36719,0,11.79395-2.09766,16.2793-6.29492,4.48633-4.19629,6.72949-9.23633,6.72949-15.12207,0-5.98047-2.24316-11.04541-6.72949-15.19434-4.48535-4.14697-9.91211-6.22266-16.2793-6.22266Z"/>
    <path class="cls-5" d="M1774.66327,20V100.89062h-1.44077c-1.922-4.03358-4.70632-8.30631-8.35492-12.82111-3.65151-4.51286-8.52408-8.33061-14.62256-11.45326-6.09946-3.11973-13.8069-4.68202-23.12136-4.68202-12.10073,0-23.14664,3.12264-33.13385,9.36404-9.99012,6.24431-17.93575,15.51114-23.84175,27.80338-5.90697,12.29516-8.85948,27.51562-8.85948,45.6672,0,17.76951,2.88057,32.82372,8.64268,45.16361,5.76308,12.34183,13.63677,21.75253,23.62593,28.23503,9.98818,6.48347,21.22464,9.72472,33.71035,9.72472,9.12294,0,16.71081-1.53799,22.76166-4.61008,6.05085-3.07306,10.92342-6.7936,14.62159-11.16452,3.69623-4.36898,6.55541-8.61935,8.57171-12.74917h2.16116v25.64223h39.61635V20h-40.33673Zm-3.38513,161.0605c-2.83391,7.54023-6.9647,13.42192-12.38947,17.64702-5.42671,4.22704-12.02879,6.33862-19.80817,6.33862-7.87563,0-14.52729-2.16116-19.95206-6.4825-5.42768-4.32231-9.5332-10.30025-12.31752-17.93575-2.78627-7.6355-4.17746-16.30152-4.17746-26.00291,0-9.69944,1.36883-18.31782,4.10552-25.85902,2.73766-7.53829,6.8179-13.44428,12.24558-17.71896,5.42477-4.27273,12.12309-6.41056,20.09594-6.41056,7.77939,0,14.38146,2.06588,19.80817,6.19473,5.42477,4.12982,9.55556,9.91721,12.38947,17.35925,2.83196,7.44398,4.2494,16.25583,4.2494,26.43455,0,10.08443-1.41744,18.89724-4.2494,26.43553Z"/>
  </g>
  <g class="cls-85">
    <polygon class="cls-106" points="1425.4462 421.57034 1417.20818 418.40806 1425.4462 418.40806 1425.4462 421.57034"/>
    <polygon class="cls-53" points="1425.4462 425.17953 1407.80591 418.40806 1417.20818 418.40806 1425.4462 421.57034 1425.4462 425.17953"/>
    <polygon class="cls-62" points="1425.4462 428.78873 1402.96305 420.15826 1403.63489 418.40806 1407.80591 418.40806 1425.4462 425.17953 1425.4462 428.78873"/>
    <polygon class="cls-104" points="1425.4462 432.39792 1402.6584 423.6505 1402.6584 420.95191 1402.96305 420.15826 1425.4462 428.78873 1425.4462 432.39792"/>
    <polygon class="cls-18" points="1425.4462 436.00712 1402.6584 427.2597 1402.6584 423.6505 1425.4462 432.39792 1425.4462 436.00712"/>
    <polygon class="cls-2" points="1425.4462 438.57252 1425.09699 439.48226 1402.6584 430.86889 1402.6584 427.2597 1425.4462 436.00712 1425.4462 438.57252"/>
    <polygon class="cls-19" points="1425.09699 439.48226 1424.47013 441.11528 1419.94888 441.11528 1402.6584 434.47809 1402.6584 430.86889 1425.09699 439.48226"/>
    <polygon class="cls-101" points="1410.54661 441.11528 1402.6584 438.08728 1402.6584 434.47809 1419.94888 441.11528 1410.54661 441.11528"/>
    <polygon class="cls-46" points="1402.6584 438.08728 1410.54661 441.11528 1402.6584 441.11528 1402.6584 438.08728"/>
    <polygon class="cls-103" points="1361.26517 364.45081 1357.09173 362.84877 1361.26517 362.84877 1361.26517 364.45081"/>
    <polygon class="cls-61" points="1361.26517 368.06 1347.68945 362.84877 1357.09173 362.84877 1361.26517 364.45081 1361.26517 368.06"/>
    <polygon class="cls-118" points="1361.26517 371.66919 1338.28718 362.84877 1347.68945 362.84877 1361.26517 368.06 1361.26517 371.66919"/>
    <polygon class="cls-22" points="1361.26517 375.27839 1328.88491 362.84877 1338.28718 362.84877 1361.26517 371.66919 1361.26517 375.27839"/>
    <polygon class="cls-21" points="1361.26517 378.88758 1319.48264 362.84877 1328.88491 362.84877 1361.26517 375.27839 1361.26517 378.88758"/>
    <polygon class="cls-123" points="1361.26517 382.49677 1317.86129 365.83559 1319.00782 362.84877 1319.48264 362.84877 1361.26517 378.88758 1361.26517 382.49677"/>
    <polygon class="cls-107" points="1361.26517 386.10597 1316.65378 368.98126 1317.86129 365.83559 1361.26517 382.49677 1361.26517 386.10597"/>
    <polygon class="cls-13" points="1361.26517 389.71516 1315.44627 372.12693 1316.65378 368.98126 1361.26517 386.10597 1361.26517 389.71516"/>
    <polygon class="cls-9" points="1361.26517 393.32436 1314.23876 375.27261 1315.44627 372.12693 1361.26517 389.71516 1361.26517 393.32436"/>
    <polygon class="cls-106" points="1361.26517 396.93355 1313.03125 378.41828 1314.23876 375.27261 1361.26517 393.32436 1361.26517 396.93355"/>
    <polygon class="cls-53" points="1361.26517 400.54274 1312.46984 381.81197 1312.46984 379.8808 1313.03125 378.41828 1361.26517 396.93355 1361.26517 400.54274"/>
    <polygon class="cls-62" points="1361.26517 404.15194 1312.46984 385.42117 1312.46984 381.81197 1361.26517 400.54274 1361.26517 404.15194"/>
    <polygon class="cls-104" points="1361.26517 407.76113 1312.46984 389.03036 1312.46984 385.42117 1361.26517 404.15194 1361.26517 407.76113"/>
    <polygon class="cls-18" points="1361.26517 410.64938 1361.02396 411.27774 1312.46984 392.63955 1312.46984 389.03036 1361.26517 407.76113 1361.26517 410.64938"/>
    <polygon class="cls-2" points="1361.02396 411.27774 1359.81645 414.42341 1312.46984 396.24875 1312.46984 392.63955 1361.02396 411.27774"/>
    <polygon class="cls-19" points="1359.81645 414.42341 1358.60894 417.56908 1312.46984 399.85794 1312.46984 396.24875 1359.81645 414.42341"/>
    <polygon class="cls-101" points="1358.60894 417.56908 1357.40143 420.71476 1312.46984 403.46713 1312.46984 399.85794 1358.60894 417.56908"/>
    <polygon class="cls-46" points="1357.40143 420.71476 1356.19392 423.86043 1312.46984 407.07633 1312.46984 403.46713 1357.40143 420.71476"/>
    <polygon class="cls-63" points="1356.19392 423.86043 1354.98641 427.00611 1312.46984 410.68552 1312.46984 407.07633 1356.19392 423.86043"/>
    <polygon class="cls-133" points="1354.98641 427.00611 1354.67049 427.82911 1347.72814 427.82911 1312.46984 414.29472 1312.46984 410.68552 1354.98641 427.00611"/>
    <polygon class="cls-55" points="1338.32587 427.82911 1312.46984 417.90391 1312.46984 414.29472 1347.72814 427.82911 1338.32587 427.82911"/>
    <polygon class="cls-74" points="1328.9236 427.82911 1312.46984 421.5131 1312.46984 417.90391 1338.32587 427.82911 1328.9236 427.82911"/>
    <polygon class="cls-113" points="1319.52133 427.82911 1312.46984 425.1223 1312.46984 421.5131 1328.9236 427.82911 1319.52133 427.82911"/>
    <polygon class="cls-32" points="1312.46984 425.1223 1319.52133 427.82911 1312.46984 427.82911 1312.46984 425.1223"/>
    <path class="cls-83" d="M1377.12784,323.6204l-9.40227-3.60919,9.40227,3.60919Z"/>
    <polygon class="cls-36" points="1377.12784 327.22959 1358.3233 320.0112 1367.72557 320.0112 1377.12784 323.6204 1377.12784 327.22959"/>
    <polygon class="cls-27" points="1377.12784 330.83878 1348.92103 320.0112 1358.3233 320.0112 1377.12784 327.22959 1377.12784 330.83878"/>
    <polygon class="cls-69" points="1377.12784 334.44798 1339.51876 320.0112 1348.92103 320.0112 1377.12784 330.83878 1377.12784 334.44798"/>
    <polygon class="cls-37" points="1377.12784 338.05717 1330.11648 320.0112 1339.51876 320.0112 1377.12784 334.44798 1377.12784 338.05717"/>
    <polygon class="cls-67" points="1377.12784 341.66636 1320.71421 320.0112 1330.11648 320.0112 1377.12784 338.05717 1377.12784 341.66636"/>
    <polygon class="cls-78" points="1377.12784 345.27556 1316.69703 322.07834 1317.49054 320.0112 1320.71421 320.0112 1377.12784 341.66636 1377.12784 345.27556"/>
    <polygon class="cls-102" points="1377.12784 348.88475 1315.48952 325.22402 1316.69703 322.07834 1377.12784 345.27556 1377.12784 348.88475"/>
    <polygon class="cls-7" points="1377.12784 352.49395 1314.28201 328.36969 1315.48952 325.22402 1377.12784 348.88475 1377.12784 352.49395"/>
    <polygon class="cls-35" points="1377.12784 356.10314 1313.0745 331.51537 1314.28201 328.36969 1377.12784 352.49395 1377.12784 356.10314"/>
    <polygon class="cls-64" points="1377.12784 359.71233 1311.86699 334.66104 1313.0745 331.51537 1377.12784 356.10314 1377.12784 359.71233"/>
    <polygon class="cls-72" points="1377.12784 363.32153 1310.65948 337.80671 1311.86699 334.66104 1377.12784 359.71233 1377.12784 363.32153"/>
    <polygon class="cls-33" points="1377.12784 366.93072 1309.45197 340.95239 1310.65948 337.80671 1377.12784 363.32153 1377.12784 366.93072"/>
    <polygon class="cls-103" points="1377.12784 370.53992 1308.24446 344.09806 1309.45197 340.95239 1377.12784 366.93072 1377.12784 370.53992"/>
    <polygon class="cls-61" points="1377.12784 374.14911 1307.03695 347.24374 1308.24446 344.09806 1377.12784 370.53992 1377.12784 374.14911"/>
    <polygon class="cls-118" points="1377.12784 377.7583 1305.82944 350.38941 1307.03695 347.24374 1377.12784 374.14911 1377.12784 377.7583"/>
    <polygon class="cls-22" points="1377.12784 381.3675 1304.62192 353.53508 1305.82944 350.38941 1377.12784 377.7583 1377.12784 381.3675"/>
    <polygon class="cls-21" points="1377.12784 384.97669 1303.41441 356.68076 1304.62192 353.53508 1377.12784 381.3675 1377.12784 384.97669"/>
    <polygon class="cls-123" points="1377.12784 388.58588 1302.2069 359.82643 1303.41441 356.68076 1377.12784 384.97669 1377.12784 388.58588"/>
    <polygon class="cls-107" points="1377.12784 392.19508 1300.99939 362.9721 1302.2069 359.82643 1377.12784 388.58588 1377.12784 392.19508"/>
    <polygon class="cls-13" points="1377.12784 395.80427 1299.79188 366.11778 1300.99939 362.9721 1377.12784 392.19508 1377.12784 395.80427"/>
    <polygon class="cls-9" points="1377.12784 399.41347 1298.58437 369.26345 1299.79188 366.11778 1377.12784 395.80427 1377.12784 399.41347"/>
    <polygon class="cls-106" points="1377.12784 403.02266 1297.37686 372.40913 1298.58437 369.26345 1377.12784 399.41347 1377.12784 403.02266"/>
    <polygon class="cls-53" points="1377.12784 406.63185 1296.16935 375.5548 1297.37686 372.40913 1377.12784 403.02266 1377.12784 406.63185"/>
    <polygon class="cls-62" points="1377.12784 410.24105 1296.04308 379.11552 1296.04308 375.88375 1296.16935 375.5548 1377.12784 406.63185 1377.12784 410.24105"/>
    <polygon class="cls-104" points="1377.12784 413.85024 1296.04308 382.72472 1296.04308 379.11552 1377.12784 410.24105 1377.12784 413.85024"/>
    <polygon class="cls-18" points="1377.12784 417.45944 1296.04308 386.33391 1296.04308 382.72472 1377.12784 413.85024 1377.12784 417.45944"/>
    <polygon class="cls-2" points="1377.12784 421.06863 1296.04308 389.9431 1296.04308 386.33391 1377.12784 417.45944 1377.12784 421.06863"/>
    <polygon class="cls-19" points="1377.12784 424.67782 1296.04308 393.5523 1296.04308 389.9431 1377.12784 421.06863 1377.12784 424.67782"/>
    <polygon class="cls-101" points="1377.12784 428.28702 1296.04308 397.16149 1296.04308 393.5523 1377.12784 424.67782 1377.12784 428.28702"/>
    <polygon class="cls-46" points="1377.12784 431.89621 1296.04308 400.77069 1296.04308 397.16149 1377.12784 428.28702 1377.12784 431.89621"/>
    <polygon class="cls-63" points="1377.12784 435.5054 1296.04308 404.37988 1296.04308 400.77069 1377.12784 431.89621 1377.12784 435.5054"/>
    <polygon class="cls-133" points="1377.12784 439.1146 1296.04308 407.98907 1296.04308 404.37988 1377.12784 435.5054 1377.12784 439.1146"/>
    <polygon class="cls-55" points="1374.82499 441.83981 1296.04308 411.59827 1296.04308 407.98907 1377.12784 439.1146 1377.12784 441.83981 1374.82499 441.83981"/>
    <polygon class="cls-74" points="1365.42271 441.83981 1296.04308 415.20746 1296.04308 411.59827 1374.82499 441.83981 1365.42271 441.83981"/>
    <polygon class="cls-113" points="1356.02044 441.83981 1296.04308 418.81666 1296.04308 415.20746 1365.42271 441.83981 1356.02044 441.83981"/>
    <polygon class="cls-32" points="1346.61817 441.83981 1296.04308 422.42585 1296.04308 418.81666 1356.02044 441.83981 1346.61817 441.83981"/>
    <polygon class="cls-88" points="1337.2159 441.83981 1296.04308 426.03504 1296.04308 422.42585 1346.61817 441.83981 1337.2159 441.83981"/>
    <polygon class="cls-95" points="1327.81363 441.83981 1296.04308 429.64424 1296.04308 426.03504 1337.2159 441.83981 1327.81363 441.83981"/>
    <polygon class="cls-52" points="1318.41136 441.83981 1296.04308 433.25343 1296.04308 429.64424 1327.81363 441.83981 1318.41136 441.83981"/>
    <polygon class="cls-126" points="1309.00908 441.83981 1296.04308 436.86262 1296.04308 433.25343 1318.41136 441.83981 1309.00908 441.83981"/>
    <polygon class="cls-111" points="1299.60681 441.83981 1296.04308 440.47182 1296.04308 436.86262 1309.00908 441.83981 1299.60681 441.83981"/>
    <polygon class="cls-4" points="1296.04308 440.47182 1299.60681 441.83981 1296.04308 441.83981 1296.04308 440.47182"/>
    <polygon class="cls-62" points="1262.80188 366.35542 1253.66674 362.84877 1262.80188 362.84877 1262.80188 366.35542"/>
    <polygon class="cls-104" points="1262.80188 369.96462 1244.26447 362.84877 1253.66674 362.84877 1262.80188 366.35542 1262.80188 369.96462"/>
    <polygon class="cls-18" points="1262.80188 373.57381 1234.8622 362.84877 1244.26447 362.84877 1262.80188 369.96462 1262.80188 373.57381"/>
    <polygon class="cls-2" points="1262.80188 377.183 1225.45993 362.84877 1234.8622 362.84877 1262.80188 373.57381 1262.80188 377.183"/>
    <polygon class="cls-19" points="1262.80188 380.7922 1218.73936 363.87818 1219.13451 362.84877 1225.45993 362.84877 1262.80188 377.183 1262.80188 380.7922"/>
    <polygon class="cls-101" points="1262.80188 384.40139 1217.53185 367.02385 1218.73936 363.87818 1262.80188 380.7922 1262.80188 384.40139"/>
    <polygon class="cls-46" points="1262.80188 388.01059 1216.32434 370.16953 1217.53185 367.02385 1262.80188 384.40139 1262.80188 388.01059"/>
    <polygon class="cls-63" points="1262.80188 391.61978 1215.11682 373.3152 1216.32434 370.16953 1262.80188 388.01059 1262.80188 391.61978"/>
    <polygon class="cls-133" points="1262.80188 395.22897 1213.90931 376.46088 1215.11682 373.3152 1262.80188 391.61978 1262.80188 395.22897"/>
    <polygon class="cls-55" points="1262.80188 398.83817 1212.7018 379.60655 1213.90931 376.46088 1262.80188 395.22897 1262.80188 398.83817"/>
    <polygon class="cls-74" points="1262.80188 402.44736 1212.3956 383.0982 1212.3956 380.40424 1212.7018 379.60655 1262.80188 398.83817 1262.80188 402.44736"/>
    <polygon class="cls-113" points="1262.80188 406.05656 1212.3956 386.7074 1212.3956 383.0982 1262.80188 402.44736 1262.80188 406.05656"/>
    <polygon class="cls-32" points="1262.80188 409.66575 1212.3956 390.31659 1212.3956 386.7074 1262.80188 406.05656 1262.80188 409.66575"/>
    <polygon class="cls-88" points="1262.80188 410.43212 1261.85077 412.90985 1212.3956 393.92579 1212.3956 390.31659 1262.80188 409.66575 1262.80188 410.43212"/>
    <polygon class="cls-95" points="1261.85077 412.90985 1260.64326 416.05552 1212.3956 397.53498 1212.3956 393.92579 1261.85077 412.90985"/>
    <polygon class="cls-52" points="1260.64326 416.05552 1259.43575 419.20119 1212.3956 401.14417 1212.3956 397.53498 1260.64326 416.05552"/>
    <polygon class="cls-126" points="1259.43575 419.20119 1258.22824 422.34687 1212.3956 404.75337 1212.3956 401.14417 1259.43575 419.20119"/>
    <polygon class="cls-111" points="1258.22824 422.34687 1257.02073 425.49254 1212.3956 408.36256 1212.3956 404.75337 1258.22824 422.34687"/>
    <polygon class="cls-4" points="1257.02073 425.49254 1256.09287 427.90969 1253.91535 427.90969 1212.3956 411.97175 1212.3956 408.36256 1257.02073 425.49254"/>
    <polygon class="cls-8" points="1244.51308 427.90969 1212.3956 415.58095 1212.3956 411.97175 1253.91535 427.90969 1244.51308 427.90969"/>
    <polygon class="cls-43" points="1235.11081 427.90969 1212.3956 419.19014 1212.3956 415.58095 1244.51308 427.90969 1235.11081 427.90969"/>
    <polygon class="cls-108" points="1225.70854 427.90969 1212.3956 422.79934 1212.3956 419.19014 1235.11081 427.90969 1225.70854 427.90969"/>
    <polygon class="cls-38" points="1216.30627 427.90969 1212.3956 426.40853 1212.3956 422.79934 1225.70854 427.90969 1216.30627 427.90969"/>
    <polygon class="cls-100" points="1212.3956 426.40853 1216.30627 427.90969 1212.3956 427.90969 1212.3956 426.40853"/>
    <polygon class="cls-123" points="1279.06675 350.94376 1273.58125 348.83807 1279.06675 348.83807 1279.06675 350.94376"/>
    <polygon class="cls-107" points="1279.06675 354.55295 1264.17898 348.83807 1273.58125 348.83807 1279.06675 350.94376 1279.06675 354.55295"/>
    <polygon class="cls-13" points="1279.06675 358.16215 1254.77671 348.83807 1264.17898 348.83807 1279.06675 354.55295 1279.06675 358.16215"/>
    <polygon class="cls-9" points="1279.06675 361.77134 1245.37444 348.83807 1254.77671 348.83807 1279.06675 358.16215 1279.06675 361.77134"/>
    <polygon class="cls-106" points="1279.06675 365.38053 1235.97217 348.83807 1245.37444 348.83807 1279.06675 361.77134 1279.06675 365.38053"/>
    <polygon class="cls-53" points="1279.06675 368.98973 1226.5699 348.83807 1235.97217 348.83807 1279.06675 365.38053 1279.06675 368.98973"/>
    <polygon class="cls-62" points="1279.06675 372.59892 1217.16762 348.83807 1226.5699 348.83807 1279.06675 368.98973 1279.06675 372.59892"/>
    <polygon class="cls-104" points="1279.06675 376.20811 1207.76535 348.83807 1217.16762 348.83807 1279.06675 372.59892 1279.06675 376.20811"/>
    <polygon class="cls-18" points="1279.06675 379.81731 1205.63605 351.6299 1206.70773 348.83807 1207.76535 348.83807 1279.06675 376.20811 1279.06675 379.81731"/>
    <polygon class="cls-2" points="1279.06675 383.4265 1204.42854 354.77558 1205.63605 351.6299 1279.06675 379.81731 1279.06675 383.4265"/>
    <polygon class="cls-19" points="1279.06675 387.0357 1203.22103 357.92125 1204.42854 354.77558 1279.06675 383.4265 1279.06675 387.0357"/>
    <polygon class="cls-101" points="1279.06675 390.64489 1202.01351 361.06692 1203.22103 357.92125 1279.06675 387.0357 1279.06675 390.64489"/>
    <polygon class="cls-46" points="1279.06675 394.25408 1200.806 364.2126 1202.01351 361.06692 1279.06675 390.64489 1279.06675 394.25408"/>
    <polygon class="cls-63" points="1279.06675 397.86328 1199.59849 367.35827 1200.806 364.2126 1279.06675 394.25408 1279.06675 397.86328"/>
    <polygon class="cls-133" points="1279.06675 401.47247 1198.39098 370.50395 1199.59849 367.35827 1279.06675 397.86328 1279.06675 401.47247"/>
    <polygon class="cls-55" points="1279.06675 405.08167 1197.18347 373.64962 1198.39098 370.50395 1279.06675 401.47247 1279.06675 405.08167"/>
    <polygon class="cls-74" points="1279.06675 408.69086 1195.97596 376.79529 1197.18347 373.64962 1279.06675 405.08167 1279.06675 408.69086"/>
    <polygon class="cls-113" points="1279.06675 412.30005 1195.96884 380.40175 1195.96884 376.81384 1195.97596 376.79529 1279.06675 408.69086 1279.06675 412.30005"/>
    <polygon class="cls-32" points="1279.06675 414.04618 1278.44343 415.66998 1195.96884 384.01095 1195.96884 380.40175 1279.06675 412.30005 1279.06675 414.04618"/>
    <polygon class="cls-88" points="1278.44343 415.66998 1277.23592 418.81565 1195.96884 387.62014 1195.96884 384.01095 1278.44343 415.66998"/>
    <polygon class="cls-95" points="1277.23592 418.81565 1276.02841 421.96133 1195.96884 391.22934 1195.96884 387.62014 1277.23592 418.81565"/>
    <polygon class="cls-52" points="1276.02841 421.96133 1274.8209 425.107 1195.96884 394.83853 1195.96884 391.22934 1276.02841 421.96133"/>
    <polygon class="cls-126" points="1274.8209 425.107 1273.61339 428.25267 1195.96884 398.44772 1195.96884 394.83853 1274.8209 425.107"/>
    <polygon class="cls-111" points="1273.61339 428.25267 1272.40587 431.39835 1195.96884 402.05692 1195.96884 398.44772 1273.61339 428.25267"/>
    <polygon class="cls-4" points="1272.40587 431.39835 1271.19836 434.54402 1195.96884 405.66611 1195.96884 402.05692 1272.40587 431.39835"/>
    <polygon class="cls-8" points="1271.19836 434.54402 1269.99085 437.68969 1195.96884 409.27531 1195.96884 405.66611 1271.19836 434.54402"/>
    <polygon class="cls-43" points="1269.99085 437.68969 1268.78334 440.83537 1195.96884 412.8845 1195.96884 409.27531 1269.99085 437.68969"/>
    <polygon class="cls-108" points="1268.78334 440.83537 1268.36684 441.92039 1262.20766 441.92039 1195.96884 416.49369 1195.96884 412.8845 1268.78334 440.83537"/>
    <polygon class="cls-38" points="1252.80538 441.92039 1195.96884 420.10289 1195.96884 416.49369 1262.20766 441.92039 1252.80538 441.92039"/>
    <polygon class="cls-100" points="1243.40311 441.92039 1195.96884 423.71208 1195.96884 420.10289 1252.80538 441.92039 1243.40311 441.92039"/>
    <polygon class="cls-68" points="1234.00084 441.92039 1195.96884 427.32127 1195.96884 423.71208 1243.40311 441.92039 1234.00084 441.92039"/>
    <polygon class="cls-11" points="1224.59857 441.92039 1195.96884 430.93047 1195.96884 427.32127 1234.00084 441.92039 1224.59857 441.92039"/>
    <polygon class="cls-34" points="1215.1963 441.92039 1195.96884 434.53966 1195.96884 430.93047 1224.59857 441.92039 1215.1963 441.92039"/>
    <polygon class="cls-26" points="1205.79403 441.92039 1195.96884 438.14886 1195.96884 434.53966 1215.1963 441.92039 1205.79403 441.92039"/>
    <polygon class="cls-54" points="1196.39176 441.92039 1195.96884 441.75805 1195.96884 438.14886 1205.79403 441.92039 1196.39176 441.92039"/>
    <polygon class="cls-71" points="1195.96884 441.75805 1196.39176 441.92039 1195.96884 441.92039 1195.96884 441.75805"/>
    <polygon class="cls-74" points="1162.72764 364.03246 1159.64403 362.84877 1162.72764 362.84877 1162.72764 364.03246"/>
    <polygon class="cls-113" points="1162.72764 367.64165 1150.24175 362.84877 1159.64403 362.84877 1162.72764 364.03246 1162.72764 367.64165"/>
    <polygon class="cls-32" points="1162.72764 371.25085 1140.83948 362.84877 1150.24175 362.84877 1162.72764 367.64165 1162.72764 371.25085"/>
    <polygon class="cls-88" points="1162.72764 374.86004 1131.43721 362.84877 1140.83948 362.84877 1162.72764 371.25085 1162.72764 374.86004"/>
    <polygon class="cls-95" points="1162.72764 378.46924 1122.03494 362.84877 1131.43721 362.84877 1162.72764 374.86004 1162.72764 378.46924"/>
    <polygon class="cls-52" points="1162.72764 382.07843 1118.23479 364.99922 1119.06027 362.84877 1122.03494 362.84877 1162.72764 378.46924 1162.72764 382.07843"/>
    <polygon class="cls-126" points="1162.72764 385.68762 1117.02728 368.1449 1118.23479 364.99922 1162.72764 382.07843 1162.72764 385.68762"/>
    <polygon class="cls-111" points="1162.72764 389.29682 1115.81977 371.29057 1117.02728 368.1449 1162.72764 385.68762 1162.72764 389.29682"/>
    <polygon class="cls-4" points="1162.72764 392.90601 1114.61226 374.43625 1115.81977 371.29057 1162.72764 389.29682 1162.72764 392.90601"/>
    <polygon class="cls-8" points="1162.72764 396.51521 1113.40475 377.58192 1114.61226 374.43625 1162.72764 392.90601 1162.72764 396.51521"/>
    <polygon class="cls-43" points="1162.72764 400.1244 1112.32136 380.77524 1112.32136 380.40424 1113.40475 377.58192 1162.72764 396.51521 1162.72764 400.1244"/>
    <polygon class="cls-108" points="1162.72764 403.73359 1112.32136 384.38444 1112.32136 380.77524 1162.72764 400.1244 1162.72764 403.73359"/>
    <polygon class="cls-38" points="1162.72764 407.34279 1112.32136 387.99363 1112.32136 384.38444 1162.72764 403.73359 1162.72764 407.34279"/>
    <polygon class="cls-100" points="1162.72764 410.43212 1162.55371 410.88522 1112.32136 391.60282 1112.32136 387.99363 1162.72764 407.34279 1162.72764 410.43212"/>
    <polygon class="cls-68" points="1162.55371 410.88522 1161.3462 414.03089 1112.32136 395.21202 1112.32136 391.60282 1162.55371 410.88522"/>
    <polygon class="cls-11" points="1161.3462 414.03089 1160.13869 417.17656 1112.32136 398.82121 1112.32136 395.21202 1161.3462 414.03089"/>
    <polygon class="cls-34" points="1160.13869 417.17656 1158.93118 420.32224 1112.32136 402.4304 1112.32136 398.82121 1160.13869 417.17656"/>
    <polygon class="cls-26" points="1158.93118 420.32224 1157.72367 423.46791 1112.32136 406.0396 1112.32136 402.4304 1158.93118 420.32224"/>
    <polygon class="cls-54" points="1157.72367 423.46791 1156.51616 426.61359 1112.32136 409.64879 1112.32136 406.0396 1157.72367 423.46791"/>
    <polygon class="cls-71" points="1156.51616 426.61359 1156.01863 427.90969 1150.49037 427.90969 1112.32136 413.25799 1112.32136 409.64879 1156.51616 426.61359"/>
    <polygon class="cls-87" points="1141.0881 427.90969 1112.32136 416.86718 1112.32136 413.25799 1150.49037 427.90969 1141.0881 427.90969"/>
    <polygon class="cls-50" points="1131.68582 427.90969 1112.32136 420.47637 1112.32136 416.86718 1141.0881 427.90969 1131.68582 427.90969"/>
    <polygon class="cls-48" points="1122.28355 427.90969 1112.32136 424.08557 1112.32136 420.47637 1131.68582 427.90969 1122.28355 427.90969"/>
    <polygon class="cls-99" points="1112.88128 427.90969 1112.32136 427.69476 1112.32136 424.08557 1122.28355 427.90969 1112.88128 427.90969"/>
    <polygon class="cls-121" points="1112.32136 427.69476 1112.88128 427.90969 1112.32136 427.90969 1112.32136 427.69476"/>
    <polygon class="cls-101" points="1178.99251 352.22999 1170.15627 348.83807 1178.99251 348.83807 1178.99251 352.22999"/>
    <polygon class="cls-46" points="1178.99251 355.83918 1160.754 348.83807 1170.15627 348.83807 1178.99251 352.22999 1178.99251 355.83918"/>
    <polygon class="cls-63" points="1178.99251 359.44838 1151.35172 348.83807 1160.754 348.83807 1178.99251 355.83918 1178.99251 359.44838"/>
    <polygon class="cls-133" points="1178.99251 363.05757 1141.94945 348.83807 1151.35172 348.83807 1178.99251 359.44838 1178.99251 363.05757"/>
    <polygon class="cls-55" points="1178.99251 366.66676 1132.54718 348.83807 1141.94945 348.83807 1178.99251 363.05757 1178.99251 366.66676"/>
    <polygon class="cls-74" points="1178.99251 370.27596 1123.14491 348.83807 1132.54718 348.83807 1178.99251 366.66676 1178.99251 370.27596"/>
    <polygon class="cls-113" points="1178.99251 373.88515 1113.74264 348.83807 1123.14491 348.83807 1178.99251 370.27596 1178.99251 373.88515"/>
    <polygon class="cls-32" points="1178.99251 377.49435 1106.33899 349.60527 1106.63349 348.83807 1113.74264 348.83807 1178.99251 373.88515 1178.99251 377.49435"/>
    <polygon class="cls-88" points="1178.99251 381.10354 1105.13148 352.75095 1106.33899 349.60527 1178.99251 377.49435 1178.99251 381.10354"/>
    <polygon class="cls-95" points="1178.99251 384.71273 1103.92397 355.89662 1105.13148 352.75095 1178.99251 381.10354 1178.99251 384.71273"/>
    <polygon class="cls-52" points="1178.99251 388.32193 1102.71646 359.0423 1103.92397 355.89662 1178.99251 384.71273 1178.99251 388.32193"/>
    <polygon class="cls-126" points="1178.99251 391.93112 1101.50895 362.18797 1102.71646 359.0423 1178.99251 388.32193 1178.99251 391.93112"/>
    <polygon class="cls-111" points="1178.99251 395.54032 1100.30144 365.33364 1101.50895 362.18797 1178.99251 391.93112 1178.99251 395.54032"/>
    <polygon class="cls-4" points="1178.99251 399.14951 1099.09393 368.47932 1100.30144 365.33364 1178.99251 395.54032 1178.99251 399.14951"/>
    <polygon class="cls-8" points="1178.99251 402.7587 1097.88642 371.62499 1099.09393 368.47932 1178.99251 399.14951 1178.99251 402.7587"/>
    <polygon class="cls-43" points="1178.99251 406.3679 1096.6789 374.77066 1097.88642 371.62499 1178.99251 402.7587 1178.99251 406.3679"/>
    <polygon class="cls-108" points="1178.99251 409.97709 1095.8946 378.07879 1095.8946 376.81384 1096.6789 374.77066 1178.99251 406.3679 1178.99251 409.97709"/>
    <polygon class="cls-38" points="1178.99251 413.58628 1095.8946 381.68799 1095.8946 378.07879 1178.99251 409.97709 1178.99251 413.58628"/>
    <polygon class="cls-100" points="1178.99251 414.04618 1177.93886 416.79102 1095.8946 385.29718 1095.8946 381.68799 1178.99251 413.58628 1178.99251 414.04618"/>
    <polygon class="cls-68" points="1177.93886 416.79102 1176.73135 419.9367 1095.8946 388.90637 1095.8946 385.29718 1177.93886 416.79102"/>
    <polygon class="cls-11" points="1176.73135 419.9367 1175.52384 423.08237 1095.8946 392.51557 1095.8946 388.90637 1176.73135 419.9367"/>
    <polygon class="cls-34" points="1175.52384 423.08237 1174.31633 426.22804 1095.8946 396.12476 1095.8946 392.51557 1175.52384 423.08237"/>
    <polygon class="cls-26" points="1174.31633 426.22804 1173.10882 429.37372 1095.8946 399.73396 1095.8946 396.12476 1174.31633 426.22804"/>
    <polygon class="cls-54" points="1173.10882 429.37372 1171.90131 432.51939 1095.8946 403.34315 1095.8946 399.73396 1173.10882 429.37372"/>
    <polygon class="cls-71" points="1171.90131 432.51939 1170.6938 435.66506 1095.8946 406.95234 1095.8946 403.34315 1171.90131 432.51939"/>
    <polygon class="cls-87" points="1170.6938 435.66506 1169.48629 438.81074 1095.8946 410.56154 1095.8946 406.95234 1170.6938 435.66506"/>
    <polygon class="cls-50" points="1169.48629 438.81074 1168.2926 441.92039 1168.18494 441.92039 1095.8946 414.17073 1095.8946 410.56154 1169.48629 438.81074"/>
    <polygon class="cls-48" points="1158.78267 441.92039 1095.8946 417.77992 1095.8946 414.17073 1168.18494 441.92039 1158.78267 441.92039"/>
    <polygon class="cls-99" points="1149.3804 441.92039 1095.8946 421.38912 1095.8946 417.77992 1158.78267 441.92039 1149.3804 441.92039"/>
    <polygon class="cls-121" points="1139.97813 441.92039 1095.8946 424.99831 1095.8946 421.38912 1149.3804 441.92039 1139.97813 441.92039"/>
    <polygon class="cls-16" points="1130.57586 441.92039 1095.8946 428.60751 1095.8946 424.99831 1139.97813 441.92039 1130.57586 441.92039"/>
    <polygon class="cls-3" points="1121.17358 441.92039 1095.8946 432.2167 1095.8946 428.60751 1130.57586 441.92039 1121.17358 441.92039"/>
    <polygon class="cls-39" points="1111.77131 441.92039 1095.8946 435.82589 1095.8946 432.2167 1121.17358 441.92039 1111.77131 441.92039"/>
    <polygon class="cls-112" points="1102.36904 441.92039 1095.8946 439.43509 1095.8946 435.82589 1111.77131 441.92039 1102.36904 441.92039"/>
    <polygon class="cls-105" points="1095.8946 439.43509 1102.36904 441.92039 1095.8946 441.92039 1095.8946 439.43509"/>
    <polygon class="cls-63" points="1076.80349 320.22169 1072.06038 318.40098 1076.80349 318.40098 1076.80349 320.22169"/>
    <polygon class="cls-133" points="1076.80349 323.83088 1062.6581 318.40098 1072.06038 318.40098 1076.80349 320.22169 1076.80349 323.83088"/>
    <polygon class="cls-55" points="1076.80349 327.44008 1053.25583 318.40098 1062.6581 318.40098 1076.80349 323.83088 1076.80349 327.44008"/>
    <polygon class="cls-74" points="1076.80349 331.04927 1043.85356 318.40098 1053.25583 318.40098 1076.80349 327.44008 1076.80349 331.04927"/>
    <polygon class="cls-113" points="1076.80349 334.65846 1034.45129 318.40098 1043.85356 318.40098 1076.80349 331.04927 1076.80349 334.65846"/>
    <polygon class="cls-32" points="1076.80349 338.26766 1025.04902 318.40098 1034.45129 318.40098 1076.80349 334.65846 1076.80349 338.26766"/>
    <polygon class="cls-88" points="1076.80349 341.87685 1015.64675 318.40098 1025.04902 318.40098 1076.80349 338.26766 1076.80349 341.87685"/>
    <polygon class="cls-95" points="1076.80349 345.48604 1006.24448 318.40098 1015.64675 318.40098 1076.80349 341.87685 1076.80349 345.48604"/>
    <polygon class="cls-52" points="1076.80349 349.09524 996.8422 318.40098 1006.24448 318.40098 1076.80349 345.48604 1076.80349 349.09524"/>
    <polygon class="cls-126" points="1076.80349 352.70443 987.66099 318.48583 987.69356 318.40098 996.8422 318.40098 1076.80349 349.09524 1076.80349 352.70443"/>
    <polygon class="cls-111" points="1076.80349 356.31363 986.45348 321.63151 987.66099 318.48583 1076.80349 352.70443 1076.80349 356.31363"/>
    <polygon class="cls-4" points="1076.80349 359.92282 985.24597 324.77718 986.45348 321.63151 1076.80349 356.31363 1076.80349 359.92282"/>
    <polygon class="cls-8" points="1076.80349 363.53201 984.03846 327.92285 985.24597 324.77718 1076.80349 359.92282 1076.80349 363.53201"/>
    <polygon class="cls-43" points="1076.80349 367.14121 982.83095 331.06853 984.03846 327.92285 1076.80349 363.53201 1076.80349 367.14121"/>
    <polygon class="cls-108" points="1076.80349 370.7504 981.62344 334.2142 982.83095 331.06853 1076.80349 367.14121 1076.80349 370.7504"/>
    <polygon class="cls-38" points="1076.80349 374.3596 980.41592 337.35988 981.62344 334.2142 1076.80349 370.7504 1076.80349 374.3596"/>
    <polygon class="cls-100" points="1076.80349 377.96879 979.20841 340.50555 980.41592 337.35988 1076.80349 374.3596 1076.80349 377.96879"/>
    <polygon class="cls-68" points="1076.80349 381.57798 978.0009 343.65122 979.20841 340.50555 1076.80349 377.96879 1076.80349 381.57798"/>
    <polygon class="cls-11" points="1076.80349 385.18718 976.79339 346.7969 978.0009 343.65122 1076.80349 381.57798 1076.80349 385.18718"/>
    <polygon class="cls-34" points="1076.80349 388.79637 975.58588 349.94257 976.79339 346.7969 1076.80349 385.18718 1076.80349 388.79637"/>
    <polygon class="cls-26" points="1076.80349 392.40556 974.37837 353.08824 975.58588 349.94257 1076.80349 388.79637 1076.80349 392.40556"/>
    <polygon class="cls-54" points="1076.80349 396.01476 973.17086 356.23392 974.37837 353.08824 1076.80349 392.40556 1076.80349 396.01476"/>
    <polygon class="cls-71" points="1076.80349 399.62395 973.01151 359.78194 973.01151 356.64905 973.17086 356.23392 1076.80349 396.01476 1076.80349 399.62395"/>
    <polygon class="cls-87" points="1076.80349 403.23315 973.01151 363.39114 973.01151 359.78194 1076.80349 399.62395 1076.80349 403.23315"/>
    <polygon class="cls-50" points="1076.80349 406.84234 973.01151 367.00033 973.01151 363.39114 1076.80349 403.23315 1076.80349 406.84234"/>
    <polygon class="cls-48" points="1076.80349 410.45153 973.01151 370.60952 973.01151 367.00033 1076.80349 406.84234 1076.80349 410.45153"/>
    <polygon class="cls-99" points="1076.80349 411.29819 1075.87924 413.70594 973.01151 374.21872 973.01151 370.60952 1076.80349 410.45153 1076.80349 411.29819"/>
    <polygon class="cls-121" points="1075.87924 413.70594 1074.67173 416.85162 973.01151 377.82791 973.01151 374.21872 1075.87924 413.70594"/>
    <polygon class="cls-16" points="1074.67173 416.85162 1073.46422 419.99729 973.01151 381.43711 973.01151 377.82791 1074.67173 416.85162"/>
    <polygon class="cls-3" points="1073.46422 419.99729 1072.25671 423.14296 973.01151 385.0463 973.01151 381.43711 1073.46422 419.99729"/>
    <polygon class="cls-39" points="1072.25671 423.14296 1071.0492 426.28864 973.01151 388.65549 973.01151 385.0463 1072.25671 423.14296"/>
    <polygon class="cls-112" points="1071.0492 426.28864 1069.84168 429.43431 973.01151 392.26469 973.01151 388.65549 1071.0492 426.28864"/>
    <polygon class="cls-105" points="1069.84168 429.43431 1068.63417 432.57998 973.01151 395.87388 973.01151 392.26469 1069.84168 429.43431"/>
    <polygon class="cls-117" points="1068.63417 432.57998 1067.42666 435.72566 973.01151 399.48308 973.01151 395.87388 1068.63417 432.57998"/>
    <polygon class="cls-125" points="1067.42666 435.72566 1066.21915 438.87133 973.01151 403.09227 973.01151 399.48308 1067.42666 435.72566"/>
    <polygon class="cls-122" points="1066.21915 438.87133 1065.17232 441.59842 1063.92119 441.59842 973.01151 406.70146 973.01151 403.09227 1066.21915 438.87133"/>
    <polygon class="cls-56" points="1054.51892 441.59842 973.01151 410.31066 973.01151 406.70146 1063.92119 441.59842 1054.51892 441.59842"/>
    <polygon class="cls-51" points="1045.11665 441.59842 973.01151 413.91985 973.01151 410.31066 1054.51892 441.59842 1045.11665 441.59842"/>
    <polygon class="cls-47" points="1035.71437 441.59842 973.01151 417.52904 973.01151 413.91985 1045.11665 441.59842 1035.71437 441.59842"/>
    <polygon class="cls-44" points="1026.3121 441.59842 973.01151 421.13824 973.01151 417.52904 1035.71437 441.59842 1026.3121 441.59842"/>
    <polygon class="cls-132" points="1016.90983 441.59842 973.01151 424.74743 973.01151 421.13824 1026.3121 441.59842 1016.90983 441.59842"/>
    <polygon class="cls-76" points="1007.50756 441.59842 973.01151 428.35663 973.01151 424.74743 1016.90983 441.59842 1007.50756 441.59842"/>
    <polygon class="cls-1" points="998.10529 441.59842 973.01151 431.96582 973.01151 428.35663 1007.50756 441.59842 998.10529 441.59842"/>
    <polygon class="cls-42" points="988.70302 441.59842 973.01151 435.57501 973.01151 431.96582 998.10529 441.59842 988.70302 441.59842"/>
    <polygon class="cls-86" points="979.30075 441.59842 973.01151 439.18421 973.01151 435.57501 988.70302 441.59842 979.30075 441.59842"/>
    <polygon class="cls-75" points="973.01151 439.18421 979.30075 441.59842 973.01151 441.59842 973.01151 439.18421"/>
    <polygon class="cls-71" points="923.05388 340.60501 922.68625 340.46389 923.05388 340.46389 923.05388 340.60501"/>
    <polygon class="cls-87" points="923.05388 344.2142 913.28398 340.46389 922.68625 340.46389 923.05388 340.60501 923.05388 344.2142"/>
    <polygon class="cls-50" points="923.05388 347.82339 904.7902 340.81262 904.92407 340.46389 913.28398 340.46389 923.05388 344.2142 923.05388 347.82339"/>
    <polygon class="cls-48" points="923.05388 351.43259 903.58269 343.9583 904.7902 340.81262 923.05388 347.82339 923.05388 351.43259"/>
    <polygon class="cls-99" points="923.05388 355.04178 902.37518 347.10397 903.58269 343.9583 923.05388 351.43259 923.05388 355.04178"/>
    <polygon class="cls-121" points="923.05388 358.65098 901.16767 350.24965 902.37518 347.10397 923.05388 355.04178 923.05388 358.65098"/>
    <polygon class="cls-16" points="923.05388 362.26017 899.96016 353.39532 901.16767 350.24965 923.05388 358.65098 923.05388 362.26017"/>
    <polygon class="cls-3" points="923.05388 365.86936 898.75265 356.54099 899.96016 353.39532 923.05388 362.26017 923.05388 365.86936"/>
    <polygon class="cls-39" points="923.05388 369.47856 897.54513 359.68667 898.75265 356.54099 923.05388 365.86936 923.05388 369.47856"/>
    <polygon class="cls-112" points="923.05388 373.08775 896.33762 362.83234 897.54513 359.68667 923.05388 369.47856 923.05388 373.08775"/>
    <polygon class="cls-105" points="923.05388 376.69695 895.13011 365.97802 896.33762 362.83234 923.05388 373.08775 923.05388 376.69695"/>
    <polygon class="cls-117" points="923.05388 380.30614 893.9226 369.12369 895.13011 365.97802 923.05388 376.69695 923.05388 380.30614"/>
    <polygon class="cls-125" points="923.05388 383.91533 892.71509 372.26936 893.9226 369.12369 923.05388 380.30614 923.05388 383.91533"/>
    <polygon class="cls-122" points="923.05388 387.52453 891.50758 375.41504 892.71509 372.26936 923.05388 383.91533 923.05388 387.52453"/>
    <polygon class="cls-56" points="923.05388 391.13372 890.30007 378.56071 891.50758 375.41504 923.05388 387.52453 923.05388 391.13372"/>
    <polygon class="cls-51" points="923.05388 394.74292 889.09256 381.70638 890.30007 378.56071 923.05388 391.13372 923.05388 394.74292"/>
    <polygon class="cls-47" points="923.05388 398.35211 887.88505 384.85206 889.09256 381.70638 923.05388 394.74292 923.05388 398.35211"/>
    <polygon class="cls-44" points="922.05823 401.57911 886.67753 387.99773 887.88505 384.85206 923.05388 398.35211 923.05388 401.57911 922.05823 401.57911"/>
    <polygon class="cls-132" points="912.65596 401.57911 885.47002 391.14341 886.67753 387.99773 922.05823 401.57911 912.65596 401.57911"/>
    <polygon class="cls-76" points="903.25368 401.57911 884.26251 394.28908 885.47002 391.14341 912.65596 401.57911 903.25368 401.57911"/>
    <polygon class="cls-1" points="893.85141 401.57911 884.00121 397.79797 884.00121 394.96979 884.26251 394.28908 903.25368 401.57911 893.85141 401.57911"/>
    <polygon class="cls-42" points="884.44914 401.57911 884.00121 401.40716 884.00121 397.79797 893.85141 401.57911 884.44914 401.57911"/>
    <polygon class="cls-86" points="884.00121 401.40716 884.44914 401.57911 884.00121 401.57911 884.00121 401.40716"/>
    <polygon class="cls-43" points="955.10157 320.42422 954.02563 320.0112 955.10157 320.0112 955.10157 320.42422"/>
    <polygon class="cls-108" points="955.10157 324.03341 944.62335 320.0112 954.02563 320.0112 955.10157 320.42422 955.10157 324.03341"/>
    <polygon class="cls-38" points="955.10157 327.6426 935.22108 320.0112 944.62335 320.0112 955.10157 324.03341 955.10157 327.6426"/>
    <polygon class="cls-100" points="955.10157 331.2518 925.81881 320.0112 935.22108 320.0112 955.10157 327.6426 955.10157 331.2518"/>
    <polygon class="cls-68" points="955.10157 334.86099 916.41654 320.0112 925.81881 320.0112 955.10157 331.2518 955.10157 334.86099"/>
    <polygon class="cls-11" points="955.10157 338.47019 907.01427 320.0112 916.41654 320.0112 955.10157 334.86099 955.10157 338.47019"/>
    <polygon class="cls-34" points="955.10157 342.07938 897.612 320.0112 907.01427 320.0112 955.10157 338.47019 955.10157 342.07938"/>
    <polygon class="cls-26" points="955.10157 345.68857 894.80037 322.54111 895.77151 320.0112 897.612 320.0112 955.10157 342.07938 955.10157 345.68857"/>
    <polygon class="cls-54" points="955.10157 349.29777 893.59286 325.68679 894.80037 322.54111 955.10157 345.68857 955.10157 349.29777"/>
    <polygon class="cls-71" points="955.10157 352.90696 892.38535 328.83246 893.59286 325.68679 955.10157 349.29777 955.10157 352.90696"/>
    <polygon class="cls-87" points="955.10157 356.51615 891.17784 331.97813 892.38535 328.83246 955.10157 352.90696 955.10157 356.51615"/>
    <polygon class="cls-50" points="955.10157 360.12535 889.97033 335.12381 891.17784 331.97813 955.10157 356.51615 955.10157 360.12535"/>
    <polygon class="cls-48" points="955.10157 363.73454 888.76282 338.26948 889.97033 335.12381 955.10157 360.12535 955.10157 363.73454"/>
    <polygon class="cls-99" points="955.10157 367.34374 887.55531 341.41516 888.76282 338.26948 955.10157 363.73454 955.10157 367.34374"/>
    <polygon class="cls-121" points="955.10157 370.95293 886.34779 344.56083 887.55531 341.41516 955.10157 367.34374 955.10157 370.95293"/>
    <polygon class="cls-16" points="955.10157 374.56212 885.14028 347.7065 886.34779 344.56083 955.10157 370.95293 955.10157 374.56212"/>
    <polygon class="cls-3" points="955.10157 378.17132 883.93277 350.85218 885.14028 347.7065 955.10157 374.56212 955.10157 378.17132"/>
    <polygon class="cls-39" points="955.10157 381.78051 882.72526 353.99785 883.93277 350.85218 955.10157 378.17132 955.10157 381.78051"/>
    <polygon class="cls-112" points="955.10157 385.38971 881.51775 357.14353 882.72526 353.99785 955.10157 381.78051 955.10157 385.38971"/>
    <polygon class="cls-105" points="955.10157 388.9989 880.31024 360.2892 881.51775 357.14353 955.10157 385.38971 955.10157 388.9989"/>
    <polygon class="cls-117" points="955.10157 392.60809 879.10273 363.43487 880.31024 360.2892 955.10157 388.9989 955.10157 392.60809"/>
    <polygon class="cls-125" points="955.10157 396.21729 877.89522 366.58055 879.10273 363.43487 955.10157 392.60809 955.10157 396.21729"/>
    <polygon class="cls-122" points="955.10157 399.82648 876.68771 369.72622 877.89522 366.58055 955.10157 396.21729 955.10157 399.82648"/>
    <polygon class="cls-56" points="955.10157 403.43567 875.4802 372.87189 876.68771 369.72622 955.10157 399.82648 955.10157 403.43567"/>
    <polygon class="cls-51" points="955.10157 407.04487 874.27268 376.01757 875.4802 372.87189 955.10157 403.43567 955.10157 407.04487"/>
    <polygon class="cls-47" points="955.10157 410.65406 873.06517 379.16324 874.27268 376.01757 955.10157 407.04487 955.10157 410.65406"/>
    <polygon class="cls-44" points="955.10157 414.26326 871.85766 382.30892 873.06517 379.16324 955.10157 410.65406 955.10157 414.26326"/>
    <polygon class="cls-132" points="955.10157 417.87245 870.65015 385.45459 871.85766 382.30892 955.10157 414.26326 955.10157 417.87245"/>
    <polygon class="cls-76" points="955.10157 421.48164 869.44264 388.60026 870.65015 385.45459 955.10157 417.87245 955.10157 421.48164"/>
    <polygon class="cls-1" points="955.10157 421.71598 953.97246 424.65741 868.23513 391.74594 869.44264 388.60026 955.10157 421.48164 955.10157 421.71598"/>
    <rect class="cls-42" x="908.8153" y="363.85596" width="3.36947" height="91.83711" transform="translate(201.64858 1112.94952) rotate(-69)"/>
    <polygon class="cls-86" points="952.76494 427.80309 951.55743 430.94876 866.28656 398.21634 866.28656 396.82213 867.02762 394.89161 952.76494 427.80309"/>
    <polygon class="cls-75" points="951.55743 430.94876 950.34992 434.09443 866.28656 401.82553 866.28656 398.21634 951.55743 430.94876"/>
    <polygon class="cls-77" points="950.34992 434.09443 949.14241 437.24011 866.28656 405.43473 866.28656 401.82553 950.34992 434.09443"/>
    <polygon class="cls-65" points="949.14241 437.24011 948.08766 439.98783 946.89821 439.98783 866.28656 409.04392 866.28656 405.43473 949.14241 437.24011"/>
    <polygon class="cls-23" points="937.49594 439.98783 866.28656 412.65311 866.28656 409.04392 946.89821 439.98783 937.49594 439.98783"/>
    <polygon class="cls-119" points="928.09366 439.98783 866.28656 416.26231 866.28656 412.65311 937.49594 439.98783 928.09366 439.98783"/>
    <polygon class="cls-84" points="918.69139 439.98783 866.28656 419.8715 866.28656 416.26231 928.09366 439.98783 918.69139 439.98783"/>
    <polygon class="cls-57" points="909.28912 439.98783 866.28656 423.4807 866.28656 419.8715 918.69139 439.98783 909.28912 439.98783"/>
    <polygon class="cls-127" points="899.88685 439.98783 866.28656 427.08989 866.28656 423.4807 909.28912 439.98783 899.88685 439.98783"/>
    <polygon class="cls-25" points="890.48458 439.98783 866.28656 430.69908 866.28656 427.08989 899.88685 439.98783 890.48458 439.98783"/>
    <polygon class="cls-24" points="881.08231 439.98783 866.28656 434.30828 866.28656 430.69908 890.48458 439.98783 881.08231 439.98783"/>
    <polygon class="cls-124" points="871.68003 439.98783 866.28656 437.91747 866.28656 434.30828 881.08231 439.98783 871.68003 439.98783"/>
    <polygon class="cls-73" points="866.28656 437.91747 871.68003 439.98783 866.28656 439.98783 866.28656 437.91747"/>
    <polygon class="cls-23" points="830.17193 398.79001 821.49649 395.45982 830.17193 395.45982 830.17193 398.79001"/>
    <polygon class="cls-119" points="830.17193 402.3992 812.09422 395.45982 821.49649 395.45982 830.17193 398.79001 830.17193 402.3992"/>
    <polygon class="cls-84" points="830.17193 406.0084 802.69195 395.45982 812.09422 395.45982 830.17193 402.3992 830.17193 406.0084"/>
    <polygon class="cls-57" points="830.17193 409.61759 793.28967 395.45982 802.69195 395.45982 830.17193 406.0084 830.17193 409.61759"/>
    <polygon class="cls-127" points="830.17193 413.22678 791.22843 398.27777 792.31015 395.45982 793.28967 395.45982 830.17193 409.61759 830.17193 413.22678"/>
    <polygon class="cls-25" points="830.17193 416.83598 790.02092 401.42345 791.22843 398.27777 830.17193 413.22678 830.17193 416.83598"/>
    <polygon class="cls-24" points="830.17193 417.65659 829.23897 420.08704 788.81341 404.56912 790.02092 401.42345 830.17193 416.83598 830.17193 417.65659"/>
    <polygon class="cls-124" points="829.23897 420.08704 828.03146 423.23271 788.38086 408.01228 788.38086 405.69595 788.81341 404.56912 829.23897 420.08704"/>
    <polygon class="cls-73" points="828.03146 423.23271 826.82395 426.37839 788.38086 411.62147 788.38086 408.01228 828.03146 423.23271"/>
    <polygon class="cls-129" points="826.82395 426.37839 825.98881 428.554 823.08935 428.554 788.38086 415.23066 788.38086 411.62147 826.82395 426.37839"/>
    <polygon class="cls-98" points="813.68707 428.554 788.38086 418.83986 788.38086 415.23066 823.08935 428.554 813.68707 428.554"/>
    <polygon class="cls-82" points="804.2848 428.554 788.38086 422.44905 788.38086 418.83986 813.68707 428.554 804.2848 428.554"/>
    <polygon class="cls-29" points="794.88253 428.554 788.38086 426.05825 788.38086 422.44905 804.2848 428.554 794.88253 428.554"/>
    <polygon class="cls-14" points="788.38086 426.05825 794.88253 428.554 788.38086 428.554 788.38086 426.05825"/>
    <polygon class="cls-117" points="846.27563 350.83373 841.07677 348.83807 846.27563 348.83807 846.27563 350.83373"/>
    <polygon class="cls-125" points="846.27563 354.44293 831.67449 348.83807 841.07677 348.83807 846.27563 350.83373 846.27563 354.44293"/>
    <polygon class="cls-122" points="846.27563 358.05212 822.27222 348.83807 831.67449 348.83807 846.27563 354.44293 846.27563 358.05212"/>
    <polygon class="cls-56" points="846.27563 361.66131 812.86995 348.83807 822.27222 348.83807 846.27563 358.05212 846.27563 361.66131"/>
    <polygon class="cls-51" points="846.27563 365.27051 803.46768 348.83807 812.86995 348.83807 846.27563 361.66131 846.27563 365.27051"/>
    <polygon class="cls-47" points="846.27563 368.8797 794.06541 348.83807 803.46768 348.83807 846.27563 365.27051 846.27563 368.8797"/>
    <polygon class="cls-44" points="846.27563 372.48889 784.66314 348.83807 794.06541 348.83807 846.27563 368.8797 846.27563 372.48889"/>
    <polygon class="cls-132" points="846.27563 376.09809 780.4158 350.81687 781.17539 348.83807 784.66314 348.83807 846.27563 372.48889 846.27563 376.09809"/>
    <polygon class="cls-76" points="846.27563 379.70728 779.20829 353.96254 780.4158 350.81687 846.27563 376.09809 846.27563 379.70728"/>
    <polygon class="cls-1" points="846.27563 383.31648 778.00078 357.10821 779.20829 353.96254 846.27563 379.70728 846.27563 383.31648"/>
    <polygon class="cls-42" points="846.27563 386.92567 776.79327 360.25389 778.00078 357.10821 846.27563 383.31648 846.27563 386.92567"/>
    <polygon class="cls-86" points="846.27563 390.53486 775.58575 363.39956 776.79327 360.25389 846.27563 386.92567 846.27563 390.53486"/>
    <polygon class="cls-75" points="846.27563 394.14406 774.37824 366.54524 775.58575 363.39956 846.27563 390.53486 846.27563 394.14406"/>
    <polygon class="cls-77" points="846.27563 397.75325 773.17073 369.69091 774.37824 366.54524 846.27563 394.14406 846.27563 397.75325"/>
    <polygon class="cls-65" points="846.27563 401.36245 772.35775 372.98803 772.35775 371.80881 773.17073 369.69091 846.27563 397.75325 846.27563 401.36245"/>
    <polygon class="cls-23" points="846.27563 404.97164 772.35775 376.59722 772.35775 372.98803 846.27563 401.36245 846.27563 404.97164"/>
    <polygon class="cls-119" points="846.27563 408.58083 772.35775 380.20642 772.35775 376.59722 846.27563 404.97164 846.27563 408.58083"/>
    <polygon class="cls-84" points="846.27563 412.19003 772.35775 383.81561 772.35775 380.20642 846.27563 408.58083 846.27563 412.19003"/>
    <polygon class="cls-57" points="846.27563 415.79922 772.35775 387.4248 772.35775 383.81561 846.27563 412.19003 846.27563 415.79922"/>
    <polygon class="cls-127" points="846.27563 419.40841 772.35775 391.034 772.35775 387.4248 846.27563 415.79922 846.27563 419.40841"/>
    <polygon class="cls-25" points="846.27563 423.01761 772.35775 394.64319 772.35775 391.034 846.27563 419.40841 846.27563 423.01761"/>
    <polygon class="cls-24" points="846.27563 426.6268 772.35775 398.25238 772.35775 394.64319 846.27563 423.01761 846.27563 426.6268"/>
    <polygon class="cls-124" points="846.27563 430.236 772.35775 401.86158 772.35775 398.25238 846.27563 426.6268 846.27563 430.236"/>
    <polygon class="cls-73" points="846.27563 433.84519 772.35775 405.47077 772.35775 401.86158 846.27563 430.236 846.27563 433.84519"/>
    <polygon class="cls-129" points="846.27563 437.45438 772.35775 409.07997 772.35775 405.47077 846.27563 433.84519 846.27563 437.45438"/>
    <polygon class="cls-98" points="846.27563 441.06358 772.35775 412.68916 772.35775 409.07997 846.27563 437.45438 846.27563 441.06358"/>
    <polygon class="cls-82" points="839.31537 442.00098 772.35775 416.29835 772.35775 412.68916 846.27563 441.06358 846.27563 442.00098 839.31537 442.00098"/>
    <polygon class="cls-29" points="829.9131 442.00098 772.35775 419.90755 772.35775 416.29835 839.31537 442.00098 829.9131 442.00098"/>
    <polygon class="cls-14" points="820.51083 442.00098 772.35775 423.51674 772.35775 419.90755 829.9131 442.00098 820.51083 442.00098"/>
    <polygon class="cls-59" points="811.10855 442.00098 772.35775 427.12594 772.35775 423.51674 820.51083 442.00098 811.10855 442.00098"/>
    <polygon class="cls-96" points="801.70628 442.00098 772.35775 430.73513 772.35775 427.12594 811.10855 442.00098 801.70628 442.00098"/>
    <polygon class="cls-128" points="792.30401 442.00098 772.35775 434.34432 772.35775 430.73513 801.70628 442.00098 792.30401 442.00098"/>
    <polygon class="cls-28" points="782.90174 442.00098 772.35775 437.95352 772.35775 434.34432 792.30401 442.00098 782.90174 442.00098"/>
    <polygon class="cls-40" points="773.49947 442.00098 772.35775 441.56271 772.35775 437.95352 782.90174 442.00098 773.49947 442.00098"/>
    <polygon class="cls-116" points="772.35775 441.56271 773.49947 442.00098 772.35775 442.00098 772.35775 441.56271"/>
    <polygon class="cls-56" points="760.54532 328.75253 760.00874 328.54655 760.54532 328.54655 760.54532 328.75253"/>
    <polygon class="cls-51" points="760.54532 332.36172 750.60647 328.54655 760.00874 328.54655 760.54532 328.75253 760.54532 332.36172"/>
    <polygon class="cls-47" points="760.54532 335.97092 741.20419 328.54655 750.60647 328.54655 760.54532 332.36172 760.54532 335.97092"/>
    <polygon class="cls-44" points="760.54532 339.58011 731.80192 328.54655 741.20419 328.54655 760.54532 335.97092 760.54532 339.58011"/>
    <polygon class="cls-132" points="760.54532 343.1893 722.39965 328.54655 731.80192 328.54655 760.54532 339.58011 760.54532 343.1893"/>
    <polygon class="cls-76" points="760.54532 346.7985 715.99479 329.69715 716.43646 328.54655 722.39965 328.54655 760.54532 343.1893 760.54532 346.7985"/>
    <polygon class="cls-1" points="760.54532 350.40769 714.78728 332.84283 715.99479 329.69715 760.54532 346.7985 760.54532 350.40769"/>
    <polygon class="cls-42" points="760.54532 354.01689 713.57977 335.9885 714.78728 332.84283 760.54532 350.40769 760.54532 354.01689"/>
    <polygon class="cls-86" points="760.54532 357.62608 712.37226 339.13417 713.57977 335.9885 760.54532 354.01689 760.54532 357.62608"/>
    <polygon class="cls-75" points="760.54532 361.23527 711.16475 342.27985 712.37226 339.13417 760.54532 357.62608 760.54532 361.23527"/>
    <polygon class="cls-77" points="760.54532 364.84447 710.38079 345.58811 710.38079 344.32212 711.16475 342.27985 760.54532 361.23527 760.54532 364.84447"/>
    <polygon class="cls-65" points="760.54532 368.45366 710.38079 349.1973 710.38079 345.58811 760.54532 364.84447 760.54532 368.45366"/>
    <polygon class="cls-23" points="760.54532 372.06285 710.38079 352.8065 710.38079 349.1973 760.54532 368.45366 760.54532 372.06285"/>
    <polygon class="cls-119" points="760.54532 375.67205 710.38079 356.41569 710.38079 352.8065 760.54532 372.06285 760.54532 375.67205"/>
    <polygon class="cls-84" points="760.54532 379.28124 710.38079 360.02488 710.38079 356.41569 760.54532 375.67205 760.54532 379.28124"/>
    <polygon class="cls-57" points="760.54532 382.89044 710.38079 363.63408 710.38079 360.02488 760.54532 379.28124 760.54532 382.89044"/>
    <polygon class="cls-127" points="760.54532 386.49963 710.38079 367.24327 710.38079 363.63408 760.54532 382.89044 760.54532 386.49963"/>
    <polygon class="cls-25" points="760.54532 390.10882 710.38079 370.85247 710.38079 367.24327 760.54532 386.49963 760.54532 390.10882"/>
    <polygon class="cls-24" points="760.54532 393.71802 710.38079 374.46166 710.38079 370.85247 760.54532 390.10882 760.54532 393.71802"/>
    <polygon class="cls-124" points="760.54532 397.32721 710.38079 378.07085 710.38079 374.46166 760.54532 393.71802 760.54532 397.32721"/>
    <polygon class="cls-73" points="760.54532 400.93641 710.38079 381.68005 710.38079 378.07085 760.54532 397.32721 760.54532 400.93641"/>
    <polygon class="cls-129" points="760.54532 404.5456 710.38079 385.28924 710.38079 381.68005 760.54532 400.93641 760.54532 404.5456"/>
    <polygon class="cls-98" points="760.54532 408.15479 710.38079 388.89844 710.38079 385.28924 760.54532 404.5456 760.54532 408.15479"/>
    <polygon class="cls-82" points="760.54532 411.76399 710.38079 392.50763 710.38079 388.89844 760.54532 408.15479 760.54532 411.76399"/>
    <polygon class="cls-29" points="760.54532 415.37318 710.38079 396.11682 710.38079 392.50763 760.54532 411.76399 760.54532 415.37318"/>
    <polygon class="cls-14" points="760.54532 418.98238 710.38079 399.72602 710.38079 396.11682 760.54532 415.37318 760.54532 418.98238"/>
    <polygon class="cls-59" points="760.54532 422.59157 710.38079 403.33521 710.38079 399.72602 760.54532 418.98238 760.54532 422.59157"/>
    <polygon class="cls-96" points="760.54532 426.20076 710.38079 406.9444 710.38079 403.33521 760.54532 422.59157 760.54532 426.20076"/>
    <polygon class="cls-128" points="760.54532 429.80996 710.38079 410.5536 710.38079 406.9444 760.54532 426.20076 760.54532 429.80996"/>
    <polygon class="cls-28" points="760.54532 433.41915 710.38079 414.16279 710.38079 410.5536 760.54532 429.80996 760.54532 433.41915"/>
    <polygon class="cls-40" points="760.54532 437.02834 710.38079 417.77199 710.38079 414.16279 760.54532 433.41915 760.54532 437.02834"/>
    <polygon class="cls-116" points="760.54532 440.63754 710.38079 421.38118 710.38079 417.77199 760.54532 437.02834 760.54532 440.63754"/>
    <polygon class="cls-31" points="752.38761 441.11528 710.38079 424.99037 710.38079 421.38118 760.54532 440.63754 760.54532 441.11528 752.38761 441.11528"/>
    <polygon class="cls-12" points="742.98534 441.11528 710.38079 428.59957 710.38079 424.99037 752.38761 441.11528 742.98534 441.11528"/>
    <polygon class="cls-15" points="733.58307 441.11528 710.38079 432.20876 710.38079 428.59957 742.98534 441.11528 733.58307 441.11528"/>
    <polygon class="cls-79" points="724.18079 441.11528 710.38079 435.81796 710.38079 432.20876 733.58307 441.11528 724.18079 441.11528"/>
    <polygon class="cls-6" points="714.77852 441.11528 710.38079 439.42715 710.38079 435.81796 724.18079 441.11528 714.77852 441.11528"/>
    <polygon class="cls-66" points="710.38079 439.42715 714.77852 441.11528 710.38079 441.11528 710.38079 439.42715"/>
    <polygon class="cls-128" points="680.08127 398.9227 671.06014 395.45982 680.08127 395.45982 680.08127 398.9227"/>
    <polygon class="cls-28" points="680.08127 402.53189 661.65787 395.45982 671.06014 395.45982 680.08127 398.9227 680.08127 402.53189"/>
    <polygon class="cls-40" points="680.08127 406.14109 652.2556 395.45982 661.65787 395.45982 680.08127 402.53189 680.08127 406.14109"/>
    <polygon class="cls-116" points="680.08127 409.75028 642.85333 395.45982 652.2556 395.45982 680.08127 406.14109 680.08127 409.75028"/>
    <polygon class="cls-31" points="680.08127 413.35948 641.09337 398.39343 642.21948 395.45982 642.85333 395.45982 680.08127 409.75028 680.08127 413.35948"/>
    <polygon class="cls-12" points="680.08127 416.96867 639.88586 401.5391 641.09337 398.39343 680.08127 413.35948 680.08127 416.96867"/>
    <polygon class="cls-15" points="680.08127 417.65659 679.10391 420.20269 638.67835 404.68477 639.88586 401.5391 680.08127 416.96867 680.08127 417.65659"/>
    <polygon class="cls-79" points="679.10391 420.20269 677.8964 423.34837 638.2902 408.14497 638.2902 405.69595 638.67835 404.68477 679.10391 420.20269"/>
    <polygon class="cls-6" points="677.8964 423.34837 676.68889 426.49404 638.2902 411.75416 638.2902 408.14497 677.8964 423.34837"/>
    <polygon class="cls-66" points="676.68889 426.49404 675.89814 428.554 672.653 428.554 638.2902 415.36336 638.2902 411.75416 676.68889 426.49404"/>
    <polygon class="cls-93" points="663.25073 428.554 638.2902 418.97255 638.2902 415.36336 672.653 428.554 663.25073 428.554"/>
    <polygon class="cls-70" points="653.84846 428.554 638.2902 422.58175 638.2902 418.97255 663.25073 428.554 653.84846 428.554"/>
    <polygon class="cls-20" points="644.44619 428.554 638.2902 426.19094 638.2902 422.58175 653.84846 428.554 644.44619 428.554"/>
    <polygon class="cls-60" points="638.2902 426.19094 644.44619 428.554 638.2902 428.554 638.2902 426.19094"/>
    <polygon class="cls-119" points="696.18497 350.96642 690.64042 348.83807 696.18497 348.83807 696.18497 350.96642"/>
    <polygon class="cls-84" points="696.18497 354.57562 681.23815 348.83807 690.64042 348.83807 696.18497 350.96642 696.18497 354.57562"/>
    <polygon class="cls-57" points="696.18497 358.18481 671.83588 348.83807 681.23815 348.83807 696.18497 354.57562 696.18497 358.18481"/>
    <polygon class="cls-127" points="696.18497 361.79401 662.43361 348.83807 671.83588 348.83807 696.18497 358.18481 696.18497 361.79401"/>
    <polygon class="cls-25" points="696.18497 365.4032 653.03134 348.83807 662.43361 348.83807 696.18497 361.79401 696.18497 365.4032"/>
    <polygon class="cls-24" points="696.18497 369.01239 643.62906 348.83807 653.03134 348.83807 696.18497 365.4032 696.18497 369.01239"/>
    <polygon class="cls-124" points="696.18497 372.62159 634.22679 348.83807 643.62906 348.83807 696.18497 369.01239 696.18497 372.62159"/>
    <polygon class="cls-73" points="696.18497 376.23078 630.28074 350.93252 631.08472 348.83807 634.22679 348.83807 696.18497 372.62159 696.18497 376.23078"/>
    <polygon class="cls-129" points="696.18497 379.83998 629.07323 354.07819 630.28074 350.93252 696.18497 376.23078 696.18497 379.83998"/>
    <polygon class="cls-98" points="696.18497 383.44917 627.86572 357.22387 629.07323 354.07819 696.18497 379.83998 696.18497 383.44917"/>
    <polygon class="cls-82" points="696.18497 387.05836 626.6582 360.36954 627.86572 357.22387 696.18497 383.44917 696.18497 387.05836"/>
    <polygon class="cls-29" points="696.18497 390.66756 625.45069 363.51521 626.6582 360.36954 696.18497 387.05836 696.18497 390.66756"/>
    <polygon class="cls-14" points="696.18497 394.27675 624.24318 366.66089 625.45069 363.51521 696.18497 390.66756 696.18497 394.27675"/>
    <polygon class="cls-59" points="696.18497 397.88594 623.03567 369.80656 624.24318 366.66089 696.18497 394.27675 696.18497 397.88594"/>
    <polygon class="cls-96" points="696.18497 401.49514 622.26708 373.12072 622.26708 371.80881 623.03567 369.80656 696.18497 397.88594 696.18497 401.49514"/>
    <polygon class="cls-128" points="696.18497 405.10433 622.26708 376.72991 622.26708 373.12072 696.18497 401.49514 696.18497 405.10433"/>
    <polygon class="cls-28" points="696.18497 408.71353 622.26708 380.33911 622.26708 376.72991 696.18497 405.10433 696.18497 408.71353"/>
    <polygon class="cls-40" points="696.18497 412.32272 622.26708 383.9483 622.26708 380.33911 696.18497 408.71353 696.18497 412.32272"/>
    <polygon class="cls-116" points="696.18497 415.93191 622.26708 387.5575 622.26708 383.9483 696.18497 412.32272 696.18497 415.93191"/>
    <polygon class="cls-31" points="696.18497 419.54111 622.26708 391.16669 622.26708 387.5575 696.18497 415.93191 696.18497 419.54111"/>
    <polygon class="cls-12" points="696.18497 423.1503 622.26708 394.77588 622.26708 391.16669 696.18497 419.54111 696.18497 423.1503"/>
    <polygon class="cls-15" points="696.18497 426.7595 622.26708 398.38508 622.26708 394.77588 696.18497 423.1503 696.18497 426.7595"/>
    <polygon class="cls-79" points="696.18497 430.36869 622.26708 401.99427 622.26708 398.38508 696.18497 426.7595 696.18497 430.36869"/>
    <polygon class="cls-6" points="696.18497 433.97788 622.26708 405.60347 622.26708 401.99427 696.18497 430.36869 696.18497 433.97788"/>
    <polygon class="cls-66" points="696.18497 437.58708 622.26708 409.21266 622.26708 405.60347 696.18497 433.97788 696.18497 437.58708"/>
    <polygon class="cls-93" points="696.18497 441.19627 622.26708 412.82185 622.26708 409.21266 696.18497 437.58708 696.18497 441.19627"/>
    <polygon class="cls-70" points="688.87903 442.00098 622.26708 416.43105 622.26708 412.82185 696.18497 441.19627 696.18497 442.00098 688.87903 442.00098"/>
    <polygon class="cls-20" points="679.47675 442.00098 622.26708 420.04024 622.26708 416.43105 688.87903 442.00098 679.47675 442.00098"/>
    <polygon class="cls-60" points="670.07448 442.00098 622.26708 423.64943 622.26708 420.04024 679.47675 442.00098 670.07448 442.00098"/>
    <polygon class="cls-94" points="660.67221 442.00098 622.26708 427.25863 622.26708 423.64943 670.07448 442.00098 660.67221 442.00098"/>
    <polygon class="cls-92" points="651.26994 442.00098 622.26708 430.86782 622.26708 427.25863 660.67221 442.00098 651.26994 442.00098"/>
    <polygon class="cls-109" points="641.86767 442.00098 622.26708 434.47702 622.26708 430.86782 651.26994 442.00098 641.86767 442.00098"/>
    <polygon class="cls-97" points="632.4654 442.00098 622.26708 438.08621 622.26708 434.47702 641.86767 442.00098 632.4654 442.00098"/>
    <polygon class="cls-110" points="623.06312 442.00098 622.26708 441.6954 622.26708 438.08621 632.4654 442.00098 623.06312 442.00098"/>
    <polygon class="cls-89" points="622.26708 441.6954 623.06312 442.00098 622.26708 442.00098 622.26708 441.6954"/>
    <polygon class="cls-73" points="589.31337 335.20662 588.32541 334.82738 589.31337 334.82738 589.31337 335.20662"/>
    <polygon class="cls-129" points="589.31337 338.81581 578.92313 334.82738 588.32541 334.82738 589.31337 335.20662 589.31337 338.81581"/>
    <polygon class="cls-98" points="589.31337 342.42501 569.52086 334.82738 578.92313 334.82738 589.31337 338.81581 589.31337 342.42501"/>
    <polygon class="cls-82" points="589.31337 346.0342 560.11859 334.82738 569.52086 334.82738 589.31337 342.42501 589.31337 346.0342"/>
    <polygon class="cls-29" points="589.31337 349.6434 550.71632 334.82738 560.11859 334.82738 589.31337 346.0342 589.31337 349.6434"/>
    <polygon class="cls-14" points="589.31337 353.25259 541.31405 334.82738 550.71632 334.82738 589.31337 349.6434 589.31337 353.25259"/>
    <polygon class="cls-59" points="589.31337 356.86178 531.91178 334.82738 541.31405 334.82738 589.31337 353.25259 589.31337 356.86178"/>
    <polygon class="cls-96" points="589.31337 360.47098 526.90954 336.51639 526.90954 334.82738 531.91178 334.82738 589.31337 356.86178 589.31337 360.47098"/>
    <polygon class="cls-128" points="589.31337 364.08017 526.90954 340.12558 526.90954 336.51639 589.31337 360.47098 589.31337 364.08017"/>
    <polygon class="cls-28" points="589.31337 367.68936 526.90954 343.73478 526.90954 340.12558 589.31337 364.08017 589.31337 367.68936"/>
    <polygon class="cls-40" points="589.31337 371.29856 526.90954 347.34397 526.90954 343.73478 589.31337 367.68936 589.31337 371.29856"/>
    <polygon class="cls-116" points="589.31337 374.90775 526.90954 350.95317 526.90954 347.34397 589.31337 371.29856 589.31337 374.90775"/>
    <polygon class="cls-31" points="589.31337 378.51695 526.90954 354.56236 526.90954 350.95317 589.31337 374.90775 589.31337 378.51695"/>
    <polygon class="cls-12" points="589.31337 382.12614 526.90954 358.17155 526.90954 354.56236 589.31337 378.51695 589.31337 382.12614"/>
    <polygon class="cls-15" points="589.31337 385.73533 526.90954 361.78075 526.90954 358.17155 589.31337 382.12614 589.31337 385.73533"/>
    <polygon class="cls-79" points="589.31337 389.34453 526.90954 365.38994 526.90954 361.78075 589.31337 385.73533 589.31337 389.34453"/>
    <polygon class="cls-6" points="589.31337 392.95372 526.90954 368.99913 526.90954 365.38994 589.31337 389.34453 589.31337 392.95372"/>
    <polygon class="cls-66" points="589.31337 396.56292 526.90954 372.60833 526.90954 368.99913 589.31337 392.95372 589.31337 396.56292"/>
    <polygon class="cls-93" points="589.31337 399.17543 588.97992 400.04411 526.90954 376.21752 526.90954 372.60833 589.31337 396.56292 589.31337 399.17543"/>
    <polygon class="cls-70" points="588.97992 400.04411 587.77241 403.18978 526.90954 379.82672 526.90954 376.21752 588.97992 400.04411"/>
    <polygon class="cls-20" points="587.77241 403.18978 586.5649 406.33546 526.90954 383.43591 526.90954 379.82672 587.77241 403.18978"/>
    <polygon class="cls-60" points="586.5649 406.33546 585.35739 409.48113 526.90954 387.0451 526.90954 383.43591 586.5649 406.33546"/>
    <polygon class="cls-94" points="585.35739 409.48113 584.14988 412.6268 526.90954 390.6543 526.90954 387.0451 585.35739 409.48113"/>
    <polygon class="cls-92" points="584.14988 412.6268 582.94236 415.77248 526.90954 394.26349 526.90954 390.6543 584.14988 412.6268"/>
    <polygon class="cls-109" points="582.94236 415.77248 581.73485 418.91815 526.90954 397.87269 526.90954 394.26349 582.94236 415.77248"/>
    <polygon class="cls-97" points="581.73485 418.91815 580.52734 422.06383 526.90954 401.48188 526.90954 397.87269 581.73485 418.91815"/>
    <polygon class="cls-110" points="580.52734 422.06383 579.33422 425.17202 579.2222 425.17202 526.90954 405.09107 526.90954 401.48188 580.52734 422.06383"/>
    <polygon class="cls-89" points="569.81993 425.17202 526.90954 408.70027 526.90954 405.09107 579.2222 425.17202 569.81993 425.17202"/>
    <polygon class="cls-58" points="560.41766 425.17202 526.90954 412.30946 526.90954 408.70027 569.81993 425.17202 560.41766 425.17202"/>
    <polygon class="cls-80" points="551.01538 425.17202 526.90954 415.91865 526.90954 412.30946 560.41766 425.17202 551.01538 425.17202"/>
    <polygon class="cls-17" points="541.61311 425.17202 526.90954 419.52785 526.90954 415.91865 551.01538 425.17202 541.61311 425.17202"/>
    <polygon class="cls-114" points="532.21084 425.17202 526.90954 423.13704 526.90954 419.52785 541.61311 425.17202 532.21084 425.17202"/>
    <polygon class="cls-81" points="526.90954 423.13704 532.21084 425.17202 526.90954 425.17202 526.90954 423.13704"/>
    <polygon class="cls-57" points="605.73941 323.46602 596.73931 320.0112 605.73941 320.0112 605.73941 323.46602"/>
    <polygon class="cls-127" points="605.73941 327.07521 587.33704 320.0112 596.73931 320.0112 605.73941 323.46602 605.73941 327.07521"/>
    <polygon class="cls-25" points="605.73941 330.6844 577.93477 320.0112 587.33704 320.0112 605.73941 327.07521 605.73941 330.6844"/>
    <polygon class="cls-24" points="605.73941 334.2936 568.5325 320.0112 577.93477 320.0112 605.73941 330.6844 605.73941 334.2936"/>
    <polygon class="cls-124" points="605.73941 337.90279 559.13022 320.0112 568.5325 320.0112 605.73941 334.2936 605.73941 337.90279"/>
    <polygon class="cls-73" points="605.73941 341.51198 549.72795 320.0112 559.13022 320.0112 605.73941 337.90279 605.73941 341.51198"/>
    <polygon class="cls-129" points="605.73941 345.12118 540.32568 320.0112 549.72795 320.0112 605.73941 341.51198 605.73941 345.12118"/>
    <polygon class="cls-98" points="605.73941 348.73037 530.92341 320.0112 540.32568 320.0112 605.73941 345.12118 605.73941 348.73037"/>
    <polygon class="cls-82" points="605.73941 352.33957 521.52114 320.0112 530.92341 320.0112 605.73941 348.73037 605.73941 352.33957"/>
    <polygon class="cls-29" points="605.73941 355.94876 512.11887 320.0112 521.52114 320.0112 605.73941 352.33957 605.73941 355.94876"/>
    <polygon class="cls-14" points="605.73941 359.55795 510 322.80704 510 320.0112 512.11887 320.0112 605.73941 355.94876 605.73941 359.55795"/>
    <polygon class="cls-59" points="605.73941 363.16715 510 326.41623 510 322.80704 605.73941 359.55795 605.73941 363.16715"/>
    <polygon class="cls-96" points="605.73941 366.77634 510 330.02543 510 326.41623 605.73941 363.16715 605.73941 366.77634"/>
    <polygon class="cls-128" points="605.73941 370.38554 510 333.63462 510 330.02543 605.73941 366.77634 605.73941 370.38554"/>
    <polygon class="cls-28" points="605.73941 373.99473 510 337.24381 510 333.63462 605.73941 370.38554 605.73941 373.99473"/>
    <polygon class="cls-40" points="605.73941 377.60392 510 340.85301 510 337.24381 605.73941 373.99473 605.73941 377.60392"/>
    <polygon class="cls-116" points="605.73941 381.21312 510 344.4622 510 340.85301 605.73941 377.60392 605.73941 381.21312"/>
    <polygon class="cls-31" points="605.73941 384.82231 510 348.0714 510 344.4622 605.73941 381.21312 605.73941 384.82231"/>
    <polygon class="cls-12" points="605.73941 388.4315 510 351.68059 510 348.0714 605.73941 384.82231 605.73941 388.4315"/>
    <polygon class="cls-15" points="605.73941 392.0407 510 355.28978 510 351.68059 605.73941 388.4315 605.73941 392.0407"/>
    <polygon class="cls-79" points="605.73941 395.64989 510 358.89898 510 355.28978 605.73941 392.0407 605.73941 395.64989"/>
    <polygon class="cls-6" points="605.73941 399.25909 510 362.50817 510 358.89898 605.73941 395.64989 605.73941 399.25909"/>
    <polygon class="cls-66" points="605.73941 402.81906 605.72294 402.86196 510 366.11736 510 362.50817 605.73941 399.25909 605.73941 402.81906"/>
    <polygon class="cls-93" points="605.72294 402.86196 604.51543 406.00763 510 369.72656 510 366.11736 605.72294 402.86196"/>
    <polygon class="cls-70" points="604.51543 406.00763 603.30792 409.15331 510 373.33575 510 369.72656 604.51543 406.00763"/>
    <polygon class="cls-20" points="603.30792 409.15331 602.10041 412.29898 510 376.94495 510 373.33575 603.30792 409.15331"/>
    <polygon class="cls-60" points="602.10041 412.29898 600.8929 415.44465 510 380.55414 510 376.94495 602.10041 412.29898"/>
    <polygon class="cls-94" points="600.8929 415.44465 599.68539 418.59033 510 384.16333 510 380.55414 600.8929 415.44465"/>
    <polygon class="cls-92" points="599.68539 418.59033 598.47787 421.736 510 387.77253 510 384.16333 599.68539 418.59033"/>
    <polygon class="cls-109" points="598.47787 421.736 597.27036 424.88168 510 391.38172 510 387.77253 598.47787 421.736"/>
    <polygon class="cls-97" points="597.27036 424.88168 596.06285 428.02735 510 394.99092 510 391.38172 597.27036 424.88168"/>
    <polygon class="cls-110" points="596.06285 428.02735 594.85534 431.17302 510 398.60011 510 394.99092 596.06285 428.02735"/>
    <polygon class="cls-89" points="594.85534 431.17302 593.64783 434.3187 510 402.2093 510 398.60011 594.85534 431.17302"/>
    <polygon class="cls-58" points="593.64783 434.3187 592.44032 437.46437 510 405.8185 510 402.2093 593.64783 434.3187"/>
    <polygon class="cls-80" points="592.44032 437.46437 591.47165 439.98783 589.61189 439.98783 510 409.42769 510 405.8185 592.44032 437.46437"/>
    <polygon class="cls-17" points="580.20962 439.98783 510 413.03688 510 409.42769 589.61189 439.98783 580.20962 439.98783"/>
    <polygon class="cls-114" points="570.80735 439.98783 510 416.64608 510 413.03688 580.20962 439.98783 570.80735 439.98783"/>
    <polygon class="cls-81" points="561.40508 439.98783 510 420.25527 510 416.64608 570.80735 439.98783 561.40508 439.98783"/>
    <polygon class="cls-10" points="552.00281 439.98783 510 423.86447 510 420.25527 561.40508 439.98783 552.00281 439.98783"/>
    <polygon class="cls-49" points="542.60053 439.98783 510 427.47366 510 423.86447 552.00281 439.98783 542.60053 439.98783"/>
    <polygon class="cls-41" points="533.19826 439.98783 510 431.08285 510 427.47366 542.60053 439.98783 533.19826 439.98783"/>
    <polygon class="cls-115" points="523.79599 439.98783 510 434.69205 510 431.08285 533.19826 439.98783 523.79599 439.98783"/>
    <polygon class="cls-90" points="514.39372 439.98783 510 438.30124 510 434.69205 523.79599 439.98783 514.39372 439.98783"/>
    <polygon class="cls-90" points="510 438.30124 514.39372 439.98783 510 439.98783 510 438.30124"/>
  </g>
</svg>