<?xml version="1.0" encoding="UTF-8"?>
<svg id="Layer_1" data-name="Layer 1" xmlns="http://www.w3.org/2000/svg" viewBox="0 0 807.4601 700">
  <defs>
    <style>
      .cls-1 {
        opacity: .5;
      }

      .cls-1, .cls-2 {
        fill: #89cc96;
      }

      .cls-2 {
        opacity: .3;
      }
    </style>
  </defs>
  <circle class="cls-2" cx="555.5706" cy="242.9101" r="189.6403"/>
  <circle class="cls-2" cx="130.2503" cy="399.8588" r="88.8536"/>
  <circle class="cls-2" cx="545.5955" cy="614.3333" r="59.3533"/>
  <path class="cls-1" d="M555.5705,471.7864c126.405,0,228.8765-102.4714,228.8765-228.8765S681.9755,14.0336,555.5705,14.0336s-228.8765,102.4714-228.8765,228.8763c0,30.4541,5.9629,59.5115,16.7605,86.0886l-111.4551,36.917c-14.2009-42.5886-54.3872-73.2939-101.749-73.2939-59.2256,0-107.2373,48.0117-107.2373,107.2371s48.0117,107.2373,107.2373,107.2373,107.2371-48.0117,107.2371-107.2373c0-8.3616-.958-16.4993-2.7686-24.3103l112.7134-37.3335c34.7935,75.8613,109.8325,129.4126,197.7888,133.3281l-2.0813,71.2192c-38.4224,1.2969-69.1775,32.8328-69.1775,71.571,0,39.5618,32.0713,71.6331,71.6331,71.6331s71.6333-32.0713,71.6333-71.6331c0-37.0151-28.0767-67.468-64.094-71.2361l2.0842-71.3152c.1174.0002.2341.0044.3516.0044ZM212.1291,434.439c-4.4744,10.5784-10.8835,20.0828-19.0496,28.2488-8.1663,8.166-17.6707,14.5754-28.249,19.0496-10.9424,4.6284-22.5769,6.9751-34.5801,6.9751s-23.6379-2.3467-34.5803-6.9751c-10.5784-4.4741-20.0828-10.8835-28.2488-19.0496-8.1663-8.166-14.5754-17.6704-19.0498-28.2488-4.6282-10.9426-6.9751-22.5771-6.9751-34.5803s2.3469-23.6377,6.9751-34.5803c4.4744-10.5784,10.8835-20.0825,19.0498-28.2488s17.6704-14.5752,28.2488-19.0496c10.9424-4.6282,22.5769-6.9751,34.5803-6.9751s23.6377,2.3469,34.5801,6.9751c10.5784,4.4744,20.0828,10.8835,28.249,19.0496,8.166,8.1663,14.5752,17.6704,19.0496,28.2488,4.6282,10.9426,6.9749,22.5771,6.9749,34.5803s-2.3467,23.6377-6.9749,34.5803ZM587.5644,572.3643c5.4551,5.4546,9.7363,11.8035,12.7251,18.8696,3.0916,7.3096,4.6592,15.0813,4.6592,23.0994s-1.5676,15.7898-4.6592,23.0991c-2.9888,7.0662-7.27,13.415-12.7251,18.8699-5.4548,5.4548-11.8035,9.7361-18.8696,12.7251-7.3096,3.0916-15.0813,4.6592-23.0994,4.6592s-15.7898-1.5676-23.0991-4.6592c-7.0662-2.989-13.415-7.2703-18.8699-12.7251s-9.7361-11.8037-12.7251-18.8699c-3.0916-7.3093-4.6592-15.0811-4.6592-23.0991s1.5676-15.7898,4.6592-23.0994c2.989-7.0662,7.2703-13.415,12.7251-18.8696,5.4548-5.4551,11.8037-9.7363,18.8699-12.7251,7.3093-3.0916,15.0813-4.6592,23.0991-4.6592s15.7898,1.5676,23.0991,4.6592c7.0664,2.9888,13.415,7.27,18.8699,12.7251ZM421.4746,377.0062c-17.429-17.429-31.1082-37.7139-40.6577-60.2915-9.8782-23.3547-14.8867-48.186-14.8867-73.8047s5.0085-50.45,14.8867-73.8044c9.5496-22.5776,23.2288-42.8627,40.6577-60.2915,17.429-17.429,37.7139-31.1082,60.2915-40.6577,23.3545-9.8781,48.186-14.8867,73.8044-14.8867s50.4502,5.0087,73.8044,14.8867c22.5776,9.5496,42.8628,23.2288,60.2917,40.6577,17.429,17.4288,31.1082,37.7139,40.6577,60.2915,9.8782,23.3545,14.8867,48.186,14.8867,73.8044s-5.0085,50.45-14.8867,73.8047c-9.5496,22.5776-23.2288,42.8625-40.6577,60.2915-17.429,17.4287-37.7141,31.1082-60.2915,40.6575-23.3545,9.8784-48.1863,14.8867-73.8047,14.8867s-50.45-5.0083-73.8047-14.8867c-22.5774-9.5493-42.8623-23.2288-60.2913-40.6575Z"/>
</svg>